<?xml version="1.0" standalone="no"?>
<!DOCTYPE svg PUBLIC "-//W3C//DTD SVG 1.1//EN" "http://www.w3.org/Graphics/SVG/1.1/DTD/svg11.dtd" >
<svg>
<metadata>
Created by FontForge 20120731 at Fri Nov  7 10:26:03 2014
 By Orthosie Webhosting
Copyright (c) 2005 by Frantisek Storm, www.stormtype.com. All rights reserved.
</metadata>
<defs>
<font id="EtelkaMediumProRegular" horiz-adv-x="588" >
  <font-face 
    font-family="EtelkaMediumProRegular"
    font-weight="400"
    font-stretch="normal"
    units-per-em="1000"
    panose-1="2 0 5 3 8 0 0 2 0 4"
    ascent="800"
    descent="-200"
    x-height="509"
    cap-height="697"
    bbox="-156 -314 1343 890"
    underline-thickness="50"
    underline-position="-100"
    unicode-range="U+0020-FB04"
  />
<missing-glyph horiz-adv-x="530" 
d="M0 0v697h530v-697h-530zM265 419l132 196h-264zM313 349l132 -197v393zM133 82h264l-132 197zM85 545v-393l132 197z" />
    <glyph glyph-name="ff" unicode="ff" horiz-adv-x="687" 
d="M525 536v-27h165v-108h-165v-401h-124v401h-187v-401h-124v401h-85v108h85v30q0 185 202 185q98 0 172 -29q42 29 121 29q75 0 141 -22l-28 -98q-42 14 -92 14q-39 0 -60 -18.5t-21 -63.5zM214 532v-23h187v34q0 40 8 61q-48 14 -94 14q-52 0 -76.5 -18t-24.5 -68z" />
    <glyph glyph-name="fi" unicode="fi" horiz-adv-x="594" 
d="M525 509v-509h-124v401h-187v-401h-124v401h-85v108h85v30q0 105 61.5 145t177.5 40q103 0 189 -31l-29 -97q-66 22 -144 22q-66 0 -98.5 -18t-32.5 -68v-23h311z" />
    <glyph glyph-name="fl" unicode="fl" horiz-adv-x="599" 
d="M525 693v-550q0 -75 39 -120q-19 -7 -55 -23t-55 -23q-53 59 -53 161v469q-44 11 -86 11q-51 0 -76 -18t-25 -68v-23h135v-108h-135v-401h-124v401h-85v108h85v30q0 106 58.5 145.5t168.5 39.5q105 0 208 -31z" />
    <glyph glyph-name="ffi" unicode="ffi" horiz-adv-x="905" 
d="M836 509v-509h-124v401h-187v-401h-124v401h-187v-401h-124v401h-85v108h85v30q0 104 55 144.5t149 40.5q84 0 178 -34q56 34 168 34q103 0 189 -31l-29 -97q-66 22 -144 22q-66 0 -98.5 -18t-32.5 -68v-23h311zM214 532v-23h187v30q0 38 10 64q-47 15 -96 15
q-52 0 -76.5 -18t-24.5 -68z" />
    <glyph glyph-name="ffl" unicode="ffl" horiz-adv-x="911" 
d="M836 693v-550q0 -75 39 -120q-19 -7 -55 -23t-55 -23q-53 59 -53 161v469q-44 11 -86 11q-50 0 -75.5 -18.5t-25.5 -67.5v-23h135v-108h-135v-401h-124v401h-187v-401h-124v401h-85v108h85v30q0 104 55 144.5t149 40.5q93 0 176 -33q53 33 158 33t208 -31zM401 539
q0 40 10 64q-52 15 -96 15q-56 0 -78.5 -21t-22.5 -75v-13h187v30z" />
    <glyph glyph-name="Th" unicode="Th" horiz-adv-x="1083" 
d="M1018 293v-293h-124v283q0 77 -24 103t-79 26q-40 0 -68.5 -12t-28.5 -33v-367h-124v583h-199v-583h-133v583h-235v114h691v-208q66 35 140 35q64 0 101.5 -17.5t60 -69t22.5 -144.5z" />
    <glyph glyph-name="ffk" unicode="ffk" horiz-adv-x="1194" 
d="M836 693v-693h-124v607q-44 11 -86 11q-50 0 -75.5 -18.5t-25.5 -67.5v-23h135v-108h-135v-401h-124v401h-187v-401h-124v401h-85v108h85v30q0 54 16 92t46 57t63.5 27t77.5 8q100 0 177 -32q53 33 158 33q114 0 208 -31zM401 539q0 40 10 64q-52 15 -96 15
q-55 0 -78 -15.5t-23 -60.5v-33h187v30zM1195 0h-147q-173 252 -212 269q49 40 197 240h146q-137 -187 -194 -231q21 -13 77 -85.5t133 -192.5z" />
    <glyph glyph-name="fk" unicode="fk" horiz-adv-x="883" 
d="M525 0h-124v607q-44 11 -86 11q-50 0 -75.5 -18.5t-25.5 -67.5v-23h135v-108h-135v-401h-124v401h-85v108h85v30q0 106 58.5 145.5t168.5 39.5q114 0 208 -31v-693zM884 0h-147q-173 252 -212 269q49 40 197 240h146q-137 -187 -194 -231q21 -13 77 -85.5t133 -192.5z
" />
    <glyph glyph-name="fj" unicode="fj" horiz-adv-x="594" 
d="M525 509v-521q0 -202 -210 -191v103q45 0 65.5 18.5t20.5 67.5v415h-187v-401h-124v401h-85v108h85v30q0 105 61.5 145t177.5 40q103 0 189 -31l-29 -97q-66 22 -144 22q-66 0 -98.5 -18t-32.5 -68v-23h311z" />
    <glyph glyph-name=".notdef" horiz-adv-x="530" 
d="M0 0v697h530v-697h-530zM265 419l132 196h-264zM313 349l132 -197v393zM133 82h264l-132 197zM85 545v-393l132 197z" />
    <glyph glyph-name=".null" horiz-adv-x="0" 
 />
    <glyph glyph-name="nonmarkingreturn" horiz-adv-x="333" 
 />
    <glyph glyph-name="space" unicode=" " horiz-adv-x="266" 
 />
    <glyph glyph-name="exclam" unicode="!" horiz-adv-x="332" 
d="M89 697h153l-31 -474h-91zM166 143q47 0 63.5 -13t16.5 -57q0 -48 -16.5 -63t-63.5 -15q-45 0 -61.5 15t-16.5 63q0 44 16 57t62 13z" />
    <glyph glyph-name="quotedbl" unicode="&#x22;" horiz-adv-x="370" 
d="M45 697h112l-19 -240h-82zM216 697h109l-19 -240h-81z" />
    <glyph glyph-name="numbersign" unicode="#" horiz-adv-x="712" 
d="M40 435l7 100h129l10 162h116l-11 -162h138l11 162h115l-10 -162h137l-7 -100h-137l-10 -159h139l-7 -99h-138l-12 -177h-115l11 177h-138l-11 -177h-116l12 177h-128l7 99h127l10 159h-129zM285 435l-11 -159h138l11 159h-138z" />
    <glyph glyph-name="dollar" unicode="$" horiz-adv-x="622" 
d="M266 825h88v-138q111 -2 189 -27l-29 -110q-52 21 -160 23v-171q103 -14 153.5 -60.5t50.5 -131.5q0 -96 -50 -143.5t-154 -58.5v-145h-88v142q-119 2 -195 26l29 111q58 -20 166 -24v180q-102 12 -153 53t-51 123q0 96 50.5 146t153.5 62v143zM185 488q0 -34 17 -50.5
t64 -23.5v155q-81 -13 -81 -81zM435 203q0 36 -17 54.5t-64 27.5v-163q41 7 61 26t20 55z" />
    <glyph glyph-name="percent" unicode="%" horiz-adv-x="959" 
d="M633 697h117l-429 -697h-116zM217 714q100 0 141 -47t41 -176q0 -131 -41.5 -181t-140.5 -50t-140.5 50t-41.5 181q0 129 41 176t141 47zM217 349q43 0 57.5 27.5t14.5 113.5q0 85 -14.5 110.5t-57.5 25.5t-58 -25.5t-15 -110.5t15.5 -113t57.5 -28zM742 439
q100 0 141 -47t41 -175q0 -131 -41.5 -181t-140.5 -50t-140.5 50t-41.5 181q0 128 41 175t141 47zM742 74q43 0 57.5 28t14.5 114q0 85 -14.5 110t-57.5 25t-58 -25t-15 -110q0 -86 15.5 -114t57.5 -28z" />
    <glyph glyph-name="ampersand" unicode="&#x26;" horiz-adv-x="796" 
d="M761 396q0 -129 -95 -242q29 -38 108 -154h-150q-24 40 -49 75q-63 -47 -122.5 -68t-139.5 -21q-145 0 -204 43t-59 153q0 172 187 180q-86 7 -113.5 47t-27.5 119q0 96 53.5 141t188.5 45q134 0 188 -41t54 -134q0 -75 -35.5 -117t-124.5 -49q70 -6 167 -126
q41 68 41 149h133zM313 94q63 0 105.5 15.5t88.5 54.5q-56 76 -101 113t-87 37q-67 0 -98 -26.5t-31 -86.5q0 -61 26 -84t97 -23zM332 417q58 0 86.5 22.5t28.5 74.5q0 51 -24.5 70.5t-84.5 19.5t-84.5 -19t-24.5 -70q0 -53 23.5 -75.5t79.5 -22.5z" />
    <glyph glyph-name="quotesingle" unicode="'" horiz-adv-x="202" 
d="M45 697h112l-19 -240h-82z" />
    <glyph glyph-name="parenleft" unicode="(" horiz-adv-x="303" 
d="M68 249q0 419 220 517l57 -93q-146 -70 -146 -424t146 -424l-57 -93q-220 98 -220 517z" />
    <glyph glyph-name="parenright" unicode=")" horiz-adv-x="303" 
d="M235 249q0 -419 -220 -517l-58 93q146 70 146 424t-146 424l58 93q220 -98 220 -517z" />
    <glyph glyph-name="asterisk" unicode="*" horiz-adv-x="494" 
d="M30 479v100h129l-65 113l89 50l64 -112l64 112l89 -50l-66 -113h130v-100h-130l65 -113l-88 -49l-64 110l-64 -110l-89 50l65 112h-129z" />
    <glyph glyph-name="plus" unicode="+" horiz-adv-x="582" 
d="M48 303v118h183v184h119v-184h184v-118h-184v-184h-119v184h-183z" />
    <glyph glyph-name="comma" unicode="," horiz-adv-x="285" 
d="M236 103l-115 -262h-111l78 262h148z" />
    <glyph glyph-name="hyphen" unicode="-" horiz-adv-x="304" 
d="M29 222v118h246v-118h-246z" />
    <glyph glyph-name="hyphen" unicode="&#xad;" horiz-adv-x="304" 
d="M29 222v118h246v-118h-246z" />
    <glyph glyph-name="period" unicode="." horiz-adv-x="285" 
d="M141 143q48 0 64 -13t16 -57q0 -48 -16.5 -63t-63.5 -15q-45 0 -61 15t-16 63q0 44 15.5 57t61.5 13z" />
    <glyph glyph-name="slash" unicode="/" horiz-adv-x="467" 
d="M371 697h134l-356 -697h-134z" />
    <glyph glyph-name="zero" unicode="0" horiz-adv-x="626" 
d="M313 714q91 0 146 -29.5t85.5 -109t30.5 -217.5q0 -141 -30 -223.5t-85.5 -115.5t-146.5 -33q-136 0 -199 82.5t-63 289.5q0 138 30.5 217.5t85.5 109t146 29.5zM313 105q54 0 80.5 20t38.5 73t12 160q0 106 -12 156.5t-38 66.5t-81 16t-80.5 -16t-37.5 -66.5t-12 -156.5
q0 -107 12 -160t38.5 -73t79.5 -20z" />
    <glyph glyph-name="one" unicode="1" horiz-adv-x="626" 
d="M410 0h-129v556l-156 -67l-37 108l322 129v-726z" />
    <glyph glyph-name="two" unicode="2" horiz-adv-x="626" 
d="M102 568l-28 114q103 32 222 32q136 0 197 -44.5t61 -160.5q0 -56 -10.5 -94t-48 -83.5t-98 -93t-171.5 -124.5h327v-114h-506v106q95 72 148 113.5t100 82t66 61t33.5 46.5t17 43t2.5 46q0 56 -28.5 76.5t-100.5 20.5q-109 0 -183 -27z" />
    <glyph glyph-name="three" unicode="3" horiz-adv-x="626" 
d="M193 310v112h96q65 0 91 19.5t26 69.5q0 49 -30 67t-120 18q-104 0 -175 -22l-26 114q120 26 226 26q147 0 205.5 -41t58.5 -137q0 -77 -31 -118t-118 -49q93 -4 128 -49.5t35 -131.5q0 -112 -64.5 -157t-215.5 -45q-117 0 -229 25l25 114q71 -20 178 -20
q98 0 130.5 21.5t32.5 79.5q0 59 -28 81.5t-96 22.5h-99z" />
    <glyph glyph-name="four" unicode="4" horiz-adv-x="622" 
d="M365 179h-348v41q164 294 298 477h176v-409h93v-109h-93v-179h-126v179zM365 288v295q-92 -121 -188 -295h188z" />
    <glyph glyph-name="five" unicode="5" horiz-adv-x="626" 
d="M96 697h432v-114h-307v-155q52 4 83 4q145 0 200.5 -49t55.5 -168q0 -131 -61 -180t-213 -49q-118 0 -222 25l26 114q66 -20 171 -20q95 0 125.5 20.5t30.5 82.5q0 67 -28 89.5t-122 22.5q-98 0 -171 -14v391z" />
    <glyph glyph-name="six" unicode="6" horiz-adv-x="626" 
d="M562 687l-29 -116q-61 23 -164 23q-88 0 -129.5 -35t-44.5 -138q63 11 132 11q145 0 201.5 -49t56.5 -168q0 -131 -58 -180t-204 -49q-151 0 -210 78.5t-59 289.5q0 107 17 176.5t56.5 110.5t96.5 57t145 16q102 0 193 -27zM323 105q74 0 99 22t25 81q0 62 -25 87
t-100 25q-63 0 -129 -10q2 -124 31 -164.5t99 -40.5z" />
    <glyph glyph-name="seven" unicode="7" horiz-adv-x="626" 
d="M602 697v-40q-69 -110 -161 -310.5t-141 -346.5h-149q59 161 137 328.5t139 254.5h-360v114h535z" />
    <glyph glyph-name="eight" unicode="8" horiz-adv-x="626" 
d="M313 94q71 0 98 23.5t27 83.5q0 61 -28 87t-97 26t-96.5 -26t-27.5 -87t26.5 -84t97.5 -23zM313 417q60 0 86.5 22.5t26.5 75.5q0 51 -25 70t-88 19q-64 0 -89 -19t-25 -70q0 -53 26.5 -75.5t87.5 -22.5zM313 -14q-143 0 -202.5 45.5t-59.5 156.5q0 86 34.5 131.5
t128.5 49.5q-87 8 -117.5 49t-30.5 118q0 95 53 136.5t194 41.5t194 -41.5t53 -136.5q0 -77 -30.5 -118t-117.5 -49q94 -4 128.5 -49.5t34.5 -131.5q0 -111 -59 -156.5t-203 -45.5z" />
    <glyph glyph-name="nine" unicode="9" horiz-adv-x="626" 
d="M171 0q167 158 225 273q-40 -5 -87 -5q-146 0 -202 46t-56 164q0 132 58.5 184t203.5 52q157 0 211.5 -50t54.5 -191q0 -137 -65 -249.5t-179 -223.5h-164zM323 380q62 0 108 7q9 35 9 72q0 87 -25.5 112t-101.5 25q-74 0 -99 -25t-25 -87q0 -65 25 -84.5t109 -19.5z" />
    <glyph glyph-name="colon" unicode=":" horiz-adv-x="285" 
d="M141 143q48 0 64 -13t16 -57q0 -48 -16.5 -63t-63.5 -15q-45 0 -61 15t-16 63q0 44 15.5 57t61.5 13zM141 515q48 0 64 -13t16 -58q0 -48 -16.5 -62.5t-63.5 -14.5q-45 0 -61 14.5t-16 62.5q0 45 15.5 58t61.5 13z" />
    <glyph glyph-name="semicolon" unicode=";" horiz-adv-x="285" 
d="M236 103l-115 -262h-111l78 262h148zM141 515q48 0 64 -13t16 -58q0 -48 -16.5 -62.5t-63.5 -14.5q-45 0 -61 14.5t-16 62.5q0 45 15.5 58t61.5 13z" />
    <glyph glyph-name="less" unicode="&#x3c;" horiz-adv-x="582" 
d="M515 587l-268 -225l268 -227l-65 -90l-366 285v61l364 284z" />
    <glyph glyph-name="equal" unicode="=" horiz-adv-x="582" 
d="M48 168v118h486v-118h-486zM48 435v118h486v-118h-486z" />
    <glyph glyph-name="greater" unicode="&#x3e;" horiz-adv-x="582" 
d="M85 134l268 225l-268 228l65 89l365 -285v-61l-364 -284z" />
    <glyph glyph-name="question" unicode="?" horiz-adv-x="493" 
d="M235 143q48 0 64 -13t16 -57q0 -48 -16.5 -62.5t-63.5 -14.5q-45 0 -61 14.5t-16 62.5q0 44 15.5 57t61.5 13zM300 215h-130q79 84 113.5 149.5t34.5 142.5q0 44 -27 65.5t-94 21.5q-90 0 -143 -21l-27 116q80 25 181 25q137 0 198 -49.5t61 -152.5q0 -80 -41.5 -149
t-125.5 -148z" />
    <glyph glyph-name="at" unicode="@" horiz-adv-x="939" 
d="M429 528q-80 0 -125.5 -9t-78 -37.5t-44 -78.5t-11.5 -135q0 -86 12.5 -137t48.5 -82t90.5 -41.5t147.5 -10.5q179 0 241.5 62t62.5 242q0 129 -22 187h113q20 -68 20 -191q0 -228 -95.5 -316t-318.5 -88q-114 0 -189 17t-128 59.5t-76 114.5t-23 182q0 107 24 179.5
t74.5 112.5t115 56.5t157.5 16.5q74 0 118 -10t77 -40t46.5 -84.5t13.5 -143.5q0 -85 -10 -134.5t-38 -78t-66.5 -37t-107.5 -8.5q-117 0 -160.5 35t-43.5 134q0 101 40.5 133.5t145.5 32.5q78 0 125 -10q-1 63 -29 85.5t-107 22.5zM471 342q-57 0 -76.5 -13.5t-19.5 -60.5
t19.5 -62.5t77.5 -15.5q53 0 73 20t20 78v47q-36 7 -94 7z" />
    <glyph glyph-name="A" unicode="A" horiz-adv-x="682" 
d="M555 0q-44 110 -67 174h-305q-23 -71 -54 -174h-138q107 341 252 697h207q128 -403 251 -697h-146zM353 585h-27q-49 -127 -108 -298h232q-54 153 -97 298z" />
    <glyph glyph-name="B" unicode="B" horiz-adv-x="712" 
d="M220 111h220q67 0 67 98q0 103 -71 103h-216v-201zM220 585v-166h214q60 0 60 84q0 43 -13.5 62.5t-46.5 19.5h-214zM489 369q93 -4 126.5 -48t33.5 -130q0 -191 -180 -191h-381v697h375q98 0 134.5 -41.5t36.5 -125.5q0 -77 -29 -115t-116 -46z" />
    <glyph glyph-name="C" unicode="C" horiz-adv-x="592" 
d="M53 355q0 106 19.5 176t62 110.5t100.5 56.5t145 16q106 0 200 -26l-29 -116q-61 22 -148 22q-63 0 -98 -7.5t-62.5 -32.5t-38 -72.5t-10.5 -127.5t10.5 -128.5t37.5 -75t63 -35t98 -8.5q87 0 148 22l29 -118q-90 -25 -200 -25q-115 0 -184 32.5t-106 114.5t-37 222z" />
    <glyph glyph-name="D" unicode="D" horiz-adv-x="736" 
d="M88 697h266q86 0 145 -16t101.5 -55t62.5 -106.5t20 -168.5q0 -196 -78.5 -273.5t-250.5 -77.5h-266v697zM542 350q0 78 -9 123t-34.5 70t-60.5 32.5t-97 7.5h-121v-469h121q81 0 122 18t60 68.5t19 149.5z" />
    <glyph glyph-name="E" unicode="E" horiz-adv-x="620" 
d="M88 697h506v-114h-374v-161h267v-113h-267v-195h374v-114h-506v697z" />
    <glyph glyph-name="F" unicode="F" horiz-adv-x="584" 
d="M88 697h496v-114h-364v-197h267v-113h-267v-273h-132v697z" />
    <glyph glyph-name="G" unicode="G" horiz-adv-x="700" 
d="M493 116v180h-152v111h287v-391q-95 -30 -248 -30q-115 0 -184 32.5t-106 114.5t-37 222q0 106 21.5 176.5t67 110.5t107 56t150.5 16q116 0 210 -26l-27 -115q-60 21 -173 21q-52 0 -83.5 -4.5t-59.5 -18t-42 -40.5t-22 -69.5t-8 -107.5q0 -80 10.5 -129t37.5 -75.5
t63.5 -35t97.5 -8.5q48 0 90 10z" />
    <glyph glyph-name="H" unicode="H" horiz-adv-x="736" 
d="M220 309v-309h-132v697h132v-266h298v266h130v-697h-130v309h-298z" />
    <glyph glyph-name="I" unicode="I" horiz-adv-x="308" 
d="M88 697h132v-697h-132v697z" />
    <glyph glyph-name="J" unicode="J" horiz-adv-x="461" 
d="M375 697l1 -505q0 -206 -212 -206q-84 0 -158 27l26 118q53 -21 119 -21q91 0 91 99v488h133z" />
    <glyph glyph-name="K" unicode="K" horiz-adv-x="662" 
d="M220 697v-697h-132v697h132zM675 0h-162q-97 160 -177.5 257t-114.5 111q37 26 112 115t160 214h160q-87 -123 -159 -208.5t-104 -111.5q33 -22 112.5 -122t172.5 -255z" />
    <glyph glyph-name="L" unicode="L" horiz-adv-x="551" 
d="M88 697h132v-582h329v-115h-461v697z" />
    <glyph glyph-name="M" unicode="M" horiz-adv-x="916" 
d="M464 251q81 215 193 446h171v-697h-129v519q-82 -180 -194 -455h-103q-130 330 -187 455v-519h-127v697h180q100 -206 196 -446z" />
    <glyph glyph-name="N" unicode="N" horiz-adv-x="774" 
d="M685 697v-697h-161q-143 265 -307 525v-525h-129v697h173q151 -238 293 -503v503h131z" />
    <glyph glyph-name="O" unicode="O" horiz-adv-x="770" 
d="M385 714q87 0 146 -16.5t102 -56.5t63 -110.5t20 -175.5q0 -107 -20 -179t-63 -113.5t-102.5 -59t-145.5 -17.5q-87 0 -146.5 17.5t-102.5 59t-63 113.5t-20 179q0 105 20 175.5t63.5 110.5t102.5 56.5t146 16.5zM385 105q48 0 78.5 6t54 20.5t35.5 43.5t17.5 71t5.5 107
q0 81 -7.5 127t-31 72.5t-57.5 34.5t-95 8t-95 -8t-57.5 -34.5t-31 -72.5t-7.5 -127q0 -65 5.5 -107t17.5 -71t35.5 -43.5t54 -20.5t78.5 -6z" />
    <glyph glyph-name="P" unicode="P" horiz-adv-x="673" 
d="M220 340h194q86 0 86 119q0 126 -83 126h-197v-245zM220 0h-132v697h363q194 0 194 -239q0 -98 -48 -163t-143 -65h-234v-230z" />
    <glyph glyph-name="Q" unicode="Q" horiz-adv-x="783" 
d="M391 714q87 0 146 -16.5t102.5 -56.5t63.5 -110.5t20 -175.5q0 -162 -48 -241.5t-147 -98.5q71 -19 207 -207h-154q-55 84 -105.5 129t-86.5 49q-86 0 -145 17.5t-101.5 59.5t-62.5 114t-20 178q0 105 20 175.5t63 110.5t102 56.5t146 16.5zM391 105q49 0 79.5 6t54 20.5
t35.5 43.5t17.5 71t5.5 107q0 107 -17 157.5t-55 67.5t-120 17q-49 0 -79 -5t-53.5 -19t-35 -42t-17 -69.5t-5.5 -106.5q0 -81 7.5 -127.5t30.5 -74.5t57 -37t95 -9z" />
    <glyph glyph-name="R" unicode="R" horiz-adv-x="706" 
d="M220 585v-210h197q81 0 81 102q0 108 -78 108h-200zM462 303q36 -13 88.5 -81.5t144.5 -221.5h-163q-80 141 -132.5 203.5t-86.5 62.5h-93v-266h-132v697h363q194 0 194 -203q0 -184 -183 -191z" />
    <glyph glyph-name="S" unicode="S" horiz-adv-x="622" 
d="M559 683l-29 -114q-70 25 -184 25q-85 0 -121 -20.5t-36 -70.5q0 -42 30.5 -61t122.5 -28q123 -13 178.5 -62t55.5 -147q0 -120 -72.5 -169.5t-228.5 -49.5q-126 0 -217 31l29 114q79 -25 186 -25q86 0 123.5 20t37.5 72q0 43 -32.5 66t-126.5 31q-119 12 -172.5 55
t-53.5 137q0 120 73.5 173.5t223.5 53.5q118 0 213 -31z" />
    <glyph glyph-name="T" unicode="T" horiz-adv-x="609" 
d="M371 0h-133v583h-235v114h603v-114h-235v-583z" />
    <glyph glyph-name="U" unicode="U" horiz-adv-x="742" 
d="M663 697l1 -486q0 -129 -72.5 -177t-220.5 -48t-220.5 48t-72.5 177v486h133v-466q0 -70 35.5 -97t124.5 -27q88 0 124.5 26.5t36.5 97.5v466h131z" />
    <glyph glyph-name="V" unicode="V" horiz-adv-x="648" 
d="M-19 697h146q116 -280 199 -563q96 236 192 563h139q-106 -346 -255 -697h-169q-128 415 -252 697z" />
    <glyph glyph-name="W" unicode="W" horiz-adv-x="975" 
d="M493 478q-38 -185 -128 -478h-167q-111 447 -200 697h144q81 -243 150 -533q102 337 140 533h122q106 -380 137 -533q83 258 145 533h136q-87 -357 -202 -697h-168q-39 207 -109 478z" />
    <glyph glyph-name="X" unicode="X" horiz-adv-x="674" 
d="M169 697q74 -95 175 -230q97 135 160 230h162q-105 -154 -241 -342q179 -248 252 -355h-164q-98 141 -170 241q-127 -167 -185 -241h-162q102 127 266 352q-162 218 -262 345h169z" />
    <glyph glyph-name="Y" unicode="Y" horiz-adv-x="638" 
d="M134 697q89 -111 194 -266q112 150 184 266h160q-131 -197 -281 -396v-301h-132v300q-177 251 -297 397h172z" />
    <glyph glyph-name="Z" unicode="Z" horiz-adv-x="621" 
d="M17 0v32q184 250 382 551h-360v114h565v-30q-80 -129 -193 -293t-189 -260h375v-114h-580z" />
    <glyph glyph-name="bracketleft" unicode="[" horiz-adv-x="341" 
d="M90 755h270v-108h-141v-800h141v-107h-270v1015z" />
    <glyph glyph-name="backslash" unicode="\" horiz-adv-x="467" 
d="M-29 697h134l356 -697h-134z" />
    <glyph glyph-name="bracketright" unicode="]" horiz-adv-x="341" 
d="M-19 755h270v-1015h-270v107h141v800h-141v108z" />
    <glyph glyph-name="asciicircum" unicode="^" horiz-adv-x="531" 
d="M384 296l-121 266l-119 -266h-131l192 401h119l194 -401h-134z" />
    <glyph glyph-name="underscore" unicode="_" horiz-adv-x="470" 
d="M29 -166v118h412v-118h-412z" />
    <glyph glyph-name="grave" unicode="`" horiz-adv-x="481" 
d="M347 568h-110l-144 129h132z" />
    <glyph glyph-name="a" unicode="a" horiz-adv-x="560" 
d="M494 326v-300q-102 -40 -230 -40q-122 0 -168.5 35.5t-46.5 134.5q0 100 49.5 133.5t150.5 33.5q59 0 126 -14q0 68 -24 89.5t-103 21.5q-84 0 -154 -25l-23 102q102 27 203 27q117 0 168.5 -43.5t51.5 -154.5zM375 98v127q-42 9 -101 9q-56 0 -75.5 -13t-19.5 -60
q0 -51 18 -65.5t76 -14.5q53 0 102 17z" />
    <glyph glyph-name="b" unicode="b" 
d="M193 367v-263q42 -16 99 -16q69 0 93 31.5t24 136.5q0 93 -24.5 126t-90.5 33q-43 0 -72 -13t-29 -35zM69 23v699h124v-232q56 34 132 34q110 0 160.5 -58.5t50.5 -207.5q0 -153 -57 -212.5t-187 -59.5t-223 37z" />
    <glyph glyph-name="c" unicode="c" horiz-adv-x="470" 
d="M430 118l28 -106q-65 -26 -155 -26q-124 0 -188 61t-64 210q0 148 64 207.5t188 59.5q90 0 155 -24l-28 -106q-59 22 -118 22q-49 0 -75.5 -10.5t-42 -46t-15.5 -104.5q0 -96 30.5 -128.5t102.5 -32.5q59 0 118 24z" />
    <glyph glyph-name="d" unicode="d" 
d="M394 107v263q0 22 -28.5 35.5t-71.5 13.5q-66 0 -90.5 -34t-24.5 -128q0 -101 24.5 -133t92.5 -32q55 0 98 15zM518 722v-699q-92 -37 -222 -37q-131 0 -188 58.5t-57 210.5q0 147 56 208t165 61q70 0 122 -29v227h124z" />
    <glyph glyph-name="e" unicode="e" horiz-adv-x="552" 
d="M456 112l20 -98q-84 -28 -178 -28q-119 0 -183 61.5t-64 209.5q0 146 59.5 206.5t177.5 60.5q64 0 104.5 -12.5t69.5 -46t40 -92.5t8 -151h-329q1 -78 31 -104.5t101 -26.5q73 0 143 21zM295 426q-59 0 -83 -23t-30 -86h214q-3 66 -24.5 87.5t-76.5 21.5z" />
    <glyph glyph-name="f" unicode="f" horiz-adv-x="376" 
d="M214 536v-27h165v-108h-165v-401h-124v401h-85v108h85v34q0 102 49.5 141.5t135.5 39.5q74 0 140 -22l-28 -98q-42 14 -92 14q-40 0 -60.5 -18t-20.5 -64z" />
    <glyph glyph-name="g" unicode="g" 
d="M394 143v262q-45 17 -98 17q-69 0 -93 -31.5t-24 -136.5q0 -94 24 -126.5t90 -32.5q43 0 72 13t29 35zM394 21q-54 -33 -129 -33q-111 0 -162.5 58t-51.5 207q0 152 57.5 211.5t187.5 59.5q131 0 222 -38v-447q0 -73 -19 -122t-57 -74.5t-84.5 -36t-111.5 -10.5
q-101 0 -179 30l25 100q78 -25 153 -25t112 26.5t37 93.5z" />
    <glyph glyph-name="h" unicode="h" horiz-adv-x="583" 
d="M333 524q64 0 101.5 -17.5t60 -69t22.5 -144.5v-293h-124v283q0 67 -22.5 98t-79.5 31q-41 0 -69.5 -12t-28.5 -33v-367h-124v722h124v-233q68 35 140 35z" />
    <glyph glyph-name="i" unicode="i" horiz-adv-x="262" 
d="M193 509v-509h-124v509h124zM132 721q42 0 56.5 -11.5t14.5 -49.5q0 -43 -14.5 -56t-56.5 -13q-43 0 -57.5 13t-14.5 56q0 38 14.5 49.5t57.5 11.5z" />
    <glyph glyph-name="j" unicode="j" horiz-adv-x="262" 
d="M-16 -203v103q44 0 64.5 18.5t20.5 67.5v523h124v-520q0 -109 -50 -150.5t-159 -41.5zM132 721q42 0 56.5 -11.5t14.5 -49.5q0 -43 -14.5 -56t-56.5 -13q-43 0 -57.5 13t-14.5 56q0 38 14.5 49.5t57.5 11.5z" />
    <glyph glyph-name="k" unicode="k" horiz-adv-x="551" 
d="M193 722v-722h-124v722h124zM552 0h-146q-174 252 -213 269q49 40 197 240h147q-139 -188 -195 -231q22 -13 78 -86t132 -192z" />
    <glyph glyph-name="l" unicode="l" horiz-adv-x="268" 
d="M193 722v-579q0 -68 39 -120l-109 -47q-54 62 -54 162v584h124z" />
    <glyph glyph-name="m" unicode="m" horiz-adv-x="881" 
d="M193 400v-400h-124v480q114 44 235 44q86 0 130 -34q93 34 181 34q109 0 154.5 -52.5t45.5 -187.5v-284h-124v271q0 85 -20.5 113t-81.5 28q-53 0 -99 -14q14 -47 14 -114v-284h-124v271q0 85 -20.5 113t-81.5 28q-42 0 -85 -12z" />
    <glyph glyph-name="n" unicode="n" horiz-adv-x="583" 
d="M193 400v-400h-124v480q114 44 241 44q110 0 158.5 -53t48.5 -187v-284h-124v271q0 85 -21.5 113t-87.5 28q-46 0 -91 -12z" />
    <glyph glyph-name="o" unicode="o" 
d="M293 -14q-127 0 -184.5 59.5t-57.5 211.5q0 150 58 208.5t184 58.5q128 0 186 -58.5t58 -208.5q0 -152 -58 -211.5t-186 -59.5zM293 424q-68 0 -91 -31.5t-23 -137.5q0 -103 23.5 -136t90.5 -33q68 0 92 33t24 136q0 73 -11 109t-34.5 48t-70.5 12z" />
    <glyph glyph-name="p" unicode="p" 
d="M193 402v-262q0 -22 29 -35.5t71 -13.5q66 0 91 34t25 127q0 102 -24.5 133.5t-92.5 31.5q-60 0 -99 -15zM69 -192v678q91 38 223 38q130 0 187 -58.5t57 -210.5q0 -148 -56 -208.5t-165 -60.5q-64 0 -122 29v-207h-124z" />
    <glyph glyph-name="q" unicode="q" 
d="M394 143v262q-45 17 -98 17q-69 0 -93 -31.5t-24 -136.5q0 -94 24 -126.5t90 -32.5q43 0 72 13t29 35zM518 486v-678h-124v212q-56 -34 -132 -34q-110 0 -160.5 58.5t-50.5 208.5q0 152 57.5 211.5t187.5 59.5q131 0 222 -38z" />
    <glyph glyph-name="r" unicode="r" horiz-adv-x="379" 
d="M69 0v509h124v-38q34 53 130 53q25 0 52 -3v-118q-31 7 -65 7q-49 0 -83 -15t-34 -42v-353h-124z" />
    <glyph glyph-name="s" unicode="s" horiz-adv-x="491" 
d="M434 496l-27 -97q-74 24 -148 24q-51 0 -71.5 -11t-20.5 -48q0 -26 21.5 -37.5t83.5 -17.5q95 -10 136 -44t41 -109q0 -94 -56 -132t-162 -38t-182 27l26 98q68 -24 151 -24q55 0 77.5 12t22.5 50q0 28 -22.5 41.5t-86.5 19.5q-89 7 -130.5 38.5t-41.5 106.5
q0 93 56.5 131t161.5 38q87 0 171 -28z" />
    <glyph glyph-name="t" unicode="t" horiz-adv-x="415" 
d="M388 401h-169v-219q0 -49 16.5 -69t60.5 -20q43 0 87 14l22 -98q-64 -23 -140 -23q-91 0 -130.5 38.5t-39.5 146.5v230h-85v108h85v86l124 51v-137h169v-108z" />
    <glyph glyph-name="u" unicode="u" horiz-adv-x="583" 
d="M390 110v399h124v-480q-116 -44 -241 -44q-110 0 -158.5 53t-48.5 187v284h124v-271q0 -85 21.5 -113t86.5 -28q49 0 92 13z" />
    <glyph glyph-name="v" unicode="v" horiz-adv-x="511" 
d="M255 125q84 222 126 384h126q-69 -232 -183 -509h-153q-84 298 -171 509h129q67 -171 126 -384z" />
    <glyph glyph-name="w" unicode="w" horiz-adv-x="830" 
d="M415 341q-38 -170 -98 -341h-153q-78 281 -164 509h131q65 -174 116 -382q26 75 60 193.5t50 188.5h121q56 -167 103 -382q80 220 118 382h126q-74 -264 -174 -509h-154q-37 192 -82 341z" />
    <glyph glyph-name="x" unicode="x" horiz-adv-x="521" 
d="M516 0h-140q-37 61 -107 161q-64 -87 -125 -161h-138q77 90 198 254q-113 157 -197 255h148q53 -66 117 -156q40 55 105 156h138q-75 -113 -175 -251q98 -138 176 -258z" />
    <glyph glyph-name="y" unicode="y" horiz-adv-x="511" 
d="M180 -25q-83 299 -180 534h129q68 -170 126 -386q85 226 126 386h126q-72 -245 -193 -530q-42 -100 -79 -171h-138q37 66 83 167z" />
    <glyph glyph-name="z" unicode="z" horiz-adv-x="497" 
d="M35 509h439v-25q-53 -85 -131.5 -197.5t-130.5 -178.5h255v-108h-449v25q70 88 148 199.5t118 176.5h-249v108z" />
    <glyph glyph-name="braceleft" unicode="{" horiz-adv-x="338" 
d="M31 198v-1v103q110 0 110 201q0 211 164 266l59 -93q-54 -19 -78.5 -63.5t-24.5 -149.5t-27 -153.5t-61 -58.5q34 -10 61 -59.5t27 -154.5q0 -106 24 -149.5t79 -63.5l-59 -92q-164 55 -164 267q0 201 -110 201z" />
    <glyph glyph-name="bar" unicode="|" horiz-adv-x="371" 
d="M120 755h131v-1011h-131v1011z" />
    <glyph glyph-name="braceright" unicode="}" horiz-adv-x="338" 
d="M307 274v-76q-110 0 -110 -201q0 -211 -164 -266q-10 15 -29.5 46t-29.5 47q54 19 78.5 63.5t24.5 149.5q0 104 27 153t61 59q-34 10 -61 59.5t-27 154.5t-24 149t-79 63q10 15 29.5 45.5t29.5 46.5q164 -55 164 -266q0 -201 110 -201v-26z" />
    <glyph glyph-name="asciitilde" unicode="~" horiz-adv-x="582" 
d="M466 445l80 -63q-19 -51 -59 -83t-94 -32q-40 0 -115 43t-104 43q-38 0 -64 -60l-72 69q57 97 137 97q47 0 122 -41.5t101 -41.5q23 0 38.5 15t29.5 54z" />
    <glyph glyph-name="nbspace" unicode="&#xa0;" horiz-adv-x="266" 
 />
    <glyph glyph-name="exclamdown" unicode="&#xa1;" horiz-adv-x="332" 
d="M244 -178h-154l32 474h90zM166 376q-47 0 -63 13t-16 57q0 48 16.5 63t62.5 15q45 0 61.5 -15t16.5 -63q0 -44 -16 -57t-62 -13z" />
    <glyph glyph-name="cent" unicode="&#xa2;" horiz-adv-x="458" 
d="M244 751h98v-104q63 -5 107 -21l-28 -98q-31 14 -79 16v-328q47 3 79 18l28 -96q-41 -18 -107 -24v-121h-98v121q-95 13 -144 75.5t-49 193.5q0 129 49.5 190t143.5 72v106zM170 380q0 -70 18 -104.5t56 -45.5v301q-39 -10 -56.5 -44t-17.5 -107z" />
    <glyph glyph-name="sterling" unicode="&#xa3;" horiz-adv-x="610" 
d="M36 293v105h59v79q0 119 67.5 177.5t211.5 58.5q123 0 213 -31l-29 -113q-72 24 -184 24q-82 0 -114.5 -25t-32.5 -83v-87h197v-105h-197v-179h339v-114h-471v293h-59z" />
    <glyph glyph-name="currency" unicode="&#xa4;" horiz-adv-x="674" 
d="M342 83q-64 0 -104 17l-80 -100l-104 75l80 103q-34 61 -34 177q0 108 31 168l-77 102l114 72l70 -93q40 17 104 17t102 -15l61 91l114 -71l-68 -97q35 -61 35 -174q0 -115 -35 -177l74 -103l-112 -75l-70 98q-42 -15 -101 -15zM342 515q-48 0 -71 -10t-35.5 -45
t-12.5 -108q0 -101 25 -132t94 -31q70 0 95.5 31t25.5 132q0 55 -6 87.5t-22 49t-36 21.5t-57 5z" />
    <glyph glyph-name="yen" unicode="&#xa5;" horiz-adv-x="638" 
d="M81 278v92h128q-145 202 -247 327h172q89 -111 194 -266q112 150 184 266h160q-105 -159 -230 -327h120v-92h-171v-78h171v-92h-171v-108h-132v108h-178v92h178v78h-178z" />
    <glyph glyph-name="brokenbar" unicode="&#xa6;" horiz-adv-x="371" 
d="M120 755h131v-367h-131v367zM120 111h131v-367h-131v367z" />
    <glyph glyph-name="section" unicode="&#xa7;" horiz-adv-x="622" 
d="M551 684l-27 -108q-68 24 -176 24q-80 0 -116 -20.5t-36 -67.5q0 -38 29.5 -55.5t118.5 -25.5q120 -12 179.5 -57t59.5 -134q0 -63 -46 -119q36 -39 36 -108q0 -216 -294 -216q-116 0 -203 30l27 108q63 -24 176 -24q81 0 116.5 20.5t35.5 66.5q0 38 -29.5 56t-117.5 26
q-120 12 -179.5 57t-59.5 133q0 68 43 122q-33 39 -33 105q0 217 294 217q115 0 202 -30zM195 334q-18 -23 -18 -57q0 -40 34 -58t134 -27q49 -3 87 -16q18 23 18 57q0 40 -34 58.5t-134 26.5q-59 5 -87 16z" />
    <glyph glyph-name="dieresis" unicode="&#xa8;" horiz-adv-x="462" 
d="M119 681q35 0 47.5 -10t12.5 -45q0 -38 -12.5 -50t-47.5 -12t-47 11.5t-12 50.5q0 35 12 45t47 10zM333 681q35 0 47 -10t12 -45q0 -38 -12.5 -50t-46.5 -12q-36 0 -48 11.5t-12 50.5q0 35 12 45t48 10z" />
    <glyph glyph-name="copyright" unicode="&#xa9;" horiz-adv-x="837" 
d="M418 714q93 0 157 -16.5t111 -56.5t69 -110.5t22 -175.5q0 -208 -86 -288.5t-273 -80.5q-93 0 -157 17.5t-110.5 59t-68.5 113.5t-22 179q0 105 22 175.5t69 110.5t110.5 56.5t156.5 16.5zM418 78q74 0 118 10t75.5 40.5t43.5 84t12 141.5t-12 140t-44 81t-75 38t-118 9
q-74 0 -117 -9t-75 -38t-44 -81t-12 -140t12 -141.5t43.5 -84t75.5 -40.5t117 -10zM548 246l23 -89q-59 -22 -130 -22q-112 0 -160.5 46t-48.5 172t48.5 170.5t160.5 44.5q73 0 130 -19l-23 -90q-42 16 -101 16t-80.5 -23t-21.5 -100q0 -74 22 -99t80 -25t101 18z" />
    <glyph glyph-name="ordfeminine" unicode="&#xaa;" horiz-adv-x="435" 
d="M375 577v-215q-74 -28 -165 -28q-86 0 -118 25t-32 95q0 71 34.5 94.5t105.5 23.5q45 0 88 -10q0 47 -17.5 62t-71.5 15q-60 0 -108 -16l-15 72q76 19 142 19q82 0 119.5 -30t37.5 -107zM288 413v89q-27 7 -70 7q-35 0 -50.5 -10t-15.5 -41q0 -33 13.5 -45t51.5 -12
q37 0 71 12z" />
    <glyph glyph-name="guillemotleft" unicode="&#xab;" horiz-adv-x="668" 
d="M368 518l-176 -204l176 -208l-70 -75l-271 281l270 279zM641 518l-176 -204l176 -208l-70 -75l-271 281l270 279z" />
    <glyph glyph-name="logicalnot" unicode="&#xac;" horiz-adv-x="519" 
d="M486 0h-131v311h-326v117h457v-428z" />
    <glyph glyph-name="registered" unicode="&#xae;" horiz-adv-x="571" 
d="M411 512q0 -44 -17 -62t-51 -18q44 -21 61 -98h-85q-5 27 -19.5 51.5t-25.5 24.5h-19v-76h-78v266h163q36 0 53.5 -24.5t17.5 -63.5zM330 508q0 28 -21 28h-54v-58h54q21 0 21 30zM524 466q0 -139 -56.5 -194t-182.5 -55t-182 55t-56 194q0 140 56 193.5t182 53.5
q127 0 183 -53.5t56 -193.5zM442 466q0 108 -32.5 141t-124.5 33q-90 0 -122.5 -33t-32.5 -141q0 -103 33.5 -138.5t121.5 -35.5q90 0 123.5 35.5t33.5 138.5z" />
    <glyph glyph-name="macron" unicode="&#xaf;" horiz-adv-x="520" 
d="M123 576v90h278v-90h-278z" />
    <glyph glyph-name="macron" unicode="&#x2c9;" horiz-adv-x="520" 
d="M123 576v90h278v-90h-278z" />
    <glyph glyph-name="degree" unicode="&#xb0;" horiz-adv-x="434" 
d="M217 714q100 0 141 -47t41 -176q0 -131 -41.5 -181t-140.5 -50t-140.5 50t-41.5 181q0 129 41 176t141 47zM217 349q43 0 57.5 27.5t14.5 113.5q0 85 -14.5 110.5t-57.5 25.5t-58 -25.5t-15 -110.5t15.5 -113t57.5 -28z" />
    <glyph glyph-name="plusminus" unicode="&#xb1;" horiz-adv-x="582" 
d="M48 380v118h183v184h119v-184h184v-118h-184v-184h-119v184h-183zM48 19v118h486v-118h-486z" />
    <glyph glyph-name="twosuperior" unicode="&#xb2;" horiz-adv-x="429" 
d="M67 601l-17 93q60 19 141 19q95 0 139 -30.5t44 -102.5q0 -104 -91 -136q-83 -29 -101 -43q-19 -15 -22 -38h215v-89h-339q7 97 39.5 143.5t103.5 76.5q45 17 66 34.5t21 43.5t-18.5 36t-64.5 10q-69 0 -116 -17z" />
    <glyph glyph-name="threesuperior" unicode="&#xb3;" horiz-adv-x="423" 
d="M131 454v83h50q41 0 55 10t14 37q0 25 -16 33.5t-66 8.5q-65 0 -107 -14l-16 85q68 16 140 16q94 0 136.5 -25.5t42.5 -84.5q0 -49 -20.5 -74.5t-75.5 -29.5q58 -3 82 -30.5t24 -81.5q0 -68 -46.5 -96.5t-142.5 -28.5q-75 0 -143 17l16 85q49 -14 111 -14q53 0 71.5 11
t18.5 41q0 32 -15.5 42t-60.5 10h-52z" />
    <glyph glyph-name="acute" unicode="&#xb4;" horiz-adv-x="481" 
d="M202 568h-109l121 129h133z" />
    <glyph glyph-name="mu" unicode="&#xb5;" horiz-adv-x="583" 
d="M181 -192h-121l6 405v296h124v-271q0 -74 21 -107.5t87 -33.5q47 0 92 13v399h124v-480q-113 -43 -241 -43q-62 0 -95 16z" />
    <glyph glyph-name="mu" unicode="&#x3bc;" horiz-adv-x="583" 
d="M181 -192h-121l6 405v296h124v-271q0 -74 21 -107.5t87 -33.5q47 0 92 13v399h124v-480q-113 -43 -241 -43q-62 0 -95 16z" />
    <glyph glyph-name="paragraph" unicode="&#xb6;" horiz-adv-x="673" 
d="M584 0h-116v230h-86v-230h-117v230h-46q-95 0 -143 65t-48 163q0 239 193 239h363v-697z" />
    <glyph glyph-name="periodcentered" unicode="&#xb7;" horiz-adv-x="297" 
d="M147 379q51 0 68.5 -14.5t17.5 -61.5q0 -52 -17.5 -68t-68.5 -16q-48 0 -65.5 16t-17.5 68q0 47 17.5 61.5t65.5 14.5z" />
    <glyph glyph-name="periodcentered" unicode="&#x2219;" horiz-adv-x="297" 
d="M147 379q51 0 68.5 -14.5t17.5 -61.5q0 -52 -17.5 -68t-68.5 -16q-48 0 -65.5 16t-17.5 68q0 47 17.5 61.5t65.5 14.5z" />
    <glyph glyph-name="cedilla" unicode="&#xb8;" horiz-adv-x="641" 
d="M330 0h49v-42q60 0 85 -17t25 -61q0 -47 -30.5 -65t-106.5 -18q-62 0 -98 16l22 54q24 -12 71 -12q23 0 32 5.5t9 20.5q0 19 -19.5 24t-74.5 2z" />
    <glyph glyph-name="onesuperior" unicode="&#xb9;" horiz-adv-x="377" 
d="M263 278h-104v306l-95 -41l-27 88l226 94v-447z" />
    <glyph glyph-name="ordmasculine" unicode="&#xba;" horiz-adv-x="460" 
d="M229 324q-88 0 -131 44.5t-43 151.5t43 150.5t131 43.5q90 0 133 -43.5t43 -150.5t-43 -151.5t-133 -44.5zM229 635q-46 0 -61.5 -22t-15.5 -94q0 -70 16 -93t61 -23q46 0 62.5 23t16.5 93q0 72 -16 94t-63 22z" />
    <glyph glyph-name="guillemotright" unicode="&#xbb;" horiz-adv-x="668" 
d="M300 105l177 204l-177 209l70 74l272 -280l-270 -280zM27 105l177 204l-177 209l70 74l272 -280l-270 -280z" />
    <glyph glyph-name="onequarter" unicode="&#xbc;" horiz-adv-x="860" 
d="M539 697h122l-430 -697h-122zM656 98h-228v43q82 142 194 291h137v-243h57v-91h-57v-98h-103v98zM656 189v161q-67 -84 -110 -161h110zM249 278h-105v306l-94 -41l-28 88l227 94v-447z" />
    <glyph glyph-name="onehalf" unicode="&#xbd;" horiz-adv-x="860" 
d="M523 327l-17 93q60 19 141 19q95 0 139 -30.5t44 -102.5q0 -104 -91 -136q-83 -29 -101 -43q-19 -15 -22 -38h215v-89h-339q7 97 39.5 143.5t103.5 76.5q45 17 66 34.5t21 43.5t-18.5 36t-64.5 10q-69 0 -116 -17zM535 697h122l-430 -697h-122zM245 278h-105v306l-94 -41
l-28 88l227 94v-447z" />
    <glyph glyph-name="threequarters" unicode="&#xbe;" horiz-adv-x="860" 
d="M603 697h122l-431 -697h-122zM670 98h-228v43q92 155 195 291h136v-243h58v-91h-58v-98h-103v98zM670 189v161q-65 -84 -110 -161h110zM113 454v83h50q41 0 55 10t14 37q0 25 -16 33.5t-66 8.5q-65 0 -107 -14l-16 85q68 16 140 16q94 0 136.5 -25.5t42.5 -84.5
q0 -49 -20.5 -74.5t-75.5 -29.5q58 -3 82 -30.5t24 -81.5q0 -68 -46.5 -96.5t-142.5 -28.5q-75 0 -143 17l16 85q49 -14 111 -14q53 0 71.5 11t18.5 41q0 32 -15.5 42t-60.5 10h-52z" />
    <glyph glyph-name="questiondown" unicode="&#xbf;" horiz-adv-x="493" 
d="M259 377q-48 0 -64 13t-16 57q0 48 16.5 62.5t63.5 14.5q45 0 61 -14.5t16 -62.5q0 -44 -15.5 -57t-61.5 -13zM194 305h130q-79 -84 -113.5 -149.5t-34.5 -142.5q0 -44 27 -65.5t94 -21.5q90 0 143 21l27 -116q-80 -25 -181 -25q-137 0 -198 49.5t-61 152.5
q0 80 41.5 149t125.5 148z" />
    <glyph glyph-name="Agrave" unicode="&#xc0;" horiz-adv-x="682" 
d="M555 0q-44 110 -67 174h-305q-23 -71 -54 -174h-138q107 341 252 697h207q128 -403 251 -697h-146zM353 585h-27q-49 -127 -108 -298h232q-54 153 -97 298zM436 747h-114l-158 129h137z" />
    <glyph glyph-name="Aacute" unicode="&#xc1;" horiz-adv-x="682" 
d="M555 0q-44 110 -67 174h-305q-23 -71 -54 -174h-138q107 341 252 697h207q128 -403 251 -697h-146zM353 585h-27q-49 -127 -108 -298h232q-54 153 -97 298zM356 747h-108l129 129h137z" />
    <glyph glyph-name="Acircumflex" unicode="&#xc2;" horiz-adv-x="682" 
d="M555 0q-44 110 -67 174h-305q-23 -71 -54 -174h-138q107 341 252 697h207q128 -403 251 -697h-146zM353 585h-27q-49 -127 -108 -298h232q-54 153 -97 298zM412 747l-72 78l-70 -78h-112l122 129h122l126 -129h-116z" />
    <glyph glyph-name="Atilde" unicode="&#xc3;" horiz-adv-x="682" 
d="M555 0q-44 110 -67 174h-305q-23 -71 -54 -174h-138q107 341 252 697h207q128 -403 251 -697h-146zM353 585h-27q-49 -127 -108 -298h232q-54 153 -97 298zM462 879l61 -50q-15 -41 -46.5 -67t-73.5 -26q-31 0 -76 27t-67 27q-31 0 -51 -50l-56 55q45 79 107 79
q37 0 82.5 -26t65.5 -26q18 0 30 12.5t24 44.5z" />
    <glyph glyph-name="Adieresis" unicode="&#xc4;" horiz-adv-x="682" 
d="M555 0q-44 110 -67 174h-305q-23 -71 -54 -174h-138q107 341 252 697h207q128 -403 251 -697h-146zM353 585h-27q-49 -127 -108 -298h232q-54 153 -97 298zM233 864q35 0 47 -10.5t12 -45.5q0 -38 -12 -49.5t-47 -11.5t-47.5 11.5t-12.5 49.5q0 35 12.5 45.5t47.5 10.5z
M446 864q35 0 47 -10.5t12 -45.5q0 -38 -12 -49.5t-47 -11.5q-36 0 -48 11.5t-12 49.5q0 35 12 45.5t48 10.5z" />
    <glyph glyph-name="Aring" unicode="&#xc5;" horiz-adv-x="682" 
d="M555 0q-44 110 -67 174h-305q-23 -71 -54 -174h-138q107 341 252 697h207q128 -403 251 -697h-146zM353 585h-27q-49 -127 -108 -298h232q-54 153 -97 298zM345 890q61 0 90 -22.5t29 -75.5t-29 -75.5t-90 -22.5q-62 0 -91 22.5t-29 75.5q0 54 28 76t92 22zM345 834
q-29 0 -39.5 -10t-10.5 -33t10.5 -33t39.5 -10t39.5 10t10.5 33q0 24 -10 33.5t-40 9.5z" />
    <glyph glyph-name="AE" unicode="&#xc6;" horiz-adv-x="969" 
d="M345 697h597v-114h-374v-161h222v-112h-222v-196h374v-114h-505v174h-311q-63 -95 -112 -174h-158q240 367 489 697zM437 585h-28q-118 -163 -209 -298h237v298z" />
    <glyph glyph-name="Ccedilla" unicode="&#xc7;" horiz-adv-x="592" 
d="M53 355q0 106 19.5 176t62 110.5t100.5 56.5t145 16q106 0 200 -26l-29 -116q-61 22 -148 22q-63 0 -98 -7.5t-62.5 -32.5t-38 -72.5t-10.5 -127.5t10.5 -128.5t37.5 -75t63 -35t98 -8.5q87 0 148 22l29 -118q-90 -25 -200 -25q-115 0 -184 32.5t-106 114.5t-37 222z
M337 0h49v-42q60 0 85 -17t25 -61q0 -47 -30.5 -65t-106.5 -18q-62 0 -98 16l22 54q24 -12 71 -12q23 0 32 5.5t9 20.5q0 19 -19.5 24t-74.5 2z" />
    <glyph glyph-name="Egrave" unicode="&#xc8;" horiz-adv-x="620" 
d="M88 697h506v-114h-374v-161h267v-113h-267v-195h374v-114h-506v697zM473 747h-114l-158 129h137z" />
    <glyph glyph-name="Eacute" unicode="&#xc9;" horiz-adv-x="620" 
d="M88 697h506v-114h-374v-161h267v-113h-267v-195h374v-114h-506v697zM360 747h-108l129 129h137z" />
    <glyph glyph-name="Ecircumflex" unicode="&#xca;" horiz-adv-x="620" 
d="M88 697h506v-114h-374v-161h267v-113h-267v-195h374v-114h-506v697zM419 747l-72 78l-70 -78h-112l122 129h122l126 -129h-116z" />
    <glyph glyph-name="Edieresis" unicode="&#xcb;" horiz-adv-x="620" 
d="M88 697h506v-114h-374v-161h267v-113h-267v-195h374v-114h-506v697zM241 864q35 0 47 -10.5t12 -45.5q0 -38 -12 -49.5t-47 -11.5t-47.5 11.5t-12.5 49.5q0 35 12.5 45.5t47.5 10.5zM454 864q35 0 47 -10.5t12 -45.5q0 -38 -12 -49.5t-47 -11.5q-36 0 -48 11.5t-12 49.5
q0 35 12 45.5t48 10.5z" />
    <glyph glyph-name="Igrave" unicode="&#xcc;" horiz-adv-x="308" 
d="M88 697h132v-697h-132v697zM242 747h-114l-158 129h137z" />
    <glyph glyph-name="Iacute" unicode="&#xcd;" horiz-adv-x="308" 
d="M88 697h132v-697h-132v697zM178 747h-108l129 129h137z" />
    <glyph glyph-name="Icircumflex" unicode="&#xce;" horiz-adv-x="308" 
d="M88 697h132v-697h-132v697zM224 747l-72 78l-70 -78h-112l122 129h122l126 -129h-116z" />
    <glyph glyph-name="Idieresis" unicode="&#xcf;" horiz-adv-x="308" 
d="M88 697h132v-697h-132v697zM49 864q35 0 47 -10.5t12 -45.5q0 -38 -12 -49.5t-47 -11.5t-47.5 11.5t-12.5 49.5q0 35 12.5 45.5t47.5 10.5zM262 864q35 0 47 -10.5t12 -45.5q0 -38 -12 -49.5t-47 -11.5q-36 0 -48 11.5t-12 49.5q0 35 12 45.5t48 10.5z" />
    <glyph glyph-name="Eth" unicode="&#xd0;" horiz-adv-x="736" 
d="M36 311v92h52v294h266q86 0 145 -16t101.5 -55t62.5 -106.5t20 -168.5q0 -196 -78.5 -273.5t-250.5 -77.5h-266v311h-52zM542 350q0 78 -9 123t-34.5 69.5t-60 32t-97.5 7.5h-121v-179h159v-92h-159v-197h121q81 0 122 18t60 68.5t19 149.5z" />
    <glyph glyph-name="Ntilde" unicode="&#xd1;" horiz-adv-x="774" 
d="M685 697v-697h-161q-143 265 -307 525v-525h-129v697h173q151 -238 293 -503v503h131zM515 879l61 -50q-15 -41 -46.5 -67t-73.5 -26q-31 0 -76 27t-67 27q-31 0 -51 -50l-56 55q45 79 107 79q37 0 82.5 -26t65.5 -26q18 0 30 12.5t24 44.5z" />
    <glyph glyph-name="Ograve" unicode="&#xd2;" horiz-adv-x="770" 
d="M385 714q87 0 146 -16.5t102 -56.5t63 -110.5t20 -175.5q0 -107 -20 -179t-63 -113.5t-102.5 -59t-145.5 -17.5q-87 0 -146.5 17.5t-102.5 59t-63 113.5t-20 179q0 105 20 175.5t63.5 110.5t102.5 56.5t146 16.5zM385 105q48 0 78.5 6t54 20.5t35.5 43.5t17.5 71t5.5 107
q0 81 -7.5 127t-31 72.5t-57.5 34.5t-95 8t-95 -8t-57.5 -34.5t-31 -72.5t-7.5 -127q0 -65 5.5 -107t17.5 -71t35.5 -43.5t54 -20.5t78.5 -6zM484 747h-114l-158 129h137z" />
    <glyph glyph-name="Oacute" unicode="&#xd3;" horiz-adv-x="770" 
d="M385 714q87 0 146 -16.5t102 -56.5t63 -110.5t20 -175.5q0 -107 -20 -179t-63 -113.5t-102.5 -59t-145.5 -17.5q-87 0 -146.5 17.5t-102.5 59t-63 113.5t-20 179q0 105 20 175.5t63.5 110.5t102.5 56.5t146 16.5zM385 105q48 0 78.5 6t54 20.5t35.5 43.5t17.5 71t5.5 107
q0 81 -7.5 127t-31 72.5t-57.5 34.5t-95 8t-95 -8t-57.5 -34.5t-31 -72.5t-7.5 -127q0 -65 5.5 -107t17.5 -71t35.5 -43.5t54 -20.5t78.5 -6zM360 747h-108l129 129h137z" />
    <glyph glyph-name="Ocircumflex" unicode="&#xd4;" horiz-adv-x="770" 
d="M385 714q87 0 146 -16.5t102 -56.5t63 -110.5t20 -175.5q0 -107 -20 -179t-63 -113.5t-102.5 -59t-145.5 -17.5q-87 0 -146.5 17.5t-102.5 59t-63 113.5t-20 179q0 105 20 175.5t63.5 110.5t102.5 56.5t146 16.5zM385 105q48 0 78.5 6t54 20.5t35.5 43.5t17.5 71t5.5 107
q0 81 -7.5 127t-31 72.5t-57.5 34.5t-95 8t-95 -8t-57.5 -34.5t-31 -72.5t-7.5 -127q0 -65 5.5 -107t17.5 -71t35.5 -43.5t54 -20.5t78.5 -6zM453 747l-72 78l-70 -78h-112l122 129h122l126 -129h-116z" />
    <glyph glyph-name="Otilde" unicode="&#xd5;" horiz-adv-x="770" 
d="M385 714q87 0 146 -16.5t102 -56.5t63 -110.5t20 -175.5q0 -107 -20 -179t-63 -113.5t-102.5 -59t-145.5 -17.5q-87 0 -146.5 17.5t-102.5 59t-63 113.5t-20 179q0 105 20 175.5t63.5 110.5t102.5 56.5t146 16.5zM385 105q48 0 78.5 6t54 20.5t35.5 43.5t17.5 71t5.5 107
q0 81 -7.5 127t-31 72.5t-57.5 34.5t-95 8t-95 -8t-57.5 -34.5t-31 -72.5t-7.5 -127q0 -65 5.5 -107t17.5 -71t35.5 -43.5t54 -20.5t78.5 -6zM507 879l61 -50q-15 -41 -46.5 -67t-73.5 -26q-31 0 -76 27t-67 27q-31 0 -51 -50l-56 55q45 79 107 79q37 0 82.5 -26t65.5 -26
q18 0 30 12.5t24 44.5z" />
    <glyph glyph-name="Odieresis" unicode="&#xd6;" horiz-adv-x="770" 
d="M385 714q87 0 146 -16.5t102 -56.5t63 -110.5t20 -175.5q0 -107 -20 -179t-63 -113.5t-102.5 -59t-145.5 -17.5q-87 0 -146.5 17.5t-102.5 59t-63 113.5t-20 179q0 105 20 175.5t63.5 110.5t102.5 56.5t146 16.5zM385 105q48 0 78.5 6t54 20.5t35.5 43.5t17.5 71t5.5 107
q0 81 -7.5 127t-31 72.5t-57.5 34.5t-95 8t-95 -8t-57.5 -34.5t-31 -72.5t-7.5 -127q0 -65 5.5 -107t17.5 -71t35.5 -43.5t54 -20.5t78.5 -6zM277 864q35 0 47 -10.5t12 -45.5q0 -38 -12 -49.5t-47 -11.5t-47.5 11.5t-12.5 49.5q0 35 12.5 45.5t47.5 10.5zM490 864
q35 0 47 -10.5t12 -45.5q0 -38 -12 -49.5t-47 -11.5q-36 0 -48 11.5t-12 49.5q0 35 12 45.5t48 10.5z" />
    <glyph glyph-name="multiply" unicode="&#xd7;" horiz-adv-x="582" 
d="M161 149l-84 84l129 130l-130 129l84 84l130 -130l130 131l84 -85l-130 -130l130 -130l-84 -83l-130 130z" />
    <glyph glyph-name="Oslash" unicode="&#xd8;" horiz-adv-x="770" 
d="M620 697h135l-88 -101q49 -82 49 -241q0 -107 -20 -179t-63 -113.5t-102.5 -59t-145.5 -17.5q-135 0 -207 45l-27 -31h-134l88 101q-52 85 -52 254q0 105 20 175.5t63.5 110.5t102.5 56.5t146 16.5q138 0 210 -47zM385 595q-76 0 -114.5 -15t-57.5 -60t-19 -134
q0 -108 14 -168l301 351q-36 26 -124 26zM385 105q111 0 151.5 42t40.5 173q0 98 -14 157l-298 -346q35 -26 120 -26z" />
    <glyph glyph-name="Ugrave" unicode="&#xd9;" horiz-adv-x="742" 
d="M663 697l1 -486q0 -129 -72.5 -177t-220.5 -48t-220.5 48t-72.5 177v486h133v-466q0 -70 35.5 -97t124.5 -27q88 0 124.5 26.5t36.5 97.5v466h131zM486 747h-114l-158 129h137z" />
    <glyph glyph-name="Uacute" unicode="&#xda;" horiz-adv-x="742" 
d="M663 697l1 -486q0 -129 -72.5 -177t-220.5 -48t-220.5 48t-72.5 177v486h133v-466q0 -70 35.5 -97t124.5 -27q88 0 124.5 26.5t36.5 97.5v466h131zM372 747h-108l129 129h137z" />
    <glyph glyph-name="Ucircumflex" unicode="&#xdb;" horiz-adv-x="742" 
d="M663 697l1 -486q0 -129 -72.5 -177t-220.5 -48t-220.5 48t-72.5 177v486h133v-466q0 -70 35.5 -97t124.5 -27q88 0 124.5 26.5t36.5 97.5v466h131zM438 747l-72 78l-70 -78h-112l122 129h122l126 -129h-116z" />
    <glyph glyph-name="Udieresis" unicode="&#xdc;" horiz-adv-x="742" 
d="M663 697l1 -486q0 -129 -72.5 -177t-220.5 -48t-220.5 48t-72.5 177v486h133v-466q0 -70 35.5 -97t124.5 -27q88 0 124.5 26.5t36.5 97.5v466h131zM262 864q35 0 47 -10.5t12 -45.5q0 -38 -12 -49.5t-47 -11.5t-47.5 11.5t-12.5 49.5q0 35 12.5 45.5t47.5 10.5zM475 864
q35 0 47 -10.5t12 -45.5q0 -38 -12 -49.5t-47 -11.5q-36 0 -48 11.5t-12 49.5q0 35 12 45.5t48 10.5z" />
    <glyph glyph-name="Yacute" unicode="&#xdd;" horiz-adv-x="638" 
d="M134 697q89 -111 194 -266q112 150 184 266h160q-131 -197 -281 -396v-301h-132v300q-177 251 -297 397h172zM334 747h-108l129 129h137z" />
    <glyph glyph-name="Thorn" unicode="&#xde;" horiz-adv-x="673" 
d="M88 697h132v-103h231q194 0 194 -239q0 -98 -48 -163t-143 -65h-234v-127h-132v697zM220 237h194q86 0 86 119q0 125 -83 125h-197v-244z" />
    <glyph glyph-name="germandbls" unicode="&#xdf;" horiz-adv-x="654" 
d="M324 714q137 0 200 -42t63 -136q0 -77 -30 -118t-117 -49q93 -4 128 -49.5t35 -131.5q0 -112 -64.5 -157t-215.5 -45q-36 0 -69 3l14 108q32 -4 60 -4q80 0 108.5 24t28.5 84q0 63 -28.5 88t-98.5 25h-38v103h35q67 0 93 23.5t26 74.5q0 49 -28.5 68.5t-101.5 19.5
q-130 0 -130 -93v-510h-125v527q0 187 255 187z" />
    <glyph glyph-name="agrave" unicode="&#xe0;" horiz-adv-x="560" 
d="M494 326v-300q-102 -40 -230 -40q-122 0 -168.5 35.5t-46.5 134.5q0 100 49.5 133.5t150.5 33.5q59 0 126 -14q0 68 -24 89.5t-103 21.5q-84 0 -154 -25l-23 102q102 27 203 27q117 0 168.5 -43.5t51.5 -154.5zM375 98v127q-42 9 -101 9q-56 0 -75.5 -13t-19.5 -60
q0 -51 18 -65.5t76 -14.5q53 0 102 17zM369 568h-110l-144 129h132z" />
    <glyph glyph-name="aacute" unicode="&#xe1;" horiz-adv-x="560" 
d="M494 326v-300q-102 -40 -230 -40q-122 0 -168.5 35.5t-46.5 134.5q0 100 49.5 133.5t150.5 33.5q59 0 126 -14q0 68 -24 89.5t-103 21.5q-84 0 -154 -25l-23 102q102 27 203 27q117 0 168.5 -43.5t51.5 -154.5zM375 98v127q-42 9 -101 9q-56 0 -75.5 -13t-19.5 -60
q0 -51 18 -65.5t76 -14.5q53 0 102 17zM298 568h-109l121 129h133z" />
    <glyph glyph-name="acircumflex" unicode="&#xe2;" horiz-adv-x="560" 
d="M494 326v-300q-102 -40 -230 -40q-122 0 -168.5 35.5t-46.5 134.5q0 100 49.5 133.5t150.5 33.5q59 0 126 -14q0 68 -24 89.5t-103 21.5q-84 0 -154 -25l-23 102q102 27 203 27q117 0 168.5 -43.5t51.5 -154.5zM375 98v127q-42 9 -101 9q-56 0 -75.5 -13t-19.5 -60
q0 -51 18 -65.5t76 -14.5q53 0 102 17zM467 568h-117l-71 76l-69 -76h-113l122 129h122z" />
    <glyph glyph-name="atilde" unicode="&#xe3;" horiz-adv-x="560" 
d="M494 326v-300q-102 -40 -230 -40q-122 0 -168.5 35.5t-46.5 134.5q0 100 49.5 133.5t150.5 33.5q59 0 126 -14q0 68 -24 89.5t-103 21.5q-84 0 -154 -25l-23 102q102 27 203 27q117 0 168.5 -43.5t51.5 -154.5zM375 98v127q-42 9 -101 9q-56 0 -75.5 -13t-19.5 -60
q0 -51 18 -65.5t76 -14.5q53 0 102 17zM394 702l62 -50q-33 -93 -117 -93q-31 0 -74.5 26.5t-66.5 26.5q-31 0 -52 -51l-56 55q46 81 109 81q37 0 79 -26.5t63 -26.5q18 0 29.5 12.5t23.5 45.5z" />
    <glyph glyph-name="adieresis" unicode="&#xe4;" horiz-adv-x="560" 
d="M494 326v-300q-102 -40 -230 -40q-122 0 -168.5 35.5t-46.5 134.5q0 100 49.5 133.5t150.5 33.5q59 0 126 -14q0 68 -24 89.5t-103 21.5q-84 0 -154 -25l-23 102q102 27 203 27q117 0 168.5 -43.5t51.5 -154.5zM375 98v127q-42 9 -101 9q-56 0 -75.5 -13t-19.5 -60
q0 -51 18 -65.5t76 -14.5q53 0 102 17zM166 681q35 0 47.5 -10t12.5 -45q0 -38 -12.5 -50t-47.5 -12t-47 11.5t-12 50.5q0 35 12 45t47 10zM380 681q35 0 47 -10t12 -45q0 -38 -12.5 -50t-46.5 -12q-36 0 -48 11.5t-12 50.5q0 35 12 45t48 10z" />
    <glyph glyph-name="aring" unicode="&#xe5;" horiz-adv-x="560" 
d="M494 326v-300q-102 -40 -230 -40q-122 0 -168.5 35.5t-46.5 134.5q0 100 49.5 133.5t150.5 33.5q59 0 126 -14q0 68 -24 89.5t-103 21.5q-84 0 -154 -25l-23 102q102 27 203 27q117 0 168.5 -43.5t51.5 -154.5zM375 98v127q-42 9 -101 9q-56 0 -75.5 -13t-19.5 -60
q0 -51 18 -65.5t76 -14.5q53 0 102 17zM281 741q61 0 90 -22.5t29 -75.5t-28.5 -75.5t-90.5 -22.5t-91 22.5t-29 75.5t28 75.5t92 22.5zM281 684q-30 0 -40 -9.5t-10 -33.5q0 -23 10.5 -33t39.5 -10t39.5 10t10.5 33q0 24 -10 33.5t-40 9.5z" />
    <glyph glyph-name="ae" unicode="&#xe6;" horiz-adv-x="868" 
d="M772 112l20 -98q-84 -28 -178 -28q-96 0 -148 36q-75 -36 -202 -36q-122 0 -168.5 35.5t-46.5 134.5q0 100 50 133.5t150 33.5q59 0 126 -14q0 68 -23.5 88.5t-103.5 20.5q-90 0 -154 -23l-23 102q102 27 203 27q128 0 169 -61q44 61 161 61q64 0 104.5 -12.5t69.5 -46
t40 -92.5t8 -151h-329q1 -78 31 -104.5t101 -26.5q73 0 143 21zM393 105q-20 48 -20 120q-41 9 -98 9q-56 0 -75.5 -13t-19.5 -60q0 -49 17 -64.5t77 -15.5q74 0 119 24zM611 426q-58 0 -82.5 -22.5t-30.5 -86.5h214q-3 66 -24.5 87.5t-76.5 21.5z" />
    <glyph glyph-name="ccedilla" unicode="&#xe7;" horiz-adv-x="470" 
d="M430 118l28 -106q-65 -26 -155 -26q-124 0 -188 61t-64 210q0 148 64 207.5t188 59.5q90 0 155 -24l-28 -106q-59 22 -118 22q-49 0 -75.5 -10.5t-42 -46t-15.5 -104.5q0 -96 30.5 -128.5t102.5 -32.5q59 0 118 24zM260 0h49v-42q60 0 85 -17t25 -61q0 -47 -30.5 -65
t-106.5 -18q-62 0 -98 16l22 54q24 -12 71 -12q23 0 32 5.5t9 20.5q0 19 -19.5 24t-74.5 2z" />
    <glyph glyph-name="egrave" unicode="&#xe8;" horiz-adv-x="552" 
d="M456 112l20 -98q-84 -28 -178 -28q-119 0 -183 61.5t-64 209.5q0 146 59.5 206.5t177.5 60.5q64 0 104.5 -12.5t69.5 -46t40 -92.5t8 -151h-329q1 -78 31 -104.5t101 -26.5q73 0 143 21zM295 426q-59 0 -83 -23t-30 -86h214q-3 66 -24.5 87.5t-76.5 21.5zM390 568h-110
l-144 129h132z" />
    <glyph glyph-name="eacute" unicode="&#xe9;" horiz-adv-x="552" 
d="M456 112l20 -98q-84 -28 -178 -28q-119 0 -183 61.5t-64 209.5q0 146 59.5 206.5t177.5 60.5q64 0 104.5 -12.5t69.5 -46t40 -92.5t8 -151h-329q1 -78 31 -104.5t101 -26.5q73 0 143 21zM295 426q-59 0 -83 -23t-30 -86h214q-3 66 -24.5 87.5t-76.5 21.5zM310 568h-109
l121 129h133z" />
    <glyph glyph-name="ecircumflex" unicode="&#xea;" horiz-adv-x="552" 
d="M456 112l20 -98q-84 -28 -178 -28q-119 0 -183 61.5t-64 209.5q0 146 59.5 206.5t177.5 60.5q64 0 104.5 -12.5t69.5 -46t40 -92.5t8 -151h-329q1 -78 31 -104.5t101 -26.5q73 0 143 21zM295 426q-59 0 -83 -23t-30 -86h214q-3 66 -24.5 87.5t-76.5 21.5zM481 568h-117
l-71 76l-69 -76h-113l122 129h122z" />
    <glyph glyph-name="edieresis" unicode="&#xeb;" horiz-adv-x="552" 
d="M456 112l20 -98q-84 -28 -178 -28q-119 0 -183 61.5t-64 209.5q0 146 59.5 206.5t177.5 60.5q64 0 104.5 -12.5t69.5 -46t40 -92.5t8 -151h-329q1 -78 31 -104.5t101 -26.5q73 0 143 21zM295 426q-59 0 -83 -23t-30 -86h214q-3 66 -24.5 87.5t-76.5 21.5zM186 681
q35 0 47.5 -10t12.5 -45q0 -38 -12.5 -50t-47.5 -12t-47 11.5t-12 50.5q0 35 12 45t47 10zM400 681q35 0 47 -10t12 -45q0 -38 -12.5 -50t-46.5 -12q-36 0 -48 11.5t-12 50.5q0 35 12 45t48 10z" />
    <glyph glyph-name="igrave" unicode="&#xec;" horiz-adv-x="262" 
d="M193 509v-509h-124v509h124zM214 568h-110l-144 129h132z" />
    <glyph glyph-name="iacute" unicode="&#xed;" horiz-adv-x="262" 
d="M193 509v-509h-124v509h124zM153 568h-109l121 129h133z" />
    <glyph glyph-name="icircumflex" unicode="&#xee;" horiz-adv-x="262" 
d="M193 509v-509h-124v509h124zM317 568h-117l-71 76l-69 -76h-113l122 129h122z" />
    <glyph glyph-name="idieresis" unicode="&#xef;" horiz-adv-x="262" 
d="M193 509v-509h-124v509h124zM25 681q35 0 47.5 -10t12.5 -45q0 -38 -12.5 -50t-47.5 -12t-47 11.5t-12 50.5q0 35 12 45t47 10zM239 681q35 0 47 -10t12 -45q0 -38 -12.5 -50t-46.5 -12q-36 0 -48 11.5t-12 50.5q0 35 12 45t48 10z" />
    <glyph glyph-name="eth" unicode="&#xf0;" horiz-adv-x="626" 
d="M255 480l-49 65l70 44q-25 28 -105 108h164q30 -28 47 -45l61 38l48 -65l-55 -35q143 -175 143 -366q0 -141 -54.5 -191t-211.5 -50q-145 0 -203.5 52t-58.5 183q0 118 56 164t202 46q47 0 87 -5q-27 53 -69 102zM323 317q-84 0 -109 -20t-25 -85q0 -62 25 -86.5
t99 -24.5q76 0 101.5 24.5t25.5 112.5q0 38 -9 72q-46 7 -108 7z" />
    <glyph glyph-name="ntilde" unicode="&#xf1;" horiz-adv-x="583" 
d="M193 400v-400h-124v480q114 44 241 44q110 0 158.5 -53t48.5 -187v-284h-124v271q0 85 -21.5 113t-87.5 28q-46 0 -91 -12zM411 702l62 -50q-33 -93 -117 -93q-31 0 -74.5 26.5t-66.5 26.5q-31 0 -52 -51l-56 55q46 81 109 81q37 0 79 -26.5t63 -26.5q18 0 29.5 12.5
t23.5 45.5z" />
    <glyph glyph-name="ograve" unicode="&#xf2;" 
d="M293 -14q-127 0 -184.5 59.5t-57.5 211.5q0 150 58 208.5t184 58.5q128 0 186 -58.5t58 -208.5q0 -152 -58 -211.5t-186 -59.5zM293 424q-68 0 -91 -31.5t-23 -137.5q0 -103 23.5 -136t90.5 -33q68 0 92 33t24 136q0 73 -11 109t-34.5 48t-70.5 12zM397 568h-110
l-144 129h132z" />
    <glyph glyph-name="oacute" unicode="&#xf3;" 
d="M293 -14q-127 0 -184.5 59.5t-57.5 211.5q0 150 58 208.5t184 58.5q128 0 186 -58.5t58 -208.5q0 -152 -58 -211.5t-186 -59.5zM293 424q-68 0 -91 -31.5t-23 -137.5q0 -103 23.5 -136t90.5 -33q68 0 92 33t24 136q0 73 -11 109t-34.5 48t-70.5 12zM307 568h-109l121 129
h133z" />
    <glyph glyph-name="ocircumflex" unicode="&#xf4;" 
d="M293 -14q-127 0 -184.5 59.5t-57.5 211.5q0 150 58 208.5t184 58.5q128 0 186 -58.5t58 -208.5q0 -152 -58 -211.5t-186 -59.5zM293 424q-68 0 -91 -31.5t-23 -137.5q0 -103 23.5 -136t90.5 -33q68 0 92 33t24 136q0 73 -11 109t-34.5 48t-70.5 12zM477 568h-117l-71 76
l-69 -76h-113l122 129h122z" />
    <glyph glyph-name="otilde" unicode="&#xf5;" 
d="M293 -14q-127 0 -184.5 59.5t-57.5 211.5q0 150 58 208.5t184 58.5q128 0 186 -58.5t58 -208.5q0 -152 -58 -211.5t-186 -59.5zM293 424q-68 0 -91 -31.5t-23 -137.5q0 -103 23.5 -136t90.5 -33q68 0 92 33t24 136q0 73 -11 109t-34.5 48t-70.5 12zM413 702l62 -50
q-33 -93 -117 -93q-31 0 -74.5 26.5t-66.5 26.5q-31 0 -52 -51l-56 55q46 81 109 81q37 0 79 -26.5t63 -26.5q18 0 29.5 12.5t23.5 45.5z" />
    <glyph glyph-name="odieresis" unicode="&#xf6;" 
d="M293 -14q-127 0 -184.5 59.5t-57.5 211.5q0 150 58 208.5t184 58.5q128 0 186 -58.5t58 -208.5q0 -152 -58 -211.5t-186 -59.5zM293 424q-68 0 -91 -31.5t-23 -137.5q0 -103 23.5 -136t90.5 -33q68 0 92 33t24 136q0 73 -11 109t-34.5 48t-70.5 12zM186 681
q35 0 47.5 -10t12.5 -45q0 -38 -12.5 -50t-47.5 -12t-47 11.5t-12 50.5q0 35 12 45t47 10zM400 681q35 0 47 -10t12 -45q0 -38 -12.5 -50t-46.5 -12q-36 0 -48 11.5t-12 50.5q0 35 12 45t48 10z" />
    <glyph glyph-name="divide" unicode="&#xf7;" horiz-adv-x="582" 
d="M48 303v118h486v-118h-486zM289 224q47 0 63.5 -13.5t16.5 -57.5q0 -48 -16.5 -62.5t-63.5 -14.5q-45 0 -61 14.5t-16 62.5q0 44 16 57.5t61 13.5zM289 645q48 0 64 -13t16 -57q0 -48 -16.5 -62.5t-63.5 -14.5q-45 0 -61 14.5t-16 62.5q0 44 15.5 57t61.5 13z" />
    <glyph glyph-name="oslash" unicode="&#xf8;" 
d="M457 509h116l-69 -79q33 -62 33 -173q0 -152 -58 -211.5t-186 -59.5q-92 0 -147 31l-15 -17h-115l69 79q-34 61 -34 178q0 150 58 208.5t184 58.5q97 0 149 -31zM293 423q-65 0 -89 -27t-25 -117q0 -52 7 -86l182 214q-24 16 -75 16zM293 87q67 0 90.5 33.5t23.5 120.5
q0 44 -5 73l-181 -212q20 -15 72 -15z" />
    <glyph glyph-name="ugrave" unicode="&#xf9;" horiz-adv-x="583" 
d="M390 110v399h124v-480q-116 -44 -241 -44q-110 0 -158.5 53t-48.5 187v284h124v-271q0 -85 21.5 -113t86.5 -28q49 0 92 13zM390 568h-110l-144 129h132z" />
    <glyph glyph-name="uacute" unicode="&#xfa;" horiz-adv-x="583" 
d="M390 110v399h124v-480q-116 -44 -241 -44q-110 0 -158.5 53t-48.5 187v284h124v-271q0 -85 21.5 -113t86.5 -28q49 0 92 13zM309 568h-109l121 129h133z" />
    <glyph glyph-name="ucircumflex" unicode="&#xfb;" horiz-adv-x="583" 
d="M390 110v399h124v-480q-116 -44 -241 -44q-110 0 -158.5 53t-48.5 187v284h124v-271q0 -85 21.5 -113t86.5 -28q49 0 92 13zM482 568h-117l-71 76l-69 -76h-113l122 129h122z" />
    <glyph glyph-name="udieresis" unicode="&#xfc;" horiz-adv-x="583" 
d="M390 110v399h124v-480q-116 -44 -241 -44q-110 0 -158.5 53t-48.5 187v284h124v-271q0 -85 21.5 -113t86.5 -28q49 0 92 13zM187 681q35 0 47.5 -10t12.5 -45q0 -38 -12.5 -50t-47.5 -12t-47 11.5t-12 50.5q0 35 12 45t47 10zM401 681q35 0 47 -10t12 -45
q0 -38 -12.5 -50t-46.5 -12q-36 0 -48 11.5t-12 50.5q0 35 12 45t48 10z" />
    <glyph glyph-name="yacute" unicode="&#xfd;" horiz-adv-x="511" 
d="M180 -25q-83 299 -180 534h129q68 -170 126 -386q85 226 126 386h126q-72 -245 -193 -530q-42 -100 -79 -171h-138q37 66 83 167zM288 568h-109l121 129h133z" />
    <glyph glyph-name="thorn" unicode="&#xfe;" 
d="M69 -192v901h124v-195q55 10 99 10q130 0 187 -58.5t57 -210.5q0 -148 -56 -208.5t-165 -60.5q-64 0 -122 29v-207h-124zM193 402v-262q0 -22 29 -35.5t71 -13.5q66 0 91 34t25 127q0 102 -24.5 133.5t-92.5 31.5q-60 0 -99 -15z" />
    <glyph glyph-name="ydieresis" unicode="&#xff;" horiz-adv-x="511" 
d="M180 -25q-83 299 -180 534h129q68 -170 126 -386q85 226 126 386h126q-72 -245 -193 -530q-42 -100 -79 -171h-138q37 66 83 167zM152 681q35 0 47.5 -10t12.5 -45q0 -38 -12.5 -50t-47.5 -12t-47 11.5t-12 50.5q0 35 12 45t47 10zM366 681q35 0 47 -10t12 -45
q0 -38 -12.5 -50t-46.5 -12q-36 0 -48 11.5t-12 50.5q0 35 12 45t48 10z" />
    <glyph glyph-name="Amacron" unicode="&#x100;" horiz-adv-x="682" 
d="M555 0q-44 110 -67 174h-305q-23 -71 -54 -174h-138q107 341 252 697h207q128 -403 251 -697h-146zM353 585h-27q-49 -127 -108 -298h232q-54 153 -97 298zM202 753v92h278v-92h-278z" />
    <glyph glyph-name="amacron" unicode="&#x101;" horiz-adv-x="560" 
d="M494 326v-300q-102 -40 -230 -40q-122 0 -168.5 35.5t-46.5 134.5q0 100 49.5 133.5t150.5 33.5q59 0 126 -14q0 68 -24 89.5t-103 21.5q-84 0 -154 -25l-23 102q102 27 203 27q117 0 168.5 -43.5t51.5 -154.5zM375 98v127q-42 9 -101 9q-56 0 -75.5 -13t-19.5 -60
q0 -51 18 -65.5t76 -14.5q53 0 102 17zM138 576v90h278v-90h-278z" />
    <glyph glyph-name="Abreve" unicode="&#x102;" horiz-adv-x="682" 
d="M555 0q-44 110 -67 174h-305q-23 -71 -54 -174h-138q107 341 252 697h207q128 -403 251 -697h-146zM353 585h-27q-49 -127 -108 -298h232q-54 153 -97 298zM190 871h85q0 -34 15.5 -46t50.5 -12t51 12.5t16 45.5h80q0 -137 -150 -137q-148 0 -148 137z" />
    <glyph glyph-name="abreve" unicode="&#x103;" horiz-adv-x="560" 
d="M494 326v-300q-102 -40 -230 -40q-122 0 -168.5 35.5t-46.5 134.5q0 100 49.5 133.5t150.5 33.5q59 0 126 -14q0 68 -24 89.5t-103 21.5q-84 0 -154 -25l-23 102q102 27 203 27q117 0 168.5 -43.5t51.5 -154.5zM375 98v127q-42 9 -101 9q-56 0 -75.5 -13t-19.5 -60
q0 -51 18 -65.5t76 -14.5q53 0 102 17zM128 697h85q0 -34 15.5 -46t50.5 -12t51 12.5t16 45.5h80q0 -137 -150 -137q-148 0 -148 137z" />
    <glyph glyph-name="Aogonek" unicode="&#x104;" horiz-adv-x="682" 
d="M555 0q-44 110 -67 174h-305q-23 -71 -54 -174h-138q107 341 252 697h207q128 -403 251 -697h-146zM353 585h-27q-49 -127 -108 -298h232q-54 153 -97 298zM630 12h39q-50 -30 -67 -52t-17 -52q0 -22 12.5 -31t47.5 -9q51 0 83 27l35 -63q-47 -35 -131 -35
q-74 0 -103 21.5t-29 67.5q0 42 33 75.5t97 50.5z" />
    <glyph glyph-name="aogonek" unicode="&#x105;" horiz-adv-x="560" 
d="M494 326v-300q-102 -40 -230 -40q-122 0 -168.5 35.5t-46.5 134.5q0 100 49.5 133.5t150.5 33.5q59 0 126 -14q0 68 -24 89.5t-103 21.5q-84 0 -154 -25l-23 102q102 27 203 27q117 0 168.5 -43.5t51.5 -154.5zM375 98v127q-42 9 -101 9q-56 0 -75.5 -13t-19.5 -60
q0 -51 18 -65.5t76 -14.5q53 0 102 17zM414 12h39q-50 -30 -67 -52t-17 -52q0 -22 12.5 -31t47.5 -9q51 0 83 27l35 -63q-47 -35 -131 -35q-74 0 -103 21.5t-29 67.5q0 42 33 75.5t97 50.5z" />
    <glyph glyph-name="Cacute" unicode="&#x106;" horiz-adv-x="592" 
d="M53 355q0 106 19.5 176t62 110.5t100.5 56.5t145 16q106 0 200 -26l-29 -116q-61 22 -148 22q-63 0 -98 -7.5t-62.5 -32.5t-38 -72.5t-10.5 -127.5t10.5 -128.5t37.5 -75t63 -35t98 -8.5q87 0 148 22l29 -118q-90 -25 -200 -25q-115 0 -184 32.5t-106 114.5t-37 222z
M353 747h-108l129 129h137z" />
    <glyph glyph-name="cacute" unicode="&#x107;" horiz-adv-x="470" 
d="M430 118l28 -106q-65 -26 -155 -26q-124 0 -188 61t-64 210q0 148 64 207.5t188 59.5q90 0 155 -24l-28 -106q-59 22 -118 22q-49 0 -75.5 -10.5t-42 -46t-15.5 -104.5q0 -96 30.5 -128.5t102.5 -32.5q59 0 118 24zM297 568h-109l121 129h133z" />
    <glyph glyph-name="Ccircumflex" unicode="&#x108;" horiz-adv-x="592" 
d="M53 355q0 106 19.5 176t62 110.5t100.5 56.5t145 16q106 0 200 -26l-29 -116q-61 22 -148 22q-63 0 -98 -7.5t-62.5 -32.5t-38 -72.5t-10.5 -127.5t10.5 -128.5t37.5 -75t63 -35t98 -8.5q87 0 148 22l29 -118q-90 -25 -200 -25q-115 0 -184 32.5t-106 114.5t-37 222z
M444 747l-72 78l-70 -78h-112l122 129h122l126 -129h-116z" />
    <glyph glyph-name="ccircumflex" unicode="&#x109;" horiz-adv-x="470" 
d="M430 118l28 -106q-65 -26 -155 -26q-124 0 -188 61t-64 210q0 148 64 207.5t188 59.5q90 0 155 -24l-28 -106q-59 22 -118 22q-49 0 -75.5 -10.5t-42 -46t-15.5 -104.5q0 -96 30.5 -128.5t102.5 -32.5q59 0 118 24zM477 568h-117l-71 76l-69 -76h-113l122 129h122z" />
    <glyph glyph-name="Cdotaccent" unicode="&#x10a;" horiz-adv-x="592" 
d="M53 355q0 106 19.5 176t62 110.5t100.5 56.5t145 16q106 0 200 -26l-29 -116q-61 22 -148 22q-63 0 -98 -7.5t-62.5 -32.5t-38 -72.5t-10.5 -127.5t10.5 -128.5t37.5 -75t63 -35t98 -8.5q87 0 148 22l29 -118q-90 -25 -200 -25q-115 0 -184 32.5t-106 114.5t-37 222z
M375 867q35 0 47.5 -10.5t12.5 -45.5q0 -38 -12.5 -49.5t-47.5 -11.5t-47 11.5t-12 49.5q0 35 12 45.5t47 10.5z" />
    <glyph glyph-name="cdotaccent" unicode="&#x10b;" horiz-adv-x="470" 
d="M430 118l28 -106q-65 -26 -155 -26q-124 0 -188 61t-64 210q0 148 64 207.5t188 59.5q90 0 155 -24l-28 -106q-59 22 -118 22q-49 0 -75.5 -10.5t-42 -46t-15.5 -104.5q0 -96 30.5 -128.5t102.5 -32.5q59 0 118 24zM294 681q35 0 47.5 -10t12.5 -45q0 -38 -12.5 -50
t-47.5 -12t-47 11.5t-12 50.5q0 35 12 45t47 10z" />
    <glyph glyph-name="Ccaron" unicode="&#x10c;" horiz-adv-x="592" 
d="M53 355q0 106 19.5 176t62 110.5t100.5 56.5t145 16q106 0 200 -26l-29 -116q-61 22 -148 22q-63 0 -98 -7.5t-62.5 -32.5t-38 -72.5t-10.5 -127.5t10.5 -128.5t37.5 -75t63 -35t98 -8.5q87 0 148 22l29 -118q-90 -25 -200 -25q-115 0 -184 32.5t-106 114.5t-37 222z
M292 876l73 -78l70 78h112l-122 -129h-122l-126 129h115z" />
    <glyph glyph-name="ccaron" unicode="&#x10d;" horiz-adv-x="470" 
d="M430 118l28 -106q-65 -26 -155 -26q-124 0 -188 61t-64 210q0 148 64 207.5t188 59.5q90 0 155 -24l-28 -106q-59 22 -118 22q-49 0 -75.5 -10.5t-42 -46t-15.5 -104.5q0 -96 30.5 -128.5t102.5 -32.5q59 0 118 24zM106 697h117l71 -76l69 76h113l-122 -129h-122z" />
    <glyph glyph-name="Dcaron" unicode="&#x10e;" horiz-adv-x="736" 
d="M88 697h266q86 0 145 -16t101.5 -55t62.5 -106.5t20 -168.5q0 -196 -78.5 -273.5t-250.5 -77.5h-266v697zM542 350q0 78 -9 123t-34.5 70t-60.5 32.5t-97 7.5h-121v-469h121q81 0 122 18t60 68.5t19 149.5zM271 876l73 -78l70 78h112l-122 -129h-122l-126 129h115z" />
    <glyph glyph-name="dcaron" unicode="&#x10f;" 
d="M394 107v263q0 22 -28.5 35.5t-71.5 13.5q-66 0 -90.5 -34t-24.5 -128q0 -101 24.5 -133t92.5 -32q55 0 98 15zM518 722v-699q-92 -37 -222 -37q-131 0 -188 58.5t-57 210.5q0 147 56 208t165 61q70 0 122 -29v227h124zM574 722h110l-57 -192h-73z" />
    <glyph glyph-name="Dcroat" unicode="&#x110;" horiz-adv-x="736" 
d="M36 311v92h52v294h266q86 0 145 -16t101.5 -55t62.5 -106.5t20 -168.5q0 -196 -78.5 -273.5t-250.5 -77.5h-266v311h-52zM542 350q0 78 -9 123t-34.5 69.5t-60 32t-97.5 7.5h-121v-179h159v-92h-159v-197h121q81 0 122 18t60 68.5t19 149.5z" />
    <glyph glyph-name="dcroat" unicode="&#x111;" 
d="M305 577v89h89v56h124v-56h49v-89h-49v-554q-92 -37 -222 -37q-131 0 -188 58.5t-57 210.5q0 147 56 208t165 61q70 0 122 -29v82h-89zM394 107v263q0 22 -28.5 35.5t-71.5 13.5q-66 0 -90.5 -34t-24.5 -128q0 -101 24.5 -133t92.5 -32q55 0 98 15z" />
    <glyph glyph-name="Emacron" unicode="&#x112;" horiz-adv-x="620" 
d="M88 697h506v-114h-374v-161h267v-113h-267v-195h374v-114h-506v697zM203 753v92h278v-92h-278z" />
    <glyph glyph-name="emacron" unicode="&#x113;" horiz-adv-x="552" 
d="M456 112l20 -98q-84 -28 -178 -28q-119 0 -183 61.5t-64 209.5q0 146 59.5 206.5t177.5 60.5q64 0 104.5 -12.5t69.5 -46t40 -92.5t8 -151h-329q1 -78 31 -104.5t101 -26.5q73 0 143 21zM295 426q-59 0 -83 -23t-30 -86h214q-3 66 -24.5 87.5t-76.5 21.5zM156 576v90h278
v-90h-278z" />
    <glyph glyph-name="Ebreve" unicode="&#x114;" horiz-adv-x="620" 
d="M88 697h506v-114h-374v-161h267v-113h-267v-195h374v-114h-506v697zM202 871h85q0 -34 15.5 -46t50.5 -12t51 12.5t16 45.5h80q0 -137 -150 -137q-148 0 -148 137z" />
    <glyph glyph-name="ebreve" unicode="&#x115;" horiz-adv-x="552" 
d="M456 112l20 -98q-84 -28 -178 -28q-119 0 -183 61.5t-64 209.5q0 146 59.5 206.5t177.5 60.5q64 0 104.5 -12.5t69.5 -46t40 -92.5t8 -151h-329q1 -78 31 -104.5t101 -26.5q73 0 143 21zM295 426q-59 0 -83 -23t-30 -86h214q-3 66 -24.5 87.5t-76.5 21.5zM141 697h85
q0 -34 15.5 -46t50.5 -12t51 12.5t16 45.5h80q0 -137 -150 -137q-148 0 -148 137z" />
    <glyph glyph-name="Edotaccent" unicode="&#x116;" horiz-adv-x="620" 
d="M88 697h506v-114h-374v-161h267v-113h-267v-195h374v-114h-506v697zM362 867q35 0 47.5 -10.5t12.5 -45.5q0 -38 -12.5 -49.5t-47.5 -11.5t-47 11.5t-12 49.5q0 35 12 45.5t47 10.5z" />
    <glyph glyph-name="edotaccent" unicode="&#x117;" horiz-adv-x="552" 
d="M456 112l20 -98q-84 -28 -178 -28q-119 0 -183 61.5t-64 209.5q0 146 59.5 206.5t177.5 60.5q64 0 104.5 -12.5t69.5 -46t40 -92.5t8 -151h-329q1 -78 31 -104.5t101 -26.5q73 0 143 21zM295 426q-59 0 -83 -23t-30 -86h214q-3 66 -24.5 87.5t-76.5 21.5zM291 681
q35 0 47.5 -10t12.5 -45q0 -38 -12.5 -50t-47.5 -12t-47 11.5t-12 50.5q0 35 12 45t47 10z" />
    <glyph glyph-name="Eogonek" unicode="&#x118;" horiz-adv-x="620" 
d="M88 697h506v-114h-374v-161h267v-113h-267v-195h374v-114h-506v697zM527 12h39q-50 -30 -67 -52t-17 -52q0 -22 12.5 -31t47.5 -9q51 0 83 27l35 -63q-47 -35 -131 -35q-74 0 -103 21.5t-29 67.5q0 42 33 75.5t97 50.5z" />
    <glyph glyph-name="eogonek" unicode="&#x119;" horiz-adv-x="552" 
d="M456 112l20 -98q-84 -28 -178 -28q-119 0 -183 61.5t-64 209.5q0 146 59.5 206.5t177.5 60.5q64 0 104.5 -12.5t69.5 -46t40 -92.5t8 -151h-329q1 -78 31 -104.5t101 -26.5q73 0 143 21zM295 426q-59 0 -83 -23t-30 -86h214q-3 66 -24.5 87.5t-76.5 21.5zM410 12h39
q-50 -30 -67 -52t-17 -52q0 -22 12.5 -31t47.5 -9q51 0 83 27l35 -63q-47 -35 -131 -35q-74 0 -103 21.5t-29 67.5q0 42 33 75.5t97 50.5z" />
    <glyph glyph-name="Ecaron" unicode="&#x11a;" horiz-adv-x="620" 
d="M88 697h506v-114h-374v-161h267v-113h-267v-195h374v-114h-506v697zM280 876l73 -78l70 78h112l-122 -129h-122l-126 129h115z" />
    <glyph glyph-name="ecaron" unicode="&#x11b;" horiz-adv-x="552" 
d="M456 112l20 -98q-84 -28 -178 -28q-119 0 -183 61.5t-64 209.5q0 146 59.5 206.5t177.5 60.5q64 0 104.5 -12.5t69.5 -46t40 -92.5t8 -151h-329q1 -78 31 -104.5t101 -26.5q73 0 143 21zM295 426q-59 0 -83 -23t-30 -86h214q-3 66 -24.5 87.5t-76.5 21.5zM105 697h117
l71 -76l69 76h113l-122 -129h-122z" />
    <glyph glyph-name="Gcircumflex" unicode="&#x11c;" horiz-adv-x="700" 
d="M493 116v180h-152v111h287v-391q-95 -30 -248 -30q-115 0 -184 32.5t-106 114.5t-37 222q0 106 21.5 176.5t67 110.5t107 56t150.5 16q116 0 210 -26l-27 -115q-60 21 -173 21q-52 0 -83.5 -4.5t-59.5 -18t-42 -40.5t-22 -69.5t-8 -107.5q0 -80 10.5 -129t37.5 -75.5
t63.5 -35t97.5 -8.5q48 0 90 10zM453 747l-72 78l-70 -78h-112l122 129h122l126 -129h-116z" />
    <glyph glyph-name="gcircumflex" unicode="&#x11d;" 
d="M394 143v262q-45 17 -98 17q-69 0 -93 -31.5t-24 -136.5q0 -94 24 -126.5t90 -32.5q43 0 72 13t29 35zM394 21q-54 -33 -129 -33q-111 0 -162.5 58t-51.5 207q0 152 57.5 211.5t187.5 59.5q131 0 222 -38v-447q0 -73 -19 -122t-57 -74.5t-84.5 -36t-111.5 -10.5
q-101 0 -179 30l25 100q78 -25 153 -25t112 26.5t37 93.5zM487 568h-117l-71 76l-69 -76h-113l122 129h122z" />
    <glyph glyph-name="Gbreve" unicode="&#x11e;" horiz-adv-x="700" 
d="M493 116v180h-152v111h287v-391q-95 -30 -248 -30q-115 0 -184 32.5t-106 114.5t-37 222q0 106 21.5 176.5t67 110.5t107 56t150.5 16q116 0 210 -26l-27 -115q-60 21 -173 21q-52 0 -83.5 -4.5t-59.5 -18t-42 -40.5t-22 -69.5t-8 -107.5q0 -80 10.5 -129t37.5 -75.5
t63.5 -35t97.5 -8.5q48 0 90 10zM231 871h85q0 -34 15.5 -46t50.5 -12t51 12.5t16 45.5h80q0 -137 -150 -137q-148 0 -148 137z" />
    <glyph glyph-name="gbreve" unicode="&#x11f;" 
d="M394 143v262q-45 17 -98 17q-69 0 -93 -31.5t-24 -136.5q0 -94 24 -126.5t90 -32.5q43 0 72 13t29 35zM394 21q-54 -33 -129 -33q-111 0 -162.5 58t-51.5 207q0 152 57.5 211.5t187.5 59.5q131 0 222 -38v-447q0 -73 -19 -122t-57 -74.5t-84.5 -36t-111.5 -10.5
q-101 0 -179 30l25 100q78 -25 153 -25t112 26.5t37 93.5zM151 697h85q0 -34 15.5 -46t50.5 -12t51 12.5t16 45.5h80q0 -137 -150 -137q-148 0 -148 137z" />
    <glyph glyph-name="Gdotaccent" unicode="&#x120;" horiz-adv-x="700" 
d="M493 116v180h-152v111h287v-391q-95 -30 -248 -30q-115 0 -184 32.5t-106 114.5t-37 222q0 106 21.5 176.5t67 110.5t107 56t150.5 16q116 0 210 -26l-27 -115q-60 21 -173 21q-52 0 -83.5 -4.5t-59.5 -18t-42 -40.5t-22 -69.5t-8 -107.5q0 -80 10.5 -129t37.5 -75.5
t63.5 -35t97.5 -8.5q48 0 90 10zM391 867q35 0 47.5 -10.5t12.5 -45.5q0 -38 -12.5 -49.5t-47.5 -11.5t-47 11.5t-12 49.5q0 35 12 45.5t47 10.5z" />
    <glyph glyph-name="gdotaccent" unicode="&#x121;" 
d="M394 143v262q-45 17 -98 17q-69 0 -93 -31.5t-24 -136.5q0 -94 24 -126.5t90 -32.5q43 0 72 13t29 35zM394 21q-54 -33 -129 -33q-111 0 -162.5 58t-51.5 207q0 152 57.5 211.5t187.5 59.5q131 0 222 -38v-447q0 -73 -19 -122t-57 -74.5t-84.5 -36t-111.5 -10.5
q-101 0 -179 30l25 100q78 -25 153 -25t112 26.5t37 93.5zM294 681q35 0 47.5 -10t12.5 -45q0 -38 -12.5 -50t-47.5 -12t-47 11.5t-12 50.5q0 35 12 45t47 10z" />
    <glyph glyph-name="Gcommaaccent" unicode="&#x122;" horiz-adv-x="700" 
d="M493 116v180h-152v111h287v-391q-95 -30 -248 -30q-115 0 -184 32.5t-106 114.5t-37 222q0 106 21.5 176.5t67 110.5t107 56t150.5 16q116 0 210 -26l-27 -115q-60 21 -173 21q-52 0 -83.5 -4.5t-59.5 -18t-42 -40.5t-22 -69.5t-8 -107.5q0 -80 10.5 -129t37.5 -75.5
t63.5 -35t97.5 -8.5q48 0 90 10zM473 -51l-108 -167h-97l71 167h134z" />
    <glyph glyph-name="gcommaaccent" unicode="&#x123;" 
d="M394 143v262q-45 17 -98 17q-69 0 -93 -31.5t-24 -136.5q0 -94 24 -126.5t90 -32.5q43 0 72 13t29 35zM394 21q-54 -33 -129 -33q-111 0 -162.5 58t-51.5 207q0 152 57.5 211.5t187.5 59.5q131 0 222 -38v-447q0 -73 -19 -122t-57 -74.5t-84.5 -36t-111.5 -10.5
q-101 0 -179 30l25 100q78 -25 153 -25t112 26.5t37 93.5zM427 751l-108 -167h-97l71 167h134z" />
    <glyph glyph-name="Hcircumflex" unicode="&#x124;" horiz-adv-x="736" 
d="M220 309v-309h-132v697h132v-266h298v266h130v-697h-130v309h-298zM434 747l-72 78l-70 -78h-112l122 129h122l126 -129h-116z" />
    <glyph glyph-name="hcircumflex" unicode="&#x125;" horiz-adv-x="583" 
d="M333 524q64 0 101.5 -17.5t60 -69t22.5 -144.5v-293h-124v283q0 67 -22.5 98t-79.5 31q-41 0 -69.5 -12t-28.5 -33v-367h-124v722h124v-233q68 35 140 35zM274 747l-72 78l-70 -78h-112l122 129h122l126 -129h-116z" />
    <glyph glyph-name="Hbar" unicode="&#x126;" horiz-adv-x="736" 
d="M29 520v105h59v72h132v-72h298v72h130v-72h60v-105h-60v-520h-130v309h-298v-309h-132v520h-59zM220 431h298v89h-298v-89z" />
    <glyph glyph-name="hbar" unicode="&#x127;" horiz-adv-x="583" 
d="M18 581v87h51v54h124v-54h103v-87h-103v-92q68 35 140 35q64 0 101.5 -17.5t60 -69t22.5 -144.5v-293h-124v283q0 77 -24 103t-78 26q-41 0 -69.5 -12t-28.5 -33v-367h-124v581h-51z" />
    <glyph glyph-name="Itilde" unicode="&#x128;" horiz-adv-x="308" 
d="M88 697h132v-697h-132v697zM278 879l61 -50q-15 -41 -46.5 -67t-73.5 -26q-31 0 -76 27t-67 27q-31 0 -51 -50l-56 55q45 79 107 79q37 0 82.5 -26t65.5 -26q18 0 30 12.5t24 44.5z" />
    <glyph glyph-name="itilde" unicode="&#x129;" horiz-adv-x="262" 
d="M193 509v-509h-124v509h124zM252 702l62 -50q-33 -93 -117 -93q-31 0 -74.5 26.5t-66.5 26.5q-31 0 -52 -51l-56 55q46 81 109 81q37 0 79 -26.5t63 -26.5q18 0 29.5 12.5t23.5 45.5z" />
    <glyph glyph-name="Imacron" unicode="&#x12a;" horiz-adv-x="308" 
d="M88 697h132v-697h-132v697zM16 753v92h278v-92h-278z" />
    <glyph glyph-name="imacron" unicode="&#x12b;" horiz-adv-x="262" 
d="M193 509v-509h-124v509h124zM-7 576v90h278v-90h-278z" />
    <glyph glyph-name="Ibreve" unicode="&#x12c;" horiz-adv-x="308" 
d="M88 697h132v-697h-132v697zM7 871h85q0 -34 15.5 -46t50.5 -12t51 12.5t16 45.5h80q0 -137 -150 -137q-148 0 -148 137z" />
    <glyph glyph-name="ibreve" unicode="&#x12d;" horiz-adv-x="262" 
d="M193 509v-509h-124v509h124zM-17 697h85q0 -34 15.5 -46t50.5 -12t51 12.5t16 45.5h80q0 -137 -150 -137q-148 0 -148 137z" />
    <glyph glyph-name="Iogonek" unicode="&#x12e;" horiz-adv-x="308" 
d="M88 697h132v-697h-132v697zM153 12h39q-50 -30 -67 -52t-17 -52q0 -22 12.5 -31t47.5 -9q51 0 83 27l35 -63q-47 -35 -131 -35q-74 0 -103 21.5t-29 67.5q0 42 33 75.5t97 50.5z" />
    <glyph glyph-name="iogonek" unicode="&#x12f;" horiz-adv-x="262" 
d="M193 509v-509h-124v509h124zM132 721q42 0 56.5 -11.5t14.5 -49.5q0 -43 -14.5 -56t-56.5 -13q-43 0 -57.5 13t-14.5 56q0 38 14.5 49.5t57.5 11.5zM139 12h39q-50 -30 -67 -52t-17 -52q0 -22 12.5 -31t47.5 -9q51 0 83 27l35 -63q-47 -35 -131 -35q-74 0 -103 21.5
t-29 67.5q0 42 33 75.5t97 50.5z" />
    <glyph glyph-name="Idotaccent" unicode="&#x130;" horiz-adv-x="308" 
d="M88 697h132v-697h-132v697zM153 867q35 0 47.5 -10.5t12.5 -45.5q0 -38 -12.5 -49.5t-47.5 -11.5t-47 11.5t-12 49.5q0 35 12 45.5t47 10.5z" />
    <glyph glyph-name="dotlessi" unicode="&#x131;" horiz-adv-x="262" 
d="M193 509v-509h-124v509h124z" />
    <glyph glyph-name="IJ" unicode="&#x132;" horiz-adv-x="768" 
d="M88 697h132v-697h-132v697zM682 697v-505q0 -206 -211 -206q-85 0 -158 27l26 118q52 -21 119 -21q91 0 91 99v488h133z" />
    <glyph glyph-name="ij" unicode="&#x133;" horiz-adv-x="524" 
d="M193 509v-509h-124v509h124zM132 721q42 0 56.5 -11.5t14.5 -49.5q0 -43 -14.5 -56t-56.5 -13q-43 0 -57.5 13t-14.5 56q0 38 14.5 49.5t57.5 11.5zM392 721q42 0 57 -11.5t15 -49.5q0 -43 -15 -56t-57 -13t-57 13t-15 56q0 38 15 49.5t57 11.5zM244 -203v103
q45 0 65.5 18.5t20.5 67.5v523h124v-520q0 -109 -50 -150.5t-160 -41.5z" />
    <glyph glyph-name="Jcircumflex" unicode="&#x134;" horiz-adv-x="461" 
d="M375 697l1 -505q0 -206 -212 -206q-84 0 -158 27l26 118q53 -21 119 -21q91 0 91 99v488h133zM376 747l-72 78l-70 -78h-112l122 129h122l126 -129h-116z" />
    <glyph glyph-name="jcircumflex" unicode="&#x135;" horiz-adv-x="262" 
d="M316 568h-117l-71 76l-69 -76h-113l122 129h122zM193 509v-519q0 -109 -50 -151t-159 -42v103q44 0 64.5 19t20.5 68v522h124z" />
    <glyph glyph-name="Kcommaaccent" unicode="&#x136;" horiz-adv-x="662" 
d="M220 697v-697h-132v697h132zM675 0h-162q-97 160 -177.5 257t-114.5 111q37 26 112 115t160 214h160q-87 -123 -159 -208.5t-104 -111.5q33 -22 112.5 -122t172.5 -255zM418 -51l-108 -167h-97l71 167h134z" />
    <glyph glyph-name="kcommaaccent" unicode="&#x137;" horiz-adv-x="551" 
d="M193 722v-722h-124v722h124zM552 0h-146q-174 252 -213 269q49 40 197 240h147q-139 -188 -195 -231q22 -13 78 -86t132 -192zM364 -51l-108 -167h-97l71 167h134z" />
    <glyph glyph-name="Lacute" unicode="&#x139;" horiz-adv-x="551" 
d="M88 697h132v-582h329v-115h-461v697zM207 747h-108l129 129h137z" />
    <glyph glyph-name="lacute" unicode="&#x13a;" horiz-adv-x="268" 
d="M193 722v-579q0 -68 39 -120l-109 -47q-54 62 -54 162v584h124zM166 747h-108l129 129h137z" />
    <glyph glyph-name="Lcommaaccent" unicode="&#x13b;" horiz-adv-x="551" 
d="M88 697h132v-582h329v-115h-461v697zM395 -51l-108 -167h-97l71 167h134z" />
    <glyph glyph-name="lcommaaccent" unicode="&#x13c;" horiz-adv-x="268" 
d="M193 722v-579q0 -68 39 -120l-109 -47q-54 62 -54 162v584h124zM242 -51l-108 -167h-97l71 167h134z" />
    <glyph glyph-name="Lcaron" unicode="&#x13d;" horiz-adv-x="551" 
d="M88 697h132v-582h329v-115h-461v697zM317 722h110l-57 -192h-73z" />
    <glyph glyph-name="lcaron" unicode="&#x13e;" horiz-adv-x="268" 
d="M193 722v-579q0 -68 39 -120l-109 -47q-54 62 -54 162v584h124zM256 722h110l-57 -192h-73z" />
    <glyph glyph-name="Ldot" unicode="&#x13f;" horiz-adv-x="551" 
d="M88 697h132v-582h329v-115h-461v697zM354 463q35 0 47.5 -10.5t12.5 -45.5q0 -38 -12.5 -49.5t-47.5 -11.5t-47 11.5t-12 49.5q0 35 12 45.5t47 10.5z" />
    <glyph glyph-name="ldot" unicode="&#x140;" horiz-adv-x="268" 
d="M193 722v-579q0 -68 39 -120l-109 -47q-54 62 -54 162v584h124zM282 460q35 0 47.5 -10t12.5 -45q0 -38 -12.5 -50t-47.5 -12t-47 11.5t-12 50.5q0 35 12 45t47 10z" />
    <glyph glyph-name="Lslash" unicode="&#x141;" horiz-adv-x="551" 
d="M376 557v-124l-156 -135v-183h329v-115h-461v189l-67 -58v123l67 58v385h132v-276z" />
    <glyph glyph-name="lslash" unicode="&#x142;" horiz-adv-x="288" 
d="M203 722v-228l69 75v-124l-69 -75v-227q0 -8 2 -24q3 -54 37 -96q-13 -5 -50.5 -21.5t-58.5 -24.5q-48 51 -52 135q-2 38 -2 58v67q-11 -11 -32 -34t-32 -35v123q10 12 31.5 35t32.5 34v362h124z" />
    <glyph glyph-name="Nacute" unicode="&#x143;" horiz-adv-x="774" 
d="M685 697v-697h-161q-143 265 -307 525v-525h-129v697h173q151 -238 293 -503v503h131zM406 747h-108l129 129h137z" />
    <glyph glyph-name="nacute" unicode="&#x144;" horiz-adv-x="583" 
d="M193 400v-400h-124v480q114 44 241 44q110 0 158.5 -53t48.5 -187v-284h-124v271q0 85 -21.5 113t-87.5 28q-46 0 -91 -12zM291 568h-109l121 129h133z" />
    <glyph glyph-name="Ncommaaccent" unicode="&#x145;" horiz-adv-x="774" 
d="M685 697v-697h-161q-143 265 -307 525v-525h-129v697h173q151 -238 293 -503v503h131zM460 -51l-108 -167h-97l71 167h134z" />
    <glyph glyph-name="ncommaaccent" unicode="&#x146;" horiz-adv-x="583" 
d="M193 400v-400h-124v480q114 44 241 44q110 0 158.5 -53t48.5 -187v-284h-124v271q0 85 -21.5 113t-87.5 28q-46 0 -91 -12zM364 -51l-108 -167h-97l71 167h134z" />
    <glyph glyph-name="Ncaron" unicode="&#x147;" horiz-adv-x="774" 
d="M685 697v-697h-161q-143 265 -307 525v-525h-129v697h173q151 -238 293 -503v503h131zM328 876l73 -78l70 78h112l-122 -129h-122l-126 129h115z" />
    <glyph glyph-name="ncaron" unicode="&#x148;" horiz-adv-x="583" 
d="M193 400v-400h-124v480q114 44 241 44q110 0 158.5 -53t48.5 -187v-284h-124v271q0 85 -21.5 113t-87.5 28q-46 0 -91 -12zM104 697h117l71 -76l69 76h113l-122 -129h-122z" />
    <glyph glyph-name="Omacron" unicode="&#x14c;" horiz-adv-x="770" 
d="M385 714q87 0 146 -16.5t102 -56.5t63 -110.5t20 -175.5q0 -107 -20 -179t-63 -113.5t-102.5 -59t-145.5 -17.5q-87 0 -146.5 17.5t-102.5 59t-63 113.5t-20 179q0 105 20 175.5t63.5 110.5t102.5 56.5t146 16.5zM385 105q48 0 78.5 6t54 20.5t35.5 43.5t17.5 71t5.5 107
q0 81 -7.5 127t-31 72.5t-57.5 34.5t-95 8t-95 -8t-57.5 -34.5t-31 -72.5t-7.5 -127q0 -65 5.5 -107t17.5 -71t35.5 -43.5t54 -20.5t78.5 -6zM246 753v92h278v-92h-278z" />
    <glyph glyph-name="omacron" unicode="&#x14d;" 
d="M293 -14q-127 0 -184.5 59.5t-57.5 211.5q0 150 58 208.5t184 58.5q128 0 186 -58.5t58 -208.5q0 -152 -58 -211.5t-186 -59.5zM293 424q-68 0 -91 -31.5t-23 -137.5q0 -103 23.5 -136t90.5 -33q68 0 92 33t24 136q0 73 -11 109t-34.5 48t-70.5 12zM154 576v90h278v-90
h-278z" />
    <glyph glyph-name="Obreve" unicode="&#x14e;" horiz-adv-x="770" 
d="M385 714q87 0 146 -16.5t102 -56.5t63 -110.5t20 -175.5q0 -107 -20 -179t-63 -113.5t-102.5 -59t-145.5 -17.5q-87 0 -146.5 17.5t-102.5 59t-63 113.5t-20 179q0 105 20 175.5t63.5 110.5t102.5 56.5t146 16.5zM385 105q48 0 78.5 6t54 20.5t35.5 43.5t17.5 71t5.5 107
q0 81 -7.5 127t-31 72.5t-57.5 34.5t-95 8t-95 -8t-57.5 -34.5t-31 -72.5t-7.5 -127q0 -65 5.5 -107t17.5 -71t35.5 -43.5t54 -20.5t78.5 -6zM236 871h85q0 -34 15.5 -46t50.5 -12t51 12.5t16 45.5h80q0 -137 -150 -137q-148 0 -148 137z" />
    <glyph glyph-name="obreve" unicode="&#x14f;" 
d="M293 -14q-127 0 -184.5 59.5t-57.5 211.5q0 150 58 208.5t184 58.5q128 0 186 -58.5t58 -208.5q0 -152 -58 -211.5t-186 -59.5zM293 424q-68 0 -91 -31.5t-23 -137.5q0 -103 23.5 -136t90.5 -33q68 0 92 33t24 136q0 73 -11 109t-34.5 48t-70.5 12zM144 697h85
q0 -34 15.5 -46t50.5 -12t51 12.5t16 45.5h80q0 -137 -150 -137q-148 0 -148 137z" />
    <glyph glyph-name="Ohungarumlaut" unicode="&#x150;" horiz-adv-x="770" 
d="M385 714q87 0 146 -16.5t102 -56.5t63 -110.5t20 -175.5q0 -107 -20 -179t-63 -113.5t-102.5 -59t-145.5 -17.5q-87 0 -146.5 17.5t-102.5 59t-63 113.5t-20 179q0 105 20 175.5t63.5 110.5t102.5 56.5t146 16.5zM385 105q48 0 78.5 6t54 20.5t35.5 43.5t17.5 71t5.5 107
q0 81 -7.5 127t-31 72.5t-57.5 34.5t-95 8t-95 -8t-57.5 -34.5t-31 -72.5t-7.5 -127q0 -65 5.5 -107t17.5 -71t35.5 -43.5t54 -20.5t78.5 -6zM310 747h-85l91 129h109zM475 747h-86l91 129h109z" />
    <glyph glyph-name="ohungarumlaut" unicode="&#x151;" 
d="M293 -14q-127 0 -184.5 59.5t-57.5 211.5q0 150 58 208.5t184 58.5q128 0 186 -58.5t58 -208.5q0 -152 -58 -211.5t-186 -59.5zM293 424q-68 0 -91 -31.5t-23 -137.5q0 -103 23.5 -136t90.5 -33q68 0 92 33t24 136q0 73 -11 109t-34.5 48t-70.5 12zM221 568h-85l91 129
h109zM386 568h-86l91 129h109z" />
    <glyph glyph-name="OE" unicode="&#x152;" horiz-adv-x="1098" 
d="M532 697h540v-114h-403q38 -56 45 -161h206v-112h-206q-3 -132 -50 -196h408v-114h-554q-53 -14 -133 -14q-87 0 -146.5 17.5t-102.5 59t-63 113.5t-20 179q0 105 20 175.5t63.5 110.5t102.5 56.5t146 16.5t147 -17zM385 105q48 0 78.5 6t54 20.5t35.5 43.5t17.5 71
t5.5 107q0 81 -7.5 127t-31 72.5t-57.5 34.5t-95 8t-95 -8t-57.5 -34.5t-31 -72.5t-7.5 -127q0 -65 5.5 -107t17.5 -71t35.5 -43.5t54 -20.5t78.5 -6z" />
    <glyph glyph-name="oe" unicode="&#x153;" horiz-adv-x="907" 
d="M810 112l21 -98q-86 -28 -179 -28q-127 0 -178 69q-47 -69 -181 -69q-127 0 -184.5 59.5t-57.5 211.5q0 150 58 208.5t184 58.5q130 0 179 -65q51 65 170 65q85 0 132.5 -23.5t71 -90t18.5 -188.5h-329q1 -78 31.5 -104.5t100.5 -26.5q75 0 143 21zM293 424
q-68 0 -91 -31.5t-23 -137.5q0 -103 23.5 -136t90.5 -33q68 0 92 33t24 136q0 73 -11 109t-34.5 48t-70.5 12zM650 426q-58 0 -82.5 -22.5t-31.5 -86.5h214q-2 66 -23.5 87.5t-76.5 21.5z" />
    <glyph glyph-name="Racute" unicode="&#x154;" horiz-adv-x="706" 
d="M220 585v-210h197q81 0 81 102q0 108 -78 108h-200zM462 303q36 -13 88.5 -81.5t144.5 -221.5h-163q-80 141 -132.5 203.5t-86.5 62.5h-93v-266h-132v697h363q194 0 194 -203q0 -184 -183 -191zM343 747h-108l129 129h137z" />
    <glyph glyph-name="racute" unicode="&#x155;" horiz-adv-x="379" 
d="M69 0v509h124v-38q34 53 130 53q25 0 52 -3v-118q-31 7 -65 7q-49 0 -83 -15t-34 -42v-353h-124zM255 568h-109l121 129h133z" />
    <glyph glyph-name="Rcommaaccent" unicode="&#x156;" horiz-adv-x="706" 
d="M220 585v-210h197q81 0 81 102q0 108 -78 108h-200zM462 303q36 -13 88.5 -81.5t144.5 -221.5h-163q-80 141 -132.5 203.5t-86.5 62.5h-93v-266h-132v697h363q194 0 194 -203q0 -184 -183 -191zM437 -51l-108 -167h-97l71 167h134z" />
    <glyph glyph-name="rcommaaccent" unicode="&#x157;" horiz-adv-x="379" 
d="M69 0v509h124v-38q34 53 130 53q25 0 52 -3v-118q-31 7 -65 7q-49 0 -83 -15t-34 -42v-353h-124zM224 -51l-108 -167h-97l71 167h134z" />
    <glyph glyph-name="Rcaron" unicode="&#x158;" horiz-adv-x="706" 
d="M220 585v-210h197q81 0 81 102q0 108 -78 108h-200zM462 303q36 -13 88.5 -81.5t144.5 -221.5h-163q-80 141 -132.5 203.5t-86.5 62.5h-93v-266h-132v697h363q194 0 194 -203q0 -184 -183 -191zM275 876l73 -78l70 78h112l-122 -129h-122l-126 129h115z" />
    <glyph glyph-name="rcaron" unicode="&#x159;" horiz-adv-x="379" 
d="M69 0v509h124v-38q34 53 130 53q25 0 52 -3v-118q-31 7 -65 7q-49 0 -83 -15t-34 -42v-353h-124zM45 697h117l71 -76l69 76h113l-122 -129h-122z" />
    <glyph glyph-name="Sacute" unicode="&#x15a;" horiz-adv-x="622" 
d="M559 683l-29 -114q-70 25 -184 25q-85 0 -121 -20.5t-36 -70.5q0 -42 30.5 -61t122.5 -28q123 -13 178.5 -62t55.5 -147q0 -120 -72.5 -169.5t-228.5 -49.5q-126 0 -217 31l29 114q79 -25 186 -25q86 0 123.5 20t37.5 72q0 43 -32.5 66t-126.5 31q-119 12 -172.5 55
t-53.5 137q0 120 73.5 173.5t223.5 53.5q118 0 213 -31zM321 747h-108l129 129h137z" />
    <glyph glyph-name="sacute" unicode="&#x15b;" horiz-adv-x="491" 
d="M434 496l-27 -97q-74 24 -148 24q-51 0 -71.5 -11t-20.5 -48q0 -26 21.5 -37.5t83.5 -17.5q95 -10 136 -44t41 -109q0 -94 -56 -132t-162 -38t-182 27l26 98q68 -24 151 -24q55 0 77.5 12t22.5 50q0 28 -22.5 41.5t-86.5 19.5q-89 7 -130.5 38.5t-41.5 106.5
q0 93 56.5 131t161.5 38q87 0 171 -28zM257 568h-109l121 129h133z" />
    <glyph glyph-name="Scircumflex" unicode="&#x15c;" horiz-adv-x="622" 
d="M559 683l-29 -114q-70 25 -184 25q-85 0 -121 -20.5t-36 -70.5q0 -42 30.5 -61t122.5 -28q123 -13 178.5 -62t55.5 -147q0 -120 -72.5 -169.5t-228.5 -49.5q-126 0 -217 31l29 114q79 -25 186 -25q86 0 123.5 20t37.5 72q0 43 -32.5 66t-126.5 31q-119 12 -172.5 55
t-53.5 137q0 120 73.5 173.5t223.5 53.5q118 0 213 -31zM398 747l-72 78l-70 -78h-112l122 129h122l126 -129h-116z" />
    <glyph glyph-name="scircumflex" unicode="&#x15d;" horiz-adv-x="491" 
d="M434 496l-27 -97q-74 24 -148 24q-51 0 -71.5 -11t-20.5 -48q0 -26 21.5 -37.5t83.5 -17.5q95 -10 136 -44t41 -109q0 -94 -56 -132t-162 -38t-182 27l26 98q68 -24 151 -24q55 0 77.5 12t22.5 50q0 28 -22.5 41.5t-86.5 19.5q-89 7 -130.5 38.5t-41.5 106.5
q0 93 56.5 131t161.5 38q87 0 171 -28zM443 568h-117l-71 76l-69 -76h-113l122 129h122z" />
    <glyph glyph-name="Scedilla" unicode="&#x15e;" horiz-adv-x="622" 
d="M559 683l-29 -114q-70 25 -184 25q-85 0 -121 -20.5t-36 -70.5q0 -42 30.5 -61t122.5 -28q123 -13 178.5 -62t55.5 -147q0 -120 -72.5 -169.5t-228.5 -49.5q-126 0 -217 31l29 114q79 -25 186 -25q86 0 123.5 20t37.5 72q0 43 -32.5 66t-126.5 31q-119 12 -172.5 55
t-53.5 137q0 120 73.5 173.5t223.5 53.5q118 0 213 -31zM280 0h49v-42q60 0 85 -17t25 -61q0 -47 -30.5 -65t-106.5 -18q-62 0 -98 16l22 54q24 -12 71 -12q23 0 32 5.5t9 20.5q0 19 -19.5 24t-74.5 2z" />
    <glyph glyph-name="Scedilla" unicode="&#xf6c1;" horiz-adv-x="622" 
d="M559 683l-29 -114q-70 25 -184 25q-85 0 -121 -20.5t-36 -70.5q0 -42 30.5 -61t122.5 -28q123 -13 178.5 -62t55.5 -147q0 -120 -72.5 -169.5t-228.5 -49.5q-126 0 -217 31l29 114q79 -25 186 -25q86 0 123.5 20t37.5 72q0 43 -32.5 66t-126.5 31q-119 12 -172.5 55
t-53.5 137q0 120 73.5 173.5t223.5 53.5q118 0 213 -31zM280 0h49v-42q60 0 85 -17t25 -61q0 -47 -30.5 -65t-106.5 -18q-62 0 -98 16l22 54q24 -12 71 -12q23 0 32 5.5t9 20.5q0 19 -19.5 24t-74.5 2z" />
    <glyph glyph-name="scedilla" unicode="&#x15f;" horiz-adv-x="491" 
d="M434 496l-27 -97q-74 24 -148 24q-51 0 -71.5 -11t-20.5 -48q0 -26 21.5 -37.5t83.5 -17.5q95 -10 136 -44t41 -109q0 -94 -56 -132t-162 -38t-182 27l26 98q68 -24 151 -24q55 0 77.5 12t22.5 50q0 28 -22.5 41.5t-86.5 19.5q-89 7 -130.5 38.5t-41.5 106.5
q0 93 56.5 131t161.5 38q87 0 171 -28zM212 0h49v-42q60 0 85 -17t25 -61q0 -47 -30.5 -65t-106.5 -18q-62 0 -98 16l22 54q24 -12 71 -12q23 0 32 5.5t9 20.5q0 19 -19.5 24t-74.5 2z" />
    <glyph glyph-name="scedilla" unicode="&#xf6c2;" horiz-adv-x="491" 
d="M434 496l-27 -97q-74 24 -148 24q-51 0 -71.5 -11t-20.5 -48q0 -26 21.5 -37.5t83.5 -17.5q95 -10 136 -44t41 -109q0 -94 -56 -132t-162 -38t-182 27l26 98q68 -24 151 -24q55 0 77.5 12t22.5 50q0 28 -22.5 41.5t-86.5 19.5q-89 7 -130.5 38.5t-41.5 106.5
q0 93 56.5 131t161.5 38q87 0 171 -28zM212 0h49v-42q60 0 85 -17t25 -61q0 -47 -30.5 -65t-106.5 -18q-62 0 -98 16l22 54q24 -12 71 -12q23 0 32 5.5t9 20.5q0 19 -19.5 24t-74.5 2z" />
    <glyph glyph-name="Scaron" unicode="&#x160;" horiz-adv-x="622" 
d="M559 683l-29 -114q-70 25 -184 25q-85 0 -121 -20.5t-36 -70.5q0 -42 30.5 -61t122.5 -28q123 -13 178.5 -62t55.5 -147q0 -120 -72.5 -169.5t-228.5 -49.5q-126 0 -217 31l29 114q79 -25 186 -25q86 0 123.5 20t37.5 72q0 43 -32.5 66t-126.5 31q-119 12 -172.5 55
t-53.5 137q0 120 73.5 173.5t223.5 53.5q118 0 213 -31zM250 876l73 -78l70 78h112l-122 -129h-122l-126 129h115z" />
    <glyph glyph-name="scaron" unicode="&#x161;" horiz-adv-x="491" 
d="M434 496l-27 -97q-74 24 -148 24q-51 0 -71.5 -11t-20.5 -48q0 -26 21.5 -37.5t83.5 -17.5q95 -10 136 -44t41 -109q0 -94 -56 -132t-162 -38t-182 27l26 98q68 -24 151 -24q55 0 77.5 12t22.5 50q0 28 -22.5 41.5t-86.5 19.5q-89 7 -130.5 38.5t-41.5 106.5
q0 93 56.5 131t161.5 38q87 0 171 -28zM66 697h117l71 -76l69 76h113l-122 -129h-122z" />
    <glyph glyph-name="Tcommaaccent" unicode="&#x162;" horiz-adv-x="609" 
d="M371 0h-133v583h-235v114h603v-114h-235v-583zM397 -51l-108 -167h-97l71 167h134z" />
    <glyph glyph-name="Tcommaaccent" unicode="&#x21a;" horiz-adv-x="609" 
d="M371 0h-133v583h-235v114h603v-114h-235v-583zM397 -51l-108 -167h-97l71 167h134z" />
    <glyph glyph-name="tcommaaccent" unicode="&#x163;" horiz-adv-x="415" 
d="M388 401h-169v-219q0 -49 16.5 -69t60.5 -20q43 0 87 14l22 -98q-64 -23 -140 -23q-91 0 -130.5 38.5t-39.5 146.5v230h-85v108h85v86l124 51v-137h169v-108zM301 -51l-108 -167h-97l71 167h134z" />
    <glyph glyph-name="tcommaaccent" unicode="&#x21b;" horiz-adv-x="415" 
d="M388 401h-169v-219q0 -49 16.5 -69t60.5 -20q43 0 87 14l22 -98q-64 -23 -140 -23q-91 0 -130.5 38.5t-39.5 146.5v230h-85v108h85v86l124 51v-137h169v-108zM301 -51l-108 -167h-97l71 167h134z" />
    <glyph glyph-name="Tcaron" unicode="&#x164;" horiz-adv-x="609" 
d="M371 0h-133v583h-235v114h603v-114h-235v-583zM238 876l73 -78l70 78h112l-122 -129h-122l-126 129h115z" />
    <glyph glyph-name="tcaron" unicode="&#x165;" horiz-adv-x="415" 
d="M388 401h-169v-219q0 -49 16.5 -69t60.5 -20q43 0 87 14l22 -98q-64 -23 -140 -23q-91 0 -130.5 38.5t-39.5 146.5v230h-85v108h85v86l124 51v-137h169v-108zM311 770h110l-57 -192h-73z" />
    <glyph glyph-name="Tbar" unicode="&#x166;" horiz-adv-x="609" 
d="M161 235v92h77v254h-235v116h603v-116h-235v-254h69v-92h-69v-235h-133v235h-77z" />
    <glyph glyph-name="tbar" unicode="&#x167;" horiz-adv-x="415" 
d="M38 217v82h57v103h-85v107h85v86l124 51v-137h169v-107h-169v-103h97v-82h-97v-35q0 -48 17.5 -68.5t61.5 -20.5q41 0 85 14l22 -98q-64 -23 -139 -23q-90 0 -130.5 38.5t-40.5 146.5v46h-57z" />
    <glyph glyph-name="Utilde" unicode="&#x168;" horiz-adv-x="742" 
d="M663 697l1 -486q0 -129 -72.5 -177t-220.5 -48t-220.5 48t-72.5 177v486h133v-466q0 -70 35.5 -97t124.5 -27q88 0 124.5 26.5t36.5 97.5v466h131zM496 879l61 -50q-15 -41 -46.5 -67t-73.5 -26q-31 0 -76 27t-67 27q-31 0 -51 -50l-56 55q45 79 107 79q37 0 82.5 -26
t65.5 -26q18 0 30 12.5t24 44.5z" />
    <glyph glyph-name="utilde" unicode="&#x169;" horiz-adv-x="583" 
d="M390 110v399h124v-480q-116 -44 -241 -44q-110 0 -158.5 53t-48.5 187v284h124v-271q0 -85 21.5 -113t86.5 -28q49 0 92 13zM413 702l62 -50q-33 -93 -117 -93q-31 0 -74.5 26.5t-66.5 26.5q-31 0 -52 -51l-56 55q46 81 109 81q37 0 79 -26.5t63 -26.5q18 0 29.5 12.5
t23.5 45.5z" />
    <glyph glyph-name="Umacron" unicode="&#x16a;" horiz-adv-x="742" 
d="M663 697l1 -486q0 -129 -72.5 -177t-220.5 -48t-220.5 48t-72.5 177v486h133v-466q0 -70 35.5 -97t124.5 -27q88 0 124.5 26.5t36.5 97.5v466h131zM229 753v92h278v-92h-278z" />
    <glyph glyph-name="umacron" unicode="&#x16b;" horiz-adv-x="583" 
d="M390 110v399h124v-480q-116 -44 -241 -44q-110 0 -158.5 53t-48.5 187v284h124v-271q0 -85 21.5 -113t86.5 -28q49 0 92 13zM149 576v90h278v-90h-278z" />
    <glyph glyph-name="Ubreve" unicode="&#x16c;" horiz-adv-x="742" 
d="M663 697l1 -486q0 -129 -72.5 -177t-220.5 -48t-220.5 48t-72.5 177v486h133v-466q0 -70 35.5 -97t124.5 -27q88 0 124.5 26.5t36.5 97.5v466h131zM222 871h85q0 -34 15.5 -46t50.5 -12t51 12.5t16 45.5h80q0 -137 -150 -137q-148 0 -148 137z" />
    <glyph glyph-name="ubreve" unicode="&#x16d;" horiz-adv-x="583" 
d="M390 110v399h124v-480q-116 -44 -241 -44q-110 0 -158.5 53t-48.5 187v284h124v-271q0 -85 21.5 -113t86.5 -28q49 0 92 13zM140 697h85q0 -34 15.5 -46t50.5 -12t51 12.5t16 45.5h80q0 -137 -150 -137q-148 0 -148 137z" />
    <glyph glyph-name="Uring" unicode="&#x16e;" horiz-adv-x="742" 
d="M663 697l1 -486q0 -129 -72.5 -177t-220.5 -48t-220.5 48t-72.5 177v486h133v-466q0 -70 35.5 -97t124.5 -27q88 0 124.5 26.5t36.5 97.5v466h131zM369 890q61 0 90 -22.5t29 -75.5t-29 -75.5t-90 -22.5q-62 0 -91 22.5t-29 75.5q0 54 28 76t92 22zM369 834
q-29 0 -39.5 -10t-10.5 -33t10.5 -33t39.5 -10t39.5 10t10.5 33q0 24 -10 33.5t-40 9.5z" />
    <glyph glyph-name="uring" unicode="&#x16f;" horiz-adv-x="583" 
d="M390 110v399h124v-480q-116 -44 -241 -44q-110 0 -158.5 53t-48.5 187v284h124v-271q0 -85 21.5 -113t86.5 -28q49 0 92 13zM293 741q61 0 90 -22.5t29 -75.5t-28.5 -75.5t-90.5 -22.5t-91 22.5t-29 75.5t28 75.5t92 22.5zM293 684q-30 0 -40 -9.5t-10 -33.5
q0 -23 10.5 -33t39.5 -10t39.5 10t10.5 33q0 24 -10 33.5t-40 9.5z" />
    <glyph glyph-name="Uhungarumlaut" unicode="&#x170;" horiz-adv-x="742" 
d="M663 697l1 -486q0 -129 -72.5 -177t-220.5 -48t-220.5 48t-72.5 177v486h133v-466q0 -70 35.5 -97t124.5 -27q88 0 124.5 26.5t36.5 97.5v466h131zM295 747h-85l91 129h109zM460 747h-86l91 129h109z" />
    <glyph glyph-name="uhungarumlaut" unicode="&#x171;" horiz-adv-x="583" 
d="M390 110v399h124v-480q-116 -44 -241 -44q-110 0 -158.5 53t-48.5 187v284h124v-271q0 -85 21.5 -113t86.5 -28q49 0 92 13zM213 568h-85l91 129h109zM378 568h-86l91 129h109z" />
    <glyph glyph-name="Uogonek" unicode="&#x172;" horiz-adv-x="742" 
d="M663 697l1 -486q0 -129 -72.5 -177t-220.5 -48t-220.5 48t-72.5 177v486h133v-466q0 -70 35.5 -97t124.5 -27q88 0 124.5 26.5t36.5 97.5v466h131zM425 12h39q-50 -30 -67 -52t-17 -52q0 -22 12.5 -31t47.5 -9q51 0 83 27l35 -63q-47 -35 -131 -35q-74 0 -103 21.5
t-29 67.5q0 42 33 75.5t97 50.5z" />
    <glyph glyph-name="uogonek" unicode="&#x173;" horiz-adv-x="583" 
d="M390 110v399h124v-480q-116 -44 -241 -44q-110 0 -158.5 53t-48.5 187v284h124v-271q0 -85 21.5 -113t86.5 -28q49 0 92 13zM412 12h39q-50 -30 -67 -52t-17 -52q0 -22 12.5 -31t47.5 -9q51 0 83 27l35 -63q-47 -35 -131 -35q-74 0 -103 21.5t-29 67.5q0 42 33 75.5
t97 50.5z" />
    <glyph glyph-name="Wcircumflex" unicode="&#x174;" horiz-adv-x="975" 
d="M493 478q-38 -185 -128 -478h-167q-111 447 -200 697h144q81 -243 150 -533q102 337 140 533h122q106 -380 137 -533q83 258 145 533h136q-87 -357 -202 -697h-168q-39 207 -109 478zM562 747l-72 78l-70 -78h-112l122 129h122l126 -129h-116z" />
    <glyph glyph-name="wcircumflex" unicode="&#x175;" horiz-adv-x="830" 
d="M415 341q-38 -170 -98 -341h-153q-78 281 -164 509h131q65 -174 116 -382q26 75 60 193.5t50 188.5h121q56 -167 103 -382q80 220 118 382h126q-74 -264 -174 -509h-154q-37 192 -82 341zM602 568h-117l-71 76l-69 -76h-113l122 129h122z" />
    <glyph glyph-name="Ycircumflex" unicode="&#x176;" horiz-adv-x="638" 
d="M134 697q89 -111 194 -266q112 150 184 266h160q-131 -197 -281 -396v-301h-132v300q-177 251 -297 397h172zM396 747l-72 78l-70 -78h-112l122 129h122l126 -129h-116z" />
    <glyph glyph-name="ycircumflex" unicode="&#x177;" horiz-adv-x="511" 
d="M180 -25q-83 299 -180 534h129q68 -170 126 -386q85 226 126 386h126q-72 -245 -193 -530q-42 -100 -79 -171h-138q37 66 83 167zM442 568h-117l-71 76l-69 -76h-113l122 129h122z" />
    <glyph glyph-name="Ydieresis" unicode="&#x178;" horiz-adv-x="638" 
d="M134 697q89 -111 194 -266q112 150 184 266h160q-131 -197 -281 -396v-301h-132v300q-177 251 -297 397h172zM221 864q35 0 47 -10.5t12 -45.5q0 -38 -12 -49.5t-47 -11.5t-47.5 11.5t-12.5 49.5q0 35 12.5 45.5t47.5 10.5zM434 864q35 0 47 -10.5t12 -45.5
q0 -38 -12 -49.5t-47 -11.5q-36 0 -48 11.5t-12 49.5q0 35 12 45.5t48 10.5z" />
    <glyph glyph-name="Zacute" unicode="&#x179;" horiz-adv-x="621" 
d="M17 0v32q184 250 382 551h-360v114h565v-30q-80 -129 -193 -293t-189 -260h375v-114h-580zM325 747h-108l129 129h137z" />
    <glyph glyph-name="zacute" unicode="&#x17a;" horiz-adv-x="497" 
d="M35 509h439v-25q-53 -85 -131.5 -197.5t-130.5 -178.5h255v-108h-449v25q70 88 148 199.5t118 176.5h-249v108zM285 568h-109l121 129h133z" />
    <glyph glyph-name="Zdotaccent" unicode="&#x17b;" horiz-adv-x="621" 
d="M17 0v32q184 250 382 551h-360v114h565v-30q-80 -129 -193 -293t-189 -260h375v-114h-580zM317 867q35 0 47.5 -10.5t12.5 -45.5q0 -38 -12.5 -49.5t-47.5 -11.5t-47 11.5t-12 49.5q0 35 12 45.5t47 10.5z" />
    <glyph glyph-name="zdotaccent" unicode="&#x17c;" horiz-adv-x="497" 
d="M35 509h439v-25q-53 -85 -131.5 -197.5t-130.5 -178.5h255v-108h-449v25q70 88 148 199.5t118 176.5h-249v108zM253 681q35 0 47.5 -10t12.5 -45q0 -38 -12.5 -50t-47.5 -12t-47 11.5t-12 50.5q0 35 12 45t47 10z" />
    <glyph glyph-name="Zcaron" unicode="&#x17d;" horiz-adv-x="621" 
d="M17 0v32q184 250 382 551h-360v114h565v-30q-80 -129 -193 -293t-189 -260h375v-114h-580zM256 876l73 -78l70 78h112l-122 -129h-122l-126 129h115z" />
    <glyph glyph-name="zcaron" unicode="&#x17e;" horiz-adv-x="497" 
d="M35 509h439v-25q-53 -85 -131.5 -197.5t-130.5 -178.5h255v-108h-449v25q70 88 148 199.5t118 176.5h-249v108zM67 697h117l71 -76l69 76h113l-122 -129h-122z" />
    <glyph glyph-name="florin" unicode="&#x192;" horiz-adv-x="376" 
d="M251 536v-27h170l-14 -107h-170l-32 -416q-19 -189 -215 -189q-80 0 -146 24l36 96q48 -20 103 -20q92 0 98 89l32 416h-90l14 107h90l2 34q3 54 21 91t47.5 56t61 26.5t71.5 7.5q82 0 143 -22l-40 -98q-40 14 -95 14q-40 0 -62 -18t-25 -64z" />
    <glyph glyph-name="Scommaaccent" unicode="&#x218;" horiz-adv-x="622" 
d="M559 683l-29 -114q-70 25 -184 25q-85 0 -121 -20.5t-36 -70.5q0 -42 30.5 -61t122.5 -28q123 -13 178.5 -62t55.5 -147q0 -120 -72.5 -169.5t-228.5 -49.5q-126 0 -217 31l29 114q79 -25 186 -25q86 0 123.5 20t37.5 72q0 43 -32.5 66t-126.5 31q-119 12 -172.5 55
t-53.5 137q0 120 73.5 173.5t223.5 53.5q118 0 213 -31zM398 -51l-108 -167h-97l71 167h134z" />
    <glyph glyph-name="scommaaccent" unicode="&#x219;" horiz-adv-x="491" 
d="M434 496l-27 -97q-74 24 -148 24q-51 0 -71.5 -11t-20.5 -48q0 -26 21.5 -37.5t83.5 -17.5q95 -10 136 -44t41 -109q0 -94 -56 -132t-162 -38t-182 27l26 98q68 -24 151 -24q55 0 77.5 12t22.5 50q0 28 -22.5 41.5t-86.5 19.5q-89 7 -130.5 38.5t-41.5 106.5
q0 93 56.5 131t161.5 38q87 0 171 -28zM330 -51l-108 -167h-97l71 167h134z" />
    <glyph glyph-name="circumflex" unicode="&#x2c6;" horiz-adv-x="660" 
d="M527 568h-117l-71 76l-69 -76h-113l122 129h122z" />
    <glyph glyph-name="caron" unicode="&#x2c7;" horiz-adv-x="654" 
d="M157 697h117l71 -76l69 76h113l-122 -129h-122z" />
    <glyph glyph-name="breve" unicode="&#x2d8;" horiz-adv-x="524" 
d="M94 697h85q0 -34 15.5 -46t50.5 -12t51 12.5t16 45.5h80q0 -137 -150 -137q-148 0 -148 137z" />
    <glyph glyph-name="dotaccent" unicode="&#x2d9;" horiz-adv-x="462" 
d="M186 681q35 0 47.5 -10t12.5 -45q0 -38 -12.5 -50t-47.5 -12t-47 11.5t-12 50.5q0 35 12 45t47 10z" />
    <glyph glyph-name="ring" unicode="&#x2da;" horiz-adv-x="714" 
d="M360 741q61 0 90 -22.5t29 -75.5t-28.5 -75.5t-90.5 -22.5t-91 22.5t-29 75.5t28 75.5t92 22.5zM360 684q-30 0 -40 -9.5t-10 -33.5q0 -23 10.5 -33t39.5 -10t39.5 10t10.5 33q0 24 -10 33.5t-40 9.5z" />
    <glyph glyph-name="ogonek" unicode="&#x2db;" horiz-adv-x="641" 
d="M443 12h39q-50 -30 -67 -52t-17 -52q0 -22 12.5 -31t47.5 -9q51 0 83 27l35 -63q-47 -35 -131 -35q-74 0 -103 21.5t-29 67.5q0 42 33 75.5t97 50.5z" />
    <glyph glyph-name="tilde" unicode="&#x2dc;" horiz-adv-x="715" 
d="M446 702l62 -50q-33 -93 -117 -93q-31 0 -74.5 26.5t-66.5 26.5q-31 0 -52 -51l-56 55q46 81 109 81q37 0 79 -26.5t63 -26.5q18 0 29.5 12.5t23.5 45.5z" />
    <glyph glyph-name="hungarumlaut" unicode="&#x2dd;" horiz-adv-x="550" 
d="M248 568h-85l91 129h109zM413 568h-86l91 129h109z" />
    <glyph glyph-name="Delta" unicode="&#x394;" horiz-adv-x="648" 
d="M658 0h-676q106 346 255 697h169q126 -411 252 -697zM313 563q-78 -188 -159 -449h313q-94 245 -154 449z" />
    <glyph glyph-name="Delta" unicode="&#x2206;" horiz-adv-x="648" 
d="M658 0h-676q106 346 255 697h169q126 -411 252 -697zM313 563q-78 -188 -159 -449h313q-94 245 -154 449z" />
    <glyph glyph-name="Omega" unicode="&#x3a9;" horiz-adv-x="798" 
d="M15 0v118h158q-44 30 -70 105.5t-26 171.5q0 177 78 248t244 71q165 0 243 -71t78 -248q0 -96 -26 -171.5t-70 -105.5h159v-118h-321v112q69 20 94 87.5t25 193.5q0 123 -36.5 162.5t-145.5 39.5t-146 -39.5t-37 -162.5q0 -125 25 -192.5t93 -87.5v-113h-319z" />
    <glyph glyph-name="Omega" unicode="&#x2126;" horiz-adv-x="798" 
d="M15 0v118h158q-44 30 -70 105.5t-26 171.5q0 177 78 248t244 71q165 0 243 -71t78 -248q0 -96 -26 -171.5t-70 -105.5h159v-118h-321v112q69 20 94 87.5t25 193.5q0 123 -36.5 162.5t-145.5 39.5t-146 -39.5t-37 -162.5q0 -125 25 -192.5t93 -87.5v-113h-319z" />
    <glyph glyph-name="pi" unicode="&#x3c0;" horiz-adv-x="635" 
d="M25 391v118h585v-118h-82v-391h-124v391h-176v-269q0 -121 -80 -162l-79 84q35 19 35 76v271h-79z" />
    <glyph glyph-name="afii10023" unicode="&#x401;" horiz-adv-x="620" 
d="M88 697h506v-114h-374v-161h267v-113h-267v-195h374v-114h-506v697zM229 864q35 0 47 -10.5t12 -45.5q0 -38 -12 -49.5t-47 -11.5t-47.5 11.5t-12.5 49.5q0 35 12.5 45.5t47.5 10.5zM442 864q35 0 47 -10.5t12 -45.5q0 -38 -12 -49.5t-47 -11.5q-36 0 -48 11.5t-12 49.5
q0 35 12 45.5t48 10.5z" />
    <glyph glyph-name="afii10051" unicode="&#x402;" horiz-adv-x="754" 
d="M606 583h-235v-134q66 35 140 35q50 0 83 -11t59 -41.5t37.5 -87.5t11.5 -146q0 -297 -159 -381l-87 85q27 15 44 31t35 47.5t27 84.5t9 129q0 78 -10.5 116t-31 50t-61.5 12q-39 0 -67.5 -11.5t-29.5 -30.5v-330h-133v583h-235v114h603v-114z" />
    <glyph glyph-name="afii10052" unicode="&#x403;" horiz-adv-x="551" 
d="M220 0h-132v697h471v-114h-339v-583zM338 747h-109l129 129h137z" />
    <glyph glyph-name="afii10053" unicode="&#x404;" horiz-adv-x="616" 
d="M495 310h-298q3 -64 16 -104.5t41 -62t63 -29t91 -7.5q92 0 153 22l29 -118q-90 -25 -205 -25q-173 0 -252.5 81.5t-79.5 287.5q0 106 20 176.5t63.5 110.5t102.5 56t146 16q111 0 205 -26l-29 -116q-61 22 -153 22q-55 0 -88 -5.5t-61 -23.5t-42 -52.5t-19 -90.5h297
v-112z" />
    <glyph glyph-name="afii10054" unicode="&#x405;" horiz-adv-x="622" 
d="M559 683l-29 -114q-70 25 -184 25q-85 0 -121 -20.5t-36 -70.5q0 -42 30.5 -61t122.5 -28q123 -13 178.5 -62t55.5 -147q0 -120 -72.5 -169.5t-228.5 -49.5q-126 0 -217 31l29 114q79 -25 186 -25q86 0 123.5 20t37.5 72q0 43 -32.5 66t-126.5 31q-119 12 -172.5 55
t-53.5 137q0 120 73.5 173.5t223.5 53.5q118 0 213 -31z" />
    <glyph glyph-name="afii10055" unicode="&#x406;" horiz-adv-x="308" 
d="M88 697h132v-697h-132v697z" />
    <glyph glyph-name="afii10056" unicode="&#x407;" horiz-adv-x="308" 
d="M88 697h132v-697h-132v697zM47 864q35 0 47 -10.5t12 -45.5q0 -38 -12 -49.5t-47 -11.5t-47.5 11.5t-12.5 49.5q0 35 12.5 45.5t47.5 10.5zM260 864q35 0 47 -10.5t12 -45.5q0 -38 -12 -49.5t-47 -11.5q-36 0 -48 11.5t-12 49.5q0 35 12 45.5t48 10.5z" />
    <glyph glyph-name="afii10057" unicode="&#x408;" horiz-adv-x="461" 
d="M375 697l1 -505q0 -206 -212 -206q-84 0 -158 27l26 118q53 -21 119 -21q91 0 91 99v488h133z" />
    <glyph glyph-name="afii10058" unicode="&#x409;" horiz-adv-x="1068" 
d="M489 578h-196q-23 -291 -123 -578h-139q128 389 141 697h449v-250h223q97 0 142 -60.5t45 -162.5q0 -224 -181 -224h-361v578zM810 340h-189v-229h192q75 0 75 113q0 116 -78 116z" />
    <glyph glyph-name="afii10059" unicode="&#x40a;" horiz-adv-x="1076" 
d="M220 333v-333h-132v697h132v-253h278v253h131v-254h223q97 0 142 -60t45 -162q0 -221 -181 -221h-360v333h-278zM818 333h-189v-222h192q39 0 57 27t18 83q0 112 -78 112z" />
    <glyph glyph-name="afii10060" unicode="&#x40b;" horiz-adv-x="760" 
d="M695 253v-253h-124v243q0 77 -24 103t-79 26q-39 0 -67.5 -11.5t-29.5 -30.5v-330h-133v583h-235v114h603v-114h-235v-134q66 35 140 35q64 0 101.5 -17.5t60 -69t22.5 -144.5z" />
    <glyph glyph-name="afii10061" unicode="&#x40c;" horiz-adv-x="664" 
d="M670 0h-157q-49 131 -94 202t-89 97t-110 32v-331h-132v697h132v-336q51 49 126.5 140.5t146.5 195.5h160q-88 -124 -156 -206t-99 -107q29 -10 49 -21t47.5 -37t52.5 -65t56.5 -104.5t66.5 -156.5zM385 747h-108l129 129h137z" />
    <glyph glyph-name="afii10062" unicode="&#x40e;" horiz-adv-x="584" 
d="M232 176q-42 114 -113.5 266t-133.5 255h157q102 -185 173 -377q113 230 164 377h149q-67 -171 -162.5 -363.5t-182.5 -333.5q-111 0 -166 -1q58 78 115 177zM169 871h85q0 -34 15.5 -46t51.5 -12q31 0 49 13t17 45h80q0 -137 -149 -137t-149 137z" />
    <glyph glyph-name="afii10145" unicode="&#x40f;" horiz-adv-x="736" 
d="M649 0h-213l-21 -188h-88l-21 188h-217v697h132v-578h298v578h130v-697z" />
    <glyph glyph-name="afii10017" unicode="&#x410;" horiz-adv-x="682" 
d="M555 0q-44 110 -67 174h-305q-23 -71 -54 -174h-138q107 341 252 697h207q128 -403 251 -697h-146zM353 585h-27q-49 -127 -108 -298h232q-54 153 -97 298z" />
    <glyph glyph-name="afii10018" unicode="&#x411;" horiz-adv-x="711" 
d="M220 111h220q67 0 67 98q0 103 -71 103h-216v-201zM590 697v-114h-370v-164h243q186 0 186 -212q0 -110 -46 -158.5t-134 -48.5h-381v697h502z" />
    <glyph glyph-name="afii10019" unicode="&#x412;" horiz-adv-x="712" 
d="M220 111h220q67 0 67 98q0 103 -71 103h-216v-201zM220 585v-166h214q60 0 60 84q0 43 -13.5 62.5t-46.5 19.5h-214zM489 369q93 -4 126.5 -48t33.5 -130q0 -191 -180 -191h-381v697h375q98 0 134.5 -41.5t36.5 -125.5q0 -77 -29 -115t-116 -46z" />
    <glyph glyph-name="afii10020" unicode="&#x413;" horiz-adv-x="544" 
d="M220 0h-132v697h471v-114h-339v-583z" />
    <glyph glyph-name="afii10021" unicode="&#x414;" horiz-adv-x="802" 
d="M678 697v-578h124l-21 -273h-116v154h-523v-154h-116l-22 273h110q91 256 104 578h460zM547 119v464h-208q-19 -271 -82 -464h290z" />
    <glyph glyph-name="afii10022" unicode="&#x415;" horiz-adv-x="620" 
d="M88 697h506v-114h-374v-161h267v-113h-267v-195h374v-114h-506v697z" />
    <glyph glyph-name="afii10024" unicode="&#x416;" horiz-adv-x="955" 
d="M146 0h-152q39 113 73 186.5t65 112.5t54.5 56t57.5 29q-64 56 -235 313h156q130 -207 246 -332v332h132v-332q120 131 247 332h155q-166 -252 -234 -313q45 -17 75.5 -43t76.5 -109.5t98 -231.5h-153q-46 132 -86 202t-80 97t-99 33v-332h-132v332q-89 -9 -144 -75
t-121 -257z" />
    <glyph glyph-name="afii10025" unicode="&#x417;" horiz-adv-x="642" 
d="M193 310v112h111q67 0 93 19t26 70q0 49 -32.5 67t-127.5 18q-110 0 -183 -22l-26 114q122 26 235 26q151 0 212.5 -41t61.5 -137q0 -77 -30 -118t-117 -49q93 -4 128 -49.5t35 -131.5q0 -111 -69 -156.5t-221 -45.5q-127 0 -239 25l25 115q74 -21 188 -21q99 0 136 22
t37 79q0 58 -30 81t-99 23h-114z" />
    <glyph glyph-name="afii10026" unicode="&#x418;" horiz-adv-x="774" 
d="M685 697v-697h-129v504q-153 -282 -295 -504h-173v697h130v-526q184 296 308 526h159z" />
    <glyph glyph-name="afii10027" unicode="&#x419;" horiz-adv-x="774" 
d="M685 697v-697h-129v504q-153 -282 -295 -504h-173v697h130v-526q184 296 308 526h159zM238 871h85q0 -34 15.5 -46t50.5 -12t51 12.5t16 45.5h80q0 -137 -150 -137q-148 0 -148 137z" />
    <glyph glyph-name="afii10028" unicode="&#x41a;" horiz-adv-x="664" 
d="M670 0h-157q-49 131 -94 202t-89 97t-110 32v-331h-132v697h132v-336q51 49 126.5 140.5t146.5 195.5h160q-88 -124 -156 -206t-99 -107q29 -10 49 -21t47.5 -37t52.5 -65t56.5 -104.5t66.5 -156.5z" />
    <glyph glyph-name="afii10029" unicode="&#x41b;" horiz-adv-x="728" 
d="M510 583h-217q-23 -297 -123 -583h-139q128 389 141 697h468v-697h-130v583z" />
    <glyph glyph-name="afii10030" unicode="&#x41c;" horiz-adv-x="916" 
d="M464 251q81 215 193 446h171v-697h-129v519q-82 -180 -194 -455h-103q-130 330 -187 455v-519h-127v697h180q100 -206 196 -446z" />
    <glyph glyph-name="afii10031" unicode="&#x41d;" horiz-adv-x="736" 
d="M220 309v-309h-132v697h132v-266h298v266h130v-697h-130v309h-298z" />
    <glyph glyph-name="afii10032" unicode="&#x41e;" horiz-adv-x="770" 
d="M385 714q87 0 146 -16.5t102 -56.5t63 -110.5t20 -175.5q0 -107 -20 -179t-63 -113.5t-102.5 -59t-145.5 -17.5q-87 0 -146.5 17.5t-102.5 59t-63 113.5t-20 179q0 105 20 175.5t63.5 110.5t102.5 56.5t146 16.5zM385 105q48 0 78.5 6t54 20.5t35.5 43.5t17.5 71t5.5 107
q0 81 -7.5 127t-31 72.5t-57.5 34.5t-95 8t-95 -8t-57.5 -34.5t-31 -72.5t-7.5 -127q0 -65 5.5 -107t17.5 -71t35.5 -43.5t54 -20.5t78.5 -6z" />
    <glyph glyph-name="afii10033" unicode="&#x41f;" horiz-adv-x="736" 
d="M220 583v-583h-132v697h560v-697h-130v583h-298z" />
    <glyph glyph-name="afii10034" unicode="&#x420;" horiz-adv-x="673" 
d="M220 340h194q86 0 86 119q0 126 -83 126h-197v-245zM220 0h-132v697h363q194 0 194 -239q0 -98 -48 -163t-143 -65h-234v-230z" />
    <glyph glyph-name="afii10035" unicode="&#x421;" horiz-adv-x="592" 
d="M53 355q0 106 19.5 176t62 110.5t100.5 56.5t145 16q106 0 200 -26l-29 -116q-61 22 -148 22q-63 0 -98 -7.5t-62.5 -32.5t-38 -72.5t-10.5 -127.5t10.5 -128.5t37.5 -75t63 -35t98 -8.5q87 0 148 22l29 -118q-90 -25 -200 -25q-115 0 -184 32.5t-106 114.5t-37 222z" />
    <glyph glyph-name="afii10036" unicode="&#x422;" horiz-adv-x="609" 
d="M371 0h-133v583h-235v114h603v-114h-235v-583z" />
    <glyph glyph-name="afii10037" unicode="&#x423;" horiz-adv-x="613" 
d="M315 320q113 230 164 377h149q-67 -171 -162.5 -363.5t-182.5 -333.5h-166q66 88 116 177q-37 102 -112 261t-136 259h157q102 -185 173 -377z" />
    <glyph glyph-name="afii10038" unicode="&#x424;" horiz-adv-x="799" 
d="M326 697h131v-87q170 -8 234.5 -67.5t64.5 -192.5q0 -134 -64.5 -193.5t-234.5 -67.5v-89h-131v89q-167 8 -228.5 67.5t-61.5 193.5t61.5 193t228.5 67v87zM622 349q0 87 -30.5 118.5t-134.5 34.5v-305q54 2 86.5 10t50 28t23 45.5t5.5 68.5zM168 349q0 -84 30 -116
t128 -36v304q-99 -4 -128.5 -35.5t-29.5 -116.5z" />
    <glyph glyph-name="afii10039" unicode="&#x425;" horiz-adv-x="674" 
d="M169 697q74 -95 175 -230q97 135 160 230h162q-105 -154 -241 -342q179 -248 252 -355h-164q-98 141 -170 241q-127 -167 -185 -241h-162q102 127 266 352q-162 218 -262 345h169z" />
    <glyph glyph-name="afii10040" unicode="&#x426;" horiz-adv-x="773" 
d="M220 697v-578h298v578h130v-578h125l-22 -273h-115v154h-548v697h132z" />
    <glyph glyph-name="afii10041" unicode="&#x427;" horiz-adv-x="667" 
d="M447 379v318h132v-697h-132v224q-56 -32 -170 -32q-60 0 -102.5 10t-78 36t-53.5 75.5t-18 123.5v260h132v-251q0 -79 31.5 -105t114.5 -26q67 0 105.5 16.5t38.5 47.5z" />
    <glyph glyph-name="afii10042" unicode="&#x428;" horiz-adv-x="974" 
d="M886 697v-697h-798v697h132v-578h202v578h131v-578h202v578h131z" />
    <glyph glyph-name="afii10043" unicode="&#x429;" horiz-adv-x="1010" 
d="M220 697v-578h202v578h131v-578h202v578h131v-578h124l-21 -273h-116v154h-785v697h132z" />
    <glyph glyph-name="afii10044" unicode="&#x42a;" horiz-adv-x="721" 
d="M17 697h237v-248h243q97 0 142 -61.5t45 -163.5t-44 -163t-137 -61h-381v583h-105v114zM254 111h212q75 0 75 113q0 115 -78 115h-209v-228z" />
    <glyph glyph-name="afii10045" unicode="&#x42b;" horiz-adv-x="935" 
d="M220 111h212q75 0 75 113q0 115 -78 115h-209v-228zM88 697h132v-248h243q97 0 142 -61.5t45 -163.5q0 -224 -181 -224h-381v697zM715 697h132v-697h-132v697z" />
    <glyph glyph-name="afii10046" unicode="&#x42c;" horiz-adv-x="687" 
d="M220 111h212q75 0 75 113q0 115 -78 115h-209v-228zM88 697h132v-248h243q97 0 142 -61.5t45 -163.5q0 -224 -181 -224h-381v697z" />
    <glyph glyph-name="afii10047" unicode="&#x42d;" horiz-adv-x="616" 
d="M419 310h-298v112h297q-5 56 -19 90.5t-42 52.5t-61 23.5t-88 5.5q-92 0 -153 -22l-29 116q94 26 205 26q87 0 146 -16t102.5 -56t63.5 -110.5t20 -176.5q0 -206 -79.5 -287.5t-252.5 -81.5q-115 0 -205 25l29 118q61 -22 153 -22q56 0 91 7.5t63 29t41 62t16 104.5z" />
    <glyph glyph-name="afii10048" unicode="&#x42e;" horiz-adv-x="966" 
d="M643 714q92 0 148.5 -29.5t89 -109t32.5 -217.5q0 -106 -17.5 -178.5t-53 -115t-83.5 -60.5t-116 -18q-128 0 -195.5 73t-74.5 250h-153v-309h-132v697h132v-266h154q11 158 77.5 220.5t191.5 62.5zM643 105q80 0 107 49t27 204q0 65 -4.5 106.5t-12.5 68.5t-25 40.5
t-37.5 18.5t-54.5 5q-33 0 -53 -5t-37.5 -18.5t-26.5 -40.5t-13.5 -69t-4.5 -106q0 -105 13.5 -159.5t41 -74t80.5 -19.5z" />
    <glyph glyph-name="afii10049" unicode="&#x42f;" horiz-adv-x="706" 
d="M486 375v210h-200q-78 0 -78 -108q0 -102 81 -102h197zM244 305q-183 7 -183 189q0 203 194 203h363v-697h-132v266h-111q-44 0 -72 -18t-59 -76.5t-65 -171.5h-152q44 125 79 189.5t64 86.5t74 29z" />
    <glyph glyph-name="afii10065" unicode="&#x430;" horiz-adv-x="560" 
d="M494 326v-300q-102 -40 -230 -40q-122 0 -168.5 35.5t-46.5 134.5q0 100 49.5 133.5t150.5 33.5q59 0 126 -14q0 67 -24 88t-103 21q-90 0 -154 -23l-23 102q102 27 203 27q117 0 168.5 -43.5t51.5 -154.5zM375 98v127q-42 9 -101 9q-56 0 -75.5 -13t-19.5 -60
q0 -51 18 -65.5t76 -14.5q53 0 102 17z" />
    <glyph glyph-name="afii10066" unicode="&#x431;" horiz-adv-x="575" 
d="M180 245q0 -89 24 -123t78 -34q46 0 68.5 10t34 44t11.5 103q0 90 -23 120t-84 30q-66 0 -87.5 -30.5t-21.5 -119.5zM179 442q44 60 138 60q105 0 155.5 -55.5t50.5 -199.5q0 -148 -57 -204.5t-187 -56.5q-57 0 -96 13t-69.5 46.5t-45 95t-14.5 153.5q0 100 9 168t26 112
t49.5 69t69.5 35.5t96 15.5q122 10 191 39v-110q-51 -23 -185 -35q-72 -6 -96.5 -38t-34.5 -108z" />
    <glyph glyph-name="afii10067" unicode="&#x432;" horiz-adv-x="580" 
d="M193 96h152q29 0 42 13.5t13 44.5q0 66 -58 66h-149v-124zM193 413v-102h147q26 0 37.5 12.5t11.5 39.5q0 29 -11 39.5t-38 10.5h-147zM402 270q72 -2 100 -35.5t28 -95.5q0 -139 -150 -139h-311v509h307q81 0 111.5 -30.5t30.5 -91.5q0 -55 -24 -83.5t-92 -33.5z" />
    <glyph glyph-name="afii10068" unicode="&#x433;" horiz-adv-x="424" 
d="M193 401v-401h-124v509h354v-108h-230z" />
    <glyph glyph-name="afii10069" unicode="&#x434;" horiz-adv-x="649" 
d="M166 509h380v-401h98l-29 -249h-99v141h-384v-141h-100l-28 249h91q60 209 71 401zM422 401h-143q-10 -128 -54 -293h197v293z" />
    <glyph glyph-name="afii10070" unicode="&#x435;" horiz-adv-x="552" 
d="M456 112l20 -98q-84 -28 -178 -28q-119 0 -183 61.5t-64 209.5q0 146 59.5 206.5t177.5 60.5q64 0 104.5 -12.5t69.5 -46t40 -92.5t8 -151h-329q1 -78 31 -104.5t101 -26.5q73 0 143 21zM295 426q-59 0 -83 -23t-30 -86h214q-3 66 -24.5 87.5t-76.5 21.5z" />
    <glyph glyph-name="afii10072" unicode="&#x436;" horiz-adv-x="799" 
d="M144 0h-142q46 105 85 166t60.5 79t51.5 30q-23 19 -74 81.5t-111 152.5h143q108 -156 180 -242v242h124v-242q70 82 181 242h143q-62 -90 -112.5 -152.5t-72.5 -81.5q22 -9 38 -20.5t40.5 -39.5t53.5 -81.5t64 -133.5h-141q-55 121 -101 172t-93 64v-236h-124v236
q-47 -13 -93 -64t-100 -172z" />
    <glyph glyph-name="afii10073" unicode="&#x437;" horiz-adv-x="516" 
d="M148 222v93h78q56 0 77.5 10.5t21.5 40.5q0 29 -22.5 40.5t-85.5 11.5q-87 0 -156 -22l-26 108q87 20 184 20q133 0 184.5 -29t51.5 -102q0 -57 -26.5 -87.5t-95.5 -36.5q73 -4 104 -38t31 -96q0 -85 -56.5 -117t-192.5 -32q-104 0 -188 19l26 111q69 -24 160 -24
q71 0 95 14.5t24 52.5q0 35 -25.5 49t-84.5 14h-78z" />
    <glyph glyph-name="afii10074" unicode="&#x438;" horiz-adv-x="593" 
d="M400 0v311q-84 -152 -207 -311h-124v509h124v-324q87 110 207 324h124v-509h-124z" />
    <glyph glyph-name="afii10075" unicode="&#x439;" horiz-adv-x="593" 
d="M400 0v311q-84 -152 -207 -311h-124v509h124v-324q87 110 207 324h124v-509h-124zM147 697h85q0 -34 15.5 -46t51.5 -12q31 0 49 13t17 45h80q0 -137 -149 -137t-149 137z" />
    <glyph glyph-name="afii10076" unicode="&#x43a;" horiz-adv-x="551" 
d="M549 0h-145q-60 126 -108 175t-103 61v-236h-124v509h124v-245q74 81 197 245h147q-146 -196 -193 -233q30 -12 52.5 -30.5t62 -79t90.5 -166.5z" />
    <glyph glyph-name="afii10077" unicode="&#x43b;" horiz-adv-x="572" 
d="M378 401h-138q-17 -210 -77 -401h-130q74 238 89 509h380v-509h-124v401z" />
    <glyph glyph-name="afii10078" unicode="&#x43c;" horiz-adv-x="753" 
d="M382 206q59 155 129 303h173v-509h-123v371q-67 -145 -140 -341h-93q-85 231 -136 341v-371h-123v509h181q59 -123 132 -303z" />
    <glyph glyph-name="afii10079" unicode="&#x43d;" horiz-adv-x="587" 
d="M393 216h-200v-216h-124v509h124v-187h200v187h124v-509h-124v216z" />
    <glyph glyph-name="afii10080" unicode="&#x43e;" 
d="M293 -14q-127 0 -184.5 59.5t-57.5 211.5q0 150 58 208.5t184 58.5q128 0 186 -58.5t58 -208.5q0 -152 -58 -211.5t-186 -59.5zM293 423q-68 0 -91 -31t-23 -137q0 -103 23.5 -135.5t90.5 -32.5q69 0 92.5 32.5t23.5 135.5q0 73 -11 109t-34 47.5t-71 11.5z" />
    <glyph glyph-name="afii10081" unicode="&#x43f;" horiz-adv-x="587" 
d="M193 401v-401h-124v509h448v-509h-124v401h-200z" />
    <glyph glyph-name="afii10082" unicode="&#x440;" 
d="M193 402v-262q0 -22 29 -35.5t71 -13.5q66 0 91 34t25 127q0 102 -24.5 133.5t-92.5 31.5q-60 0 -99 -15zM69 -192v678q91 38 223 38q130 0 187 -58.5t57 -210.5q0 -148 -56 -208.5t-165 -60.5q-64 0 -122 29v-207h-124z" />
    <glyph glyph-name="afii10083" unicode="&#x441;" horiz-adv-x="470" 
d="M430 118l28 -106q-65 -26 -155 -26q-124 0 -188 61t-64 210q0 148 64 207.5t188 59.5q90 0 155 -24l-28 -106q-59 22 -118 22q-49 0 -75.5 -10.5t-42 -46t-15.5 -104.5q0 -96 30.5 -128.5t102.5 -32.5q59 0 118 24z" />
    <glyph glyph-name="afii10084" unicode="&#x442;" horiz-adv-x="485" 
d="M304 401v-401h-124v401h-175v108h475v-108h-176z" />
    <glyph glyph-name="afii10085" unicode="&#x443;" horiz-adv-x="511" 
d="M180 -25q-83 299 -180 534h129q68 -170 126 -386q85 226 126 386h126q-72 -245 -193 -530q-42 -100 -79 -171h-138q37 66 83 167z" />
    <glyph glyph-name="afii10086" unicode="&#x444;" horiz-adv-x="840" 
d="M358 514v195h124v-195q47 10 82 10q122 0 173 -58.5t51 -210.5q0 -148 -50.5 -208.5t-150.5 -60.5q-61 0 -105 29v-207h-124v207q-46 -29 -105 -29q-101 0 -151 60.5t-50 208.5q0 152 51 210.5t173 58.5q34 0 82 -10zM275 91q37 0 60 13t23 35v265q-38 13 -82 13
q-58 0 -80 -32t-22 -133q0 -92 23 -126.5t78 -34.5zM565 91q54 0 77.5 34.5t23.5 126.5q0 101 -22 133t-80 32q-46 0 -82 -13v-267q1 -22 23.5 -34t59.5 -12z" />
    <glyph glyph-name="afii10087" unicode="&#x445;" horiz-adv-x="521" 
d="M516 0h-140q-37 61 -107 161q-64 -87 -125 -161h-138q77 90 198 254q-113 157 -197 255h148q53 -66 117 -156q40 55 105 156h138q-75 -113 -175 -251q98 -138 176 -258z" />
    <glyph glyph-name="afii10088" unicode="&#x446;" horiz-adv-x="636" 
d="M517 108h114l-29 -249h-100v141h-433v509h124v-401h200v401h124v-401z" />
    <glyph glyph-name="afii10089" unicode="&#x447;" horiz-adv-x="556" 
d="M38 385v124h124v-114q0 -77 24 -103t79 -26q40 0 68.5 12t28.5 33v198h124v-509h-124v189q-66 -35 -140 -35q-64 0 -101.5 17.5t-60 69t-22.5 144.5z" />
    <glyph glyph-name="afii10090" unicode="&#x448;" horiz-adv-x="858" 
d="M788 509v-509h-719v509h124v-401h174v401h124v-401h173v401h124z" />
    <glyph glyph-name="afii10091" unicode="&#x449;" horiz-adv-x="907" 
d="M773 -141v141h-704v509h124v-401h174v401h124v-401h173v401h124v-401h114q-5 -42 -14.5 -125t-14.5 -124h-100z" />
    <glyph glyph-name="afii10092" unicode="&#x44a;" horiz-adv-x="611" 
d="M227 325h179q158 0 158 -161q0 -88 -39 -126t-119 -38h-303v401h-98v108h222v-184zM227 92h150q57 0 57 70q0 36 -14.5 51.5t-44.5 15.5h-148v-137z" />
    <glyph glyph-name="afii10093" unicode="&#x44b;" horiz-adv-x="776" 
d="M343 92q57 0 57 70q0 36 -14.5 51.5t-44.5 15.5h-148v-137h150zM193 325h179q158 0 158 -161q0 -88 -39 -126t-119 -38h-303v509h124v-184zM707 509v-509h-124v509h124z" />
    <glyph glyph-name="afii10094" unicode="&#x44c;" horiz-adv-x="577" 
d="M343 92q57 0 57 70q0 36 -14.5 51.5t-44.5 15.5h-148v-137h150zM193 325h179q158 0 158 -161q0 -88 -39 -126t-119 -38h-303v509h124v-184z" />
    <glyph glyph-name="afii10095" unicode="&#x44d;" horiz-adv-x="481" 
d="M24 12l27 99q52 -21 120 -21q63 0 94 28t35 104h-203v95h201q-8 60 -38 81t-89 21q-73 0 -120 -19l-27 100q65 24 155 24q121 0 186 -60t65 -207q0 -148 -65 -209.5t-186 -61.5q-90 0 -155 26z" />
    <glyph glyph-name="afii10096" unicode="&#x44e;" horiz-adv-x="848" 
d="M558 -14q-114 0 -170.5 51t-64.5 179h-130v-216h-124v509h124v-187h131q12 112 68.5 157t165.5 45q124 0 181.5 -58.5t57.5 -208.5q0 -151 -57.5 -211t-181.5 -60zM558 424q-64 0 -87 -31.5t-23 -137.5q0 -103 23 -136t87 -33q65 0 88.5 33t23.5 136q0 106 -23 137.5
t-89 31.5z" />
    <glyph glyph-name="afii10097" unicode="&#x44f;" horiz-adv-x="593" 
d="M400 279v130h-145q-30 0 -45 -14.5t-15 -49.5q0 -66 63 -66h142zM206 220q-76 3 -110.5 41.5t-34.5 98.5q0 149 161 149h302v-509h-124v181h-77q-52 0 -83.5 -34.5t-72.5 -146.5h-142q52 127 88.5 169.5t92.5 50.5z" />
    <glyph glyph-name="afii10071" unicode="&#x451;" horiz-adv-x="552" 
d="M456 112l20 -98q-84 -28 -178 -28q-119 0 -183 61.5t-64 209.5q0 146 59.5 206.5t177.5 60.5q64 0 104.5 -12.5t69.5 -46t40 -92.5t8 -151h-329q1 -78 31 -104.5t101 -26.5q73 0 143 21zM295 426q-59 0 -83 -23t-30 -86h214q-3 66 -24.5 87.5t-76.5 21.5zM182 681
q35 0 47.5 -10t12.5 -45q0 -38 -12.5 -50t-47.5 -12t-47 11.5t-12 50.5q0 35 12 45t47 10zM396 681q35 0 47 -10t12 -45q0 -38 -12.5 -50t-46.5 -12q-36 0 -48 11.5t-12 50.5q0 35 12 45t48 10z" />
    <glyph glyph-name="afii10099" unicode="&#x452;" horiz-adv-x="576" 
d="M193 581v-104q61 35 140 35q51 0 84 -11.5t59 -43t37.5 -89.5t11.5 -147q0 -169 -47 -269.5t-112 -134.5l-88 85q53 29 84 99.5t31 215.5q0 78 -10.5 116.5t-30.5 50.5t-61 12q-39 0 -67.5 -11.5t-30.5 -31.5v-353h-124v581h-51v87h51v54h124v-54h103v-87h-103z" />
    <glyph glyph-name="afii10100" unicode="&#x453;" horiz-adv-x="424" 
d="M193 402v-402h-124v509h354v-107h-230zM270 568h-109l121 129h133z" />
    <glyph glyph-name="afii10101" unicode="&#x454;" horiz-adv-x="481" 
d="M430 111l27 -99q-65 -26 -154 -26q-122 0 -187 61.5t-65 209.5q0 147 65 207t186 60q90 0 155 -24l-27 -100q-47 19 -120 19q-59 0 -89 -21t-38 -81h201v-95h-203q4 -76 35 -104t94 -28q68 0 120 21z" />
    <glyph glyph-name="afii10102" unicode="&#x455;" horiz-adv-x="491" 
d="M434 496l-27 -97q-74 24 -148 24q-51 0 -71.5 -11t-20.5 -48q0 -26 21.5 -37.5t83.5 -17.5q95 -10 136 -44t41 -109q0 -94 -56 -132t-162 -38t-182 27l26 98q68 -24 151 -24q55 0 77.5 12t22.5 50q0 28 -22.5 41.5t-86.5 19.5q-89 7 -130.5 38.5t-41.5 106.5
q0 93 56.5 131t161.5 38q87 0 171 -28z" />
    <glyph glyph-name="afii10103" unicode="&#x456;" horiz-adv-x="262" 
d="M193 509v-509h-124v509h124zM132 721q42 0 56.5 -11.5t14.5 -49.5q0 -43 -14.5 -56t-56.5 -13q-43 0 -57.5 13t-14.5 56q0 38 14.5 49.5t57.5 11.5z" />
    <glyph glyph-name="afii10104" unicode="&#x457;" horiz-adv-x="262" 
d="M193 509v-509h-124v509h124zM24 681q35 0 47.5 -10t12.5 -45q0 -38 -12.5 -50t-47.5 -12t-47 11.5t-12 50.5q0 35 12 45t47 10zM238 681q35 0 47 -10t12 -45q0 -38 -12.5 -50t-46.5 -12q-36 0 -48 11.5t-12 50.5q0 35 12 45t48 10z" />
    <glyph glyph-name="afii10105" unicode="&#x458;" horiz-adv-x="262" 
d="M132 721q42 0 56.5 -11.5t14.5 -49.5q0 -43 -14.5 -56t-56.5 -13q-43 0 -57.5 13t-14.5 56q0 38 14.5 49.5t57.5 11.5zM-16 -203v103q44 0 64.5 18.5t20.5 67.5v523h124v-520q0 -109 -50 -150.5t-159 -41.5z" />
    <glyph glyph-name="afii10106" unicode="&#x459;" horiz-adv-x="886" 
d="M378 401h-138q-17 -210 -77 -401h-130q74 238 89 509h380v-184h179q158 0 158 -161q0 -88 -39 -126t-119 -38h-303v401zM502 92h150q57 0 57 70q0 36 -14.5 51.5t-44.5 15.5h-148v-137z" />
    <glyph glyph-name="afii10107" unicode="&#x45a;" horiz-adv-x="901" 
d="M517 325h179q158 0 158 -161q0 -88 -39 -126t-119 -38h-303v229h-200v-229h-124v509h124v-184h200v184h124v-184zM517 92h150q57 0 57 71q0 36 -14.5 51t-44.5 15h-148v-137z" />
    <glyph glyph-name="afii10108" unicode="&#x45b;" horiz-adv-x="583" 
d="M18 581v87h51v54h124v-54h103v-87h-103v-92q68 35 140 35q64 0 101.5 -17.5t60 -69t22.5 -144.5v-293h-124v283q0 77 -24 103t-78 26q-41 0 -69.5 -12t-28.5 -33v-367h-124v581h-51z" />
    <glyph glyph-name="afii10109" unicode="&#x45c;" horiz-adv-x="551" 
d="M549 0h-145q-60 126 -108 175t-103 61v-236h-124v509h124v-245q74 81 197 245h147q-146 -196 -193 -233q30 -12 52.5 -30.5t62 -79t90.5 -166.5zM323 568h-109l121 129h133z" />
    <glyph glyph-name="afii10110" unicode="&#x45e;" horiz-adv-x="511" 
d="M180 -25q-83 299 -180 534h129q68 -170 126 -386q85 226 126 386h126q-72 -245 -193 -530q-42 -100 -79 -171h-138q37 66 83 167zM107 699h85q0 -34 15.5 -46t50.5 -12t51 12.5t16 45.5h80q0 -137 -150 -137q-148 0 -148 137z" />
    <glyph glyph-name="afii10193" unicode="&#x45f;" horiz-adv-x="587" 
d="M193 509v-401h200v401h124v-509h-156l-21 -178h-88l-21 178h-162v509h124z" />
    <glyph glyph-name="afii10050" unicode="&#x490;" horiz-adv-x="544" 
d="M88 0v697h350l33 178h88v-292h-339v-583h-132z" />
    <glyph glyph-name="afii10098" unicode="&#x491;" horiz-adv-x="424" 
d="M423 401h-230v-401h-124v509h246l30 164h78v-272z" />
    <glyph glyph-name="endash" unicode="&#x2013;" horiz-adv-x="578" 
d="M49 222v118h480v-118h-480z" />
    <glyph glyph-name="emdash" unicode="&#x2014;" horiz-adv-x="865" 
d="M49 222v118h767v-118h-767z" />
    <glyph glyph-name="quoteleft" unicode="&#x2018;" horiz-adv-x="255" 
d="M24 505l109 262h100l-78 -262h-131z" />
    <glyph glyph-name="quoteright" unicode="&#x2019;" horiz-adv-x="255" 
d="M232 762l-109 -262h-100l78 262h131z" />
    <glyph glyph-name="quotesinglbase" unicode="&#x201a;" horiz-adv-x="245" 
d="M227 103l-109 -262h-100l78 262h131z" />
    <glyph glyph-name="quotedblleft" unicode="&#x201c;" horiz-adv-x="450" 
d="M24 505l109 262h100l-78 -262h-131zM218 505l109 262h100l-78 -262h-131z" />
    <glyph glyph-name="quotedblright" unicode="&#x201d;" horiz-adv-x="450" 
d="M426 763l-109 -262h-100l78 262h131zM232 763l-109 -262h-100l78 262h131z" />
    <glyph glyph-name="quotedblbase" unicode="&#x201e;" horiz-adv-x="450" 
d="M426 98l-109 -262h-100l78 262h131zM232 98l-109 -262h-100l78 262h131z" />
    <glyph glyph-name="dagger" unicode="&#x2020;" horiz-adv-x="446" 
d="M30 479v100h141v143h103v-143h142v-100h-142v-228h-103v228h-141z" />
    <glyph glyph-name="daggerdbl" unicode="&#x2021;" horiz-adv-x="446" 
d="M30 479v100h141v143h103v-143h142v-100h-142v-96h142v-101h-142v-143h-103v143h-141v101h141v96h-141z" />
    <glyph glyph-name="bullet" unicode="&#x2022;" 
d="M293 56q-127 0 -184.5 59.5t-57.5 211.5q0 150 58 208.5t184 58.5q128 0 186 -58.5t58 -208.5q0 -152 -58 -211.5t-186 -59.5z" />
    <glyph glyph-name="ellipsis" unicode="&#x2026;" horiz-adv-x="1141" 
d="M218 143q48 0 64 -13t16 -57q0 -48 -16.5 -63t-63.5 -15q-45 0 -61 15t-16 63q0 44 15.5 57t61.5 13zM569 143q47 0 63 -13t16 -57q0 -48 -16.5 -63t-62.5 -15q-45 0 -61.5 15t-16.5 63q0 44 16 57t62 13zM920 143q48 0 64 -13t16 -57q0 -48 -16.5 -63t-63.5 -15
q-45 0 -61 15t-16 63q0 44 16 57t61 13z" />
    <glyph glyph-name="perthousand" unicode="&#x2030;" horiz-adv-x="1354" 
d="M633 697h117l-429 -697h-116zM217 714q100 0 141 -47t41 -176q0 -131 -41.5 -181t-140.5 -50t-140.5 50t-41.5 181q0 129 41 176t141 47zM217 349q43 0 57.5 27.5t14.5 113.5q0 85 -14.5 110.5t-57.5 25.5t-58 -25.5t-15 -110.5t15.5 -113t57.5 -28zM742 439
q100 0 141 -47t41 -175q0 -131 -41.5 -181t-140.5 -50t-140.5 50t-41.5 181q0 128 41 175t141 47zM742 74q43 0 57.5 28t14.5 114q0 85 -14.5 110t-57.5 25t-58 -25t-15 -110q0 -86 15.5 -114t57.5 -28zM1137 439q100 0 141 -47t41 -175q0 -131 -41.5 -181t-140.5 -50
t-140.5 50t-41.5 181q0 128 41 175t141 47zM1137 74q43 0 57.5 28t14.5 114q0 85 -14.5 110t-57.5 25t-58 -25t-15 -110q0 -86 15.5 -114t57.5 -28z" />
    <glyph glyph-name="guilsinglleft" unicode="&#x2039;" horiz-adv-x="395" 
d="M368 518l-176 -204l176 -208l-70 -75l-271 281l270 279z" />
    <glyph glyph-name="guilsinglright" unicode="&#x203a;" horiz-adv-x="395" 
d="M27 105l177 204l-177 209l70 74l272 -280l-270 -280z" />
    <glyph glyph-name="fraction" unicode="&#x2044;" horiz-adv-x="593" 
d="M460 697h117l-439 -697h-116z" />
    <glyph glyph-name="fraction" unicode="&#x2215;" horiz-adv-x="593" 
d="M460 697h117l-439 -697h-116z" />
    <glyph glyph-name="franc" unicode="&#x20a3;" horiz-adv-x="570" 
d="M48 117v88h40v492h496v-114h-364v-197h222v-112h-222v-69h90v-88h-90v-117h-132v117h-40z" />
    <glyph glyph-name="Euro" unicode="&#x20ac;" horiz-adv-x="592" 
d="M53 355q0 106 19.5 176t62 110.5t100.5 56.5t145 16q106 0 200 -26l-29 -116q-61 22 -148 22q-90 0 -133.5 -21.5t-60.5 -88.5h239v-85h-253q-1 -11 -1 -45q0 -35 1 -45h253v-85h-239q16 -70 60 -93.5t134 -23.5q87 0 148 22l29 -118q-90 -25 -200 -25q-115 0 -184 32.5
t-106 114.5t-37 222z" />
    <glyph glyph-name="afii61352" unicode="&#x2116;" horiz-adv-x="1174" 
d="M685 697v-697h-161q-143 265 -307 525v-525h-129v697h173q151 -238 293 -503v503h131zM776 123v98h326v-98h-326zM937 714q103 0 144.5 -44t41.5 -164q0 -122 -42 -168t-144 -46t-143.5 46t-41.5 168q0 120 41.5 164t143.5 44zM937 381q47 0 62 23.5t15 101.5
q0 77 -14.5 98.5t-62.5 21.5q-47 0 -61.5 -21.5t-14.5 -98.5q0 -79 14.5 -102t61.5 -23z" />
    <glyph glyph-name="trademark" unicode="&#x2122;" horiz-adv-x="824" 
d="M210 338h-89v281h-114v78h316v-78h-113v-281zM478 697l91 -243l88 243h112v-359h-84v250l-87 -236h-69l-84 236v-250h-84v359h117z" />
    <glyph glyph-name="estimated" unicode="&#x212e;" horiz-adv-x="711" 
d="M669 303h-474q4 -119 46 -158t151 -39q37 0 91 7t80 16l28 -118q-90 -25 -200 -25q-173 0 -255.5 82t-82.5 287q0 104 20.5 175t62.5 111t97 56.5t132 16.5q156 0 230 -88t74 -291v-32zM365 595q-88 0 -125.5 -34t-43.5 -140h333q-4 105 -41 139.5t-123 34.5z" />
    <glyph glyph-name="arrowleft" unicode="&#x2190;" horiz-adv-x="757" 
d="M390 26l-375 341l374 341l88 -89l-217 -194h482v-117h-482l217 -193z" />
    <glyph glyph-name="arrowup" unicode="&#x2191;" horiz-adv-x="759" 
d="M38 355l342 375l340 -375l-88 -88l-194 218v-482h-117v482l-193 -218z" />
    <glyph glyph-name="arrowright" unicode="&#x2192;" horiz-adv-x="757" 
d="M367 707l375 -340l-375 -342l-88 90l218 193h-482v117h482l-218 194z" />
    <glyph glyph-name="arrowdown" unicode="&#x2193;" horiz-adv-x="759" 
d="M720 378l-341 -375l-341 374l89 88l194 -217v482h117v-482l193 217z" />
    <glyph glyph-name="partialdiff" unicode="&#x2202;" horiz-adv-x="626" 
d="M309 428q35 0 87 -5q-57 114 -225 274h164q114 -111 179 -223.5t65 -249.5q0 -141 -54.5 -191t-211.5 -50q-145 0 -203.5 52t-58.5 183q0 118 56 164t202 46zM440 238q0 38 -9 72q-46 7 -108 7q-84 0 -109 -20t-25 -85q0 -62 25 -86.5t99 -24.5q76 0 101.5 24.5
t25.5 112.5z" />
    <glyph glyph-name="product" unicode="&#x220f;" horiz-adv-x="736" 
d="M220 578v-578h-132v697h560v-697h-130v578h-298z" />
    <glyph glyph-name="summation" unicode="&#x2211;" horiz-adv-x="622" 
d="M394 345q-93 -139 -167 -232h371v-113h-594q67 90 236 346q-117 178 -221 351h576v-114h-357q80 -124 156 -238z" />
    <glyph glyph-name="minus" unicode="&#x2212;" horiz-adv-x="582" 
d="M48 303v118h486v-118h-486z" />
    <glyph glyph-name="radical" unicode="&#x221a;" horiz-adv-x="578" 
d="M0 509h165q69 -172 126 -384q40 105 102.5 293.5t85.5 278.5h126q-38 -128 -116.5 -352.5t-127.5 -344.5h-153q-67 231 -126 387h-82v122z" />
    <glyph glyph-name="infinity" unicode="&#x221e;" horiz-adv-x="773" 
d="M337 351q0 53 -23.5 76t-78.5 23q-53 0 -73.5 -22t-20.5 -77q0 -56 20 -78t74 -22q55 0 78.5 23.5t23.5 76.5zM387 264q-8 -77 -51 -103.5t-123 -26.5q-99 0 -142.5 47t-43.5 170t43.5 169.5t142.5 46.5q80 0 123 -26.5t51 -102.5q7 76 49.5 102.5t123.5 26.5
q99 0 142.5 -46.5t43.5 -169.5t-43.5 -170t-142.5 -47q-80 0 -123 27t-50 103zM436 351q0 -53 23.5 -76t78.5 -23q53 0 73.5 22t20.5 77t-20.5 77t-73.5 22q-55 0 -78.5 -23t-23.5 -76z" />
    <glyph glyph-name="integral" unicode="&#x222b;" horiz-adv-x="339" 
d="M406 702l-28 -98q-42 14 -97 14q-41 0 -61.5 -16.5t-20.5 -65.5v-550q0 -189 -198 -189q-83 0 -148 24l25 96q52 -20 111 -20q40 0 63 22t23 67v557q0 95 50.5 138t134.5 43q80 0 146 -22z" />
    <glyph glyph-name="approxequal" unicode="&#x2248;" horiz-adv-x="582" 
d="M466 320l80 -63q-19 -51 -59 -82.5t-94 -31.5q-40 0 -115 42.5t-104 42.5q-38 0 -64 -60l-72 69q57 98 137 98q47 0 122 -41.5t101 -41.5q23 0 38.5 14.5t29.5 53.5zM466 533l80 -63q-19 -51 -59 -82.5t-94 -31.5q-40 0 -115 42.5t-104 42.5q-38 0 -64 -60l-72 69
q57 98 137 98q47 0 122 -41.5t101 -41.5q23 0 38.5 14.5t29.5 53.5z" />
    <glyph glyph-name="notequal" unicode="&#x2260;" horiz-adv-x="582" 
d="M380 648h124l-52 -95h82v-118h-143l-79 -149h222v-118h-282l-52 -96h-123l51 96h-80v118h141l79 149h-220v118h280z" />
    <glyph glyph-name="lessequal" unicode="&#x2264;" horiz-adv-x="582" 
d="M48 19v118h486v-118h-486zM499 629l-261 -193l261 -195l-63 -82l-360 250v52l359 249z" />
    <glyph glyph-name="greaterequal" unicode="&#x2265;" horiz-adv-x="582" 
d="M535 137v-118h-486v118h486zM344 436l-260 193l64 81l359 -249v-52l-361 -250l-62 82z" />
    <glyph glyph-name="lozenge" unicode="&#x25ca;" horiz-adv-x="600" 
d="M582 265q-106 -245 -171 -433h-207q-113 248 -185 433q76 196 185 434h207q64 -184 171 -434zM443 266q-10 26 -40.5 104t-53.5 138t-35 97h-27q-109 -261 -138 -339q40 -106 138 -339h27q12 37 34.5 97t53.5 138t41 104z" />
    <glyph glyph-name="caron.alt" unicode="&#xe01e;" horiz-adv-x="327" 
d="M282 722h110l-57 -192h-73z" />
    <glyph glyph-name="commaaccent" unicode="&#xf6c3;" horiz-adv-x="267" 
d="M266 -51l-108 -167h-97l71 167h134z" />
    <glyph glyph-name="Acute" unicode="&#xf6c9;" horiz-adv-x="408" 
d="M207 747h-108l129 129h137z" />
    <glyph glyph-name="Caron" unicode="&#xf6ca;" horiz-adv-x="654" 
d="M280 876l73 -78l70 78h112l-122 -129h-122l-126 129h115z" />
    <glyph glyph-name="Dieresis" unicode="&#xf6cb;" horiz-adv-x="431" 
d="M146 864q35 0 47 -10.5t12 -45.5q0 -38 -12 -49.5t-47 -11.5t-47.5 11.5t-12.5 49.5q0 35 12.5 45.5t47.5 10.5zM359 864q35 0 47 -10.5t12 -45.5q0 -38 -12 -49.5t-47 -11.5q-36 0 -48 11.5t-12 49.5q0 35 12 45.5t48 10.5z" />
    <glyph glyph-name="Grave" unicode="&#xf6ce;" horiz-adv-x="408" 
d="M409 747h-114l-158 129h137z" />
    <glyph glyph-name="Hungarumlaut" unicode="&#xf6cf;" horiz-adv-x="618" 
d="M248 747h-85l91 129h109zM413 747h-86l91 129h109z" />
    <glyph glyph-name="Macron" unicode="&#xf6d0;" horiz-adv-x="326" 
d="M123 753v92h278v-92h-278z" />
    <glyph glyph-name="Lslashsmall" unicode="&#xf6f9;" horiz-adv-x="432" 
d="M193 232v-121h240v-111h-364v128l-42 -37v107l42 37v274h124v-170l94 83v-108z" />
    <glyph glyph-name="OEsmall" unicode="&#xf6fa;" horiz-adv-x="825" 
d="M787 509v-101h-278q22 -37 26 -95h188v-95h-188q-1 -74 -27 -117h279v-101h-384q-43 -14 -110 -14q-127 0 -184.5 59.5t-57.5 211.5q0 150 58 208.5t184 58.5q65 0 113 -15h381zM293 424q-68 0 -91 -31.5t-23 -137.5q0 -103 23.5 -136t90.5 -33q68 0 92 33t24 136
q0 73 -11 109t-34.5 48t-70.5 12z" />
    <glyph glyph-name="Scaronsmall" unicode="&#xf6fd;" horiz-adv-x="491" 
d="M434 496l-27 -97q-74 24 -148 24q-51 0 -71.5 -11t-20.5 -48q0 -26 21.5 -37.5t83.5 -17.5q95 -10 136 -44t41 -109q0 -94 -56 -132t-162 -38t-182 27l26 98q68 -24 151 -24q55 0 77.5 12t22.5 50q0 28 -22.5 41.5t-86.5 19.5q-89 7 -130.5 38.5t-41.5 106.5
q0 93 56.5 131t161.5 38q87 0 171 -28zM66 697h117l71 -76l69 76h113l-122 -129h-122z" />
    <glyph glyph-name="Zcaronsmall" unicode="&#xf6ff;" horiz-adv-x="497" 
d="M35 509h439v-25q-53 -85 -131.5 -197.5t-130.5 -178.5h255v-108h-449v25q70 88 148 199.5t118 176.5h-249v108zM67 697h117l71 -76l69 76h113l-122 -129h-122z" />
    <glyph glyph-name="exclamsmall" unicode="&#xf721;" horiz-adv-x="327" 
d="M91 509h143l-27 -302h-90zM163 141q47 0 63 -13.5t16 -57.5q0 -48 -16 -62.5t-63 -14.5q-45 0 -61.5 14.5t-16.5 62.5q0 44 16.5 57.5t61.5 13.5z" />
    <glyph glyph-name="ampersandsmall" unicode="&#xf726;" horiz-adv-x="698" 
d="M684 0h-137q-21 31 -45 64q-118 -78 -245 -78q-126 0 -175.5 31.5t-49.5 117.5q0 129 143 136q-68 5 -90 34t-22 88q0 74 45 102.5t176 28.5q130 0 174.5 -28.5t44.5 -102.5q0 -56 -28.5 -87t-98.5 -37q62 -7 131 -69q37 46 49 99h134q-16 -88 -100 -172q46 -52 94 -127z
M261 82q105 0 176 61q-74 78 -164 78q-53 0 -81.5 -13t-28.5 -56q0 -40 21.5 -55t76.5 -15zM282 317q53 0 76.5 12t23.5 45q0 32 -20 44t-76 12q-57 0 -77.5 -12.5t-20.5 -43.5q0 -33 20.5 -45t73.5 -12z" />
    <glyph glyph-name="zerooldstyle" unicode="&#xf730;" horiz-adv-x="626" 
d="M315 -14q-117 0 -174.5 60.5t-57.5 210.5q0 149 57.5 208t174.5 59t172.5 -58.5t55.5 -208.5q0 -151 -55.5 -211t-172.5 -60zM315 424q-42 0 -63 -12t-31.5 -48t-10.5 -109q0 -103 22 -136t83 -33t80.5 32t19.5 137q0 107 -20 138t-80 31z" />
    <glyph glyph-name="oneoldstyle" unicode="&#xf731;" horiz-adv-x="626" 
d="M441 0h-125v362l-156 -71l-36 104l317 129v-524z" />
    <glyph glyph-name="twooldstyle" unicode="&#xf732;" horiz-adv-x="626" 
d="M122 386l-29 115q98 23 209 23q130 0 180 -36.5t50 -123.5q0 -75 -58.5 -137t-203.5 -126h273v-101h-455v91q135 75 201 119t87 71t21 59q0 39 -24 55t-92 16q-35 0 -85.5 -7.5t-73.5 -17.5z" />
    <glyph glyph-name="threeoldstyle" unicode="&#xf733;" horiz-adv-x="626" 
d="M192 121v112h97q64 0 90 19t26 69q0 49 -30 67t-120 18q-102 0 -175 -22l-26 114q122 26 227 26q147 0 205.5 -41t58.5 -137q0 -77 -31 -117.5t-119 -47.5q93 -4 128.5 -49t35.5 -131q0 -112 -65 -157t-216 -45q-116 0 -229 25l26 114q69 -20 178 -20q97 0 130 21.5
t33 79.5t-28 80t-97 22h-99z" />
    <glyph glyph-name="fouroldstyle" unicode="&#xf734;" horiz-adv-x="626" 
d="M369 0h-346v40q174 305 297 469h175v-406h93v-103h-93v-192h-126v192zM369 103v296q-73 -93 -186 -296h186z" />
    <glyph glyph-name="fiveoldstyle" unicode="&#xf735;" horiz-adv-x="626" 
d="M96 509h432v-114h-308v-153q54 4 84 4q144 0 199.5 -49.5t55.5 -167.5q0 -131 -61 -181.5t-212 -50.5q-120 0 -222 25l26 114q66 -20 170 -20q95 0 125.5 22t30.5 84q0 67 -28 89.5t-121 22.5q-99 0 -171 -14v389z" />
    <glyph glyph-name="sixoldstyle" unicode="&#xf736;" horiz-adv-x="626" 
d="M563 687l-29 -116q-61 23 -164 23q-90 0 -130.5 -34.5t-43.5 -138.5q63 11 132 11q145 0 201.5 -49t56.5 -168q0 -131 -58 -180t-204 -49q-151 0 -210 78.5t-59 289.5q0 107 17 176.5t56.5 110.5t96.5 57t145 16q102 0 193 -27zM324 105q74 0 99 22t25 81q0 62 -23.5 87
t-90.5 25q-82 0 -140 -10q2 -124 31 -164.5t99 -40.5z" />
    <glyph glyph-name="sevenoldstyle" unicode="&#xf737;" horiz-adv-x="626" 
d="M597 509v-39q-70 -113 -165 -315.5t-143 -346.5h-149q57 158 138.5 329t143.5 258h-360v114h535z" />
    <glyph glyph-name="eightoldstyle" unicode="&#xf738;" horiz-adv-x="626" 
d="M313 94q71 0 98 23.5t27 83.5q0 61 -28 87t-97 26t-96.5 -26t-27.5 -87t26.5 -84t97.5 -23zM313 417q60 0 86.5 22.5t26.5 75.5q0 51 -25 70t-88 19q-64 0 -89 -19t-25 -70q0 -53 26.5 -75.5t87.5 -22.5zM313 -14q-143 0 -202.5 45.5t-59.5 156.5q0 86 34.5 131.5
t128.5 49.5q-87 8 -117.5 49t-30.5 118q0 95 53 136.5t194 41.5t194 -41.5t53 -136.5q0 -77 -30.5 -118t-117.5 -49q94 -4 128.5 -49.5t34.5 -131.5q0 -111 -59 -156.5t-203 -45.5z" />
    <glyph glyph-name="nineoldstyle" unicode="&#xf739;" horiz-adv-x="626" 
d="M169 -192q169 160 227 275q-40 -5 -87 -5q-146 0 -202 46t-56 164q0 132 58.5 184t203.5 52q157 0 211.5 -50t54.5 -191q0 -137 -65.5 -250.5t-180.5 -224.5h-164zM323 190q62 0 108 7q9 35 9 72q0 87 -25.5 112t-101.5 25q-74 0 -99 -25t-25 -87q0 -65 25 -84.5
t109 -19.5z" />
    <glyph glyph-name="questionsmall" unicode="&#xf73f;" horiz-adv-x="482" 
d="M225 143q48 0 64 -13t16 -57q0 -48 -16.5 -62.5t-63.5 -14.5q-45 0 -61 14.5t-16 62.5q0 44 15.5 57t61.5 13zM283 202h-123q71 54 100.5 90t29.5 81q0 28 -19 39.5t-69 11.5q-77 0 -139 -18l-19 103q93 19 168 19q118 0 168 -31t50 -102q0 -59 -33 -101.5t-114 -91.5z
" />
    <glyph glyph-name="Asmall" unicode="&#xf761;" horiz-adv-x="563" 
d="M427 0q-20 45 -47 123h-213q-18 -58 -36 -123h-128q60 208 183 509h193q93 -317 178 -509h-130zM288 409h-21q-33 -82 -71 -195h153q-33 96 -61 195z" />
    <glyph glyph-name="Bsmall" unicode="&#xf762;" horiz-adv-x="580" 
d="M193 96h152q29 0 42 13.5t13 44.5q0 66 -58 66h-149v-124zM193 413v-102h147q26 0 37.5 12.5t11.5 39.5q0 29 -11 39.5t-38 10.5h-147zM402 270q72 -2 100 -35.5t28 -95.5q0 -139 -150 -139h-311v509h307q81 0 111.5 -30.5t30.5 -91.5q0 -55 -24 -83.5t-92 -33.5z" />
    <glyph glyph-name="Csmall" unicode="&#xf763;" horiz-adv-x="470" 
d="M430 118l28 -106q-65 -26 -155 -26q-124 0 -188 61t-64 210q0 148 64 207.5t188 59.5q90 0 155 -24l-28 -106q-59 22 -118 22q-49 0 -75.5 -10.5t-42 -46t-15.5 -104.5q0 -96 30.5 -128.5t102.5 -32.5q59 0 118 24z" />
    <glyph glyph-name="Dsmall" unicode="&#xf764;" horiz-adv-x="584" 
d="M69 509h216q129 0 188 -54.5t59 -197.5q0 -144 -59 -200.5t-188 -56.5h-216v509zM276 413h-83v-317h83q70 0 99 31.5t29 127.5q0 98 -28.5 128t-99.5 30z" />
    <glyph glyph-name="Esmall" unicode="&#xf765;" horiz-adv-x="505" 
d="M467 509v-101h-274v-95h210v-95h-210v-117h274v-101h-398v509h398z" />
    <glyph glyph-name="Fsmall" unicode="&#xf766;" horiz-adv-x="474" 
d="M69 0v509h398v-101h-274v-120h210v-97h-210v-191h-124z" />
    <glyph glyph-name="Gsmall" unicode="&#xf767;" horiz-adv-x="569" 
d="M505 297v-276q-98 -35 -202 -35q-123 0 -187.5 61t-64.5 210q0 147 68 207t194 60q100 0 170 -24l-32 -102q-62 22 -134 22q-74 0 -106 -32.5t-32 -132.5q0 -96 32 -130.5t101 -34.5q49 0 82 14v96h-108v97h219z" />
    <glyph glyph-name="Hsmall" unicode="&#xf768;" horiz-adv-x="587" 
d="M393 216h-200v-216h-124v509h124v-187h200v187h124v-509h-124v216z" />
    <glyph glyph-name="Ismall" unicode="&#xf769;" horiz-adv-x="262" 
d="M193 509v-509h-124v509h124z" />
    <glyph glyph-name="Jsmall" unicode="&#xf76a;" horiz-adv-x="414" 
d="M346 509v-333q0 -190 -198 -190q-84 0 -148 23l24 106q52 -20 112 -20q86 0 86 90v324h124z" />
    <glyph glyph-name="Ksmall" unicode="&#xf76b;" horiz-adv-x="551" 
d="M193 509v-509h-124v509h124zM552 0h-146q-174 252 -213 269q49 40 197 240h147q-139 -188 -195 -231q22 -13 78 -86t132 -192z" />
    <glyph glyph-name="Lsmall" unicode="&#xf76c;" horiz-adv-x="432" 
d="M193 509v-398h240v-111h-364v509h124z" />
    <glyph glyph-name="Msmall" unicode="&#xf76d;" horiz-adv-x="753" 
d="M382 206q59 155 129 303h173v-509h-123v371q-67 -145 -140 -341h-93q-85 231 -136 341v-371h-123v509h181q59 -123 132 -303z" />
    <glyph glyph-name="Nsmall" unicode="&#xf76e;" horiz-adv-x="593" 
d="M400 198v311h124v-509h-124q-117 208 -207 321v-321h-124v509h122q130 -168 209 -311z" />
    <glyph glyph-name="Osmall" unicode="&#xf76f;" 
d="M293 -14q-127 0 -184.5 59.5t-57.5 211.5q0 150 58 208.5t184 58.5q128 0 186 -58.5t58 -208.5q0 -152 -58 -211.5t-186 -59.5zM293 423q-68 0 -91 -31t-23 -137q0 -103 23.5 -135.5t90.5 -32.5q69 0 92.5 32.5t23.5 135.5q0 73 -11 109t-34 47.5t-71 11.5z" />
    <glyph glyph-name="Psmall" unicode="&#xf770;" horiz-adv-x="563" 
d="M340 413h-147v-137h147q55 0 55 67q0 70 -55 70zM375 185h-182v-185h-124v509h296q84 0 122 -40.5t38 -123.5q0 -160 -150 -160z" />
    <glyph glyph-name="Qsmall" unicode="&#xf771;" 
d="M283 -14q-117 0 -174.5 60.5t-57.5 210.5t58 208.5t184 58.5q128 0 186 -58.5t58 -208.5q0 -107 -29.5 -166t-90.5 -83q34 -8 77 -52t108 -138h-139q-109 168 -180 168zM293 424q-68 0 -91 -31.5t-23 -137.5q0 -103 23.5 -136t90.5 -33q68 0 92 33t24 136q0 73 -11 109
t-34.5 48t-70.5 12z" />
    <glyph glyph-name="Rsmall" unicode="&#xf772;" horiz-adv-x="574" 
d="M369 509q157 0 157 -149q0 -135 -140 -140q41 -10 75.5 -50.5t107.5 -169.5h-144q-58 109 -92 145t-69 36h-71v-181h-124v509h300zM193 279h141q63 0 63 66q0 64 -61 64h-143v-130z" />
    <glyph glyph-name="Ssmall" unicode="&#xf773;" horiz-adv-x="491" 
d="M434 496l-27 -97q-74 24 -148 24q-51 0 -71.5 -11t-20.5 -48q0 -26 21.5 -37.5t83.5 -17.5q95 -10 136 -44t41 -109q0 -94 -56 -132t-162 -38t-182 27l26 98q68 -24 151 -24q55 0 77.5 12t22.5 50q0 28 -22.5 41.5t-86.5 19.5q-89 7 -130.5 38.5t-41.5 106.5
q0 93 56.5 131t161.5 38q87 0 171 -28z" />
    <glyph glyph-name="Tsmall" unicode="&#xf774;" horiz-adv-x="485" 
d="M304 401v-401h-124v401h-175v108h475v-108h-176z" />
    <glyph glyph-name="Usmall" unicode="&#xf775;" horiz-adv-x="578" 
d="M289 97q58 0 78.5 23t20.5 79v310h123v-303q0 -124 -49.5 -172t-172.5 -48t-173 48.5t-50 171.5v303h124v-310q0 -56 20.5 -79t78.5 -23z" />
    <glyph glyph-name="Vsmall" unicode="&#xf776;" horiz-adv-x="522" 
d="M264 125q84 222 126 384h126q-69 -232 -183 -509h-153q-84 298 -171 509h129q67 -171 126 -384z" />
    <glyph glyph-name="Wsmall" unicode="&#xf777;" horiz-adv-x="830" 
d="M415 341q-38 -170 -98 -341h-153q-78 281 -164 509h131q65 -174 116 -382q26 75 60 193.5t50 188.5h121q56 -167 103 -382q80 220 118 382h126q-74 -264 -174 -509h-154q-37 192 -82 341z" />
    <glyph glyph-name="Xsmall" unicode="&#xf778;" horiz-adv-x="521" 
d="M516 0h-140q-37 61 -107 161q-64 -87 -125 -161h-138q77 90 198 254q-113 157 -197 255h148q53 -66 117 -156q40 55 105 156h138q-75 -113 -175 -251q98 -138 176 -258z" />
    <glyph glyph-name="Ysmall" unicode="&#xf779;" horiz-adv-x="487" 
d="M250 332q60 72 126 177h136q-100 -153 -202 -278v-231h-124v231q-129 181 -211 278h144q55 -66 131 -177z" />
    <glyph glyph-name="Zsmall" unicode="&#xf77a;" horiz-adv-x="497" 
d="M35 509h439v-25q-53 -85 -131.5 -197.5t-130.5 -178.5h255v-108h-449v25q70 88 148 199.5t118 176.5h-249v108z" />
    <glyph glyph-name="exclamdownsmall" unicode="&#xf7a1;" horiz-adv-x="327" 
d="M235 0h-143l27 302h91zM164 369q-47 0 -63.5 13t-16.5 57q0 48 16.5 63t63.5 15q45 0 61.5 -15t16.5 -63q0 -44 -16 -57t-62 -13z" />
    <glyph glyph-name="questiondownsmall" unicode="&#xf7bf;" horiz-adv-x="482" 
d="M250 376q-47 0 -63 13t-16 57q0 48 16.5 63t62.5 15q45 0 61.5 -15t16.5 -63q0 -44 -16 -57t-62 -13zM193 317h123q-72 -55 -101.5 -91t-29.5 -82q0 -27 19.5 -38t68.5 -11q77 0 139 18l20 -103q-83 -17 -168 -17q-117 0 -168 29.5t-51 98.5q0 60 33 103.5t115 92.5z" />
    <glyph glyph-name="Agravesmall" unicode="&#xf7e0;" horiz-adv-x="563" 
d="M427 0q-20 45 -47 123h-213q-18 -58 -36 -123h-128q60 208 183 509h193q93 -317 178 -509h-130zM288 409h-21q-33 -82 -71 -195h153q-33 96 -61 195zM385 568h-110l-144 129h132z" />
    <glyph glyph-name="Aacutesmall" unicode="&#xf7e1;" horiz-adv-x="563" 
d="M427 0q-20 45 -47 123h-213q-18 -58 -36 -123h-128q60 208 183 509h193q93 -317 178 -509h-130zM288 409h-21q-33 -82 -71 -195h153q-33 96 -61 195zM291 568h-109l121 129h133z" />
    <glyph glyph-name="Acircumflexsmall" unicode="&#xf7e2;" horiz-adv-x="563" 
d="M427 0q-20 45 -47 123h-213q-18 -58 -36 -123h-128q60 208 183 509h193q93 -317 178 -509h-130zM288 409h-21q-33 -82 -71 -195h153q-33 96 -61 195zM466 568h-117l-71 76l-69 -76h-113l122 129h122z" />
    <glyph glyph-name="Atildesmall" unicode="&#xf7e3;" horiz-adv-x="563" 
d="M427 0q-20 45 -47 123h-213q-18 -58 -36 -123h-128q60 208 183 509h193q93 -317 178 -509h-130zM288 409h-21q-33 -82 -71 -195h153q-33 96 -61 195zM400 702l62 -50q-33 -93 -117 -93q-31 0 -74.5 26.5t-66.5 26.5q-31 0 -52 -51l-56 55q46 81 109 81q37 0 79 -26.5
t63 -26.5q18 0 29.5 12.5t23.5 45.5z" />
    <glyph glyph-name="Adieresissmall" unicode="&#xf7e4;" horiz-adv-x="563" 
d="M427 0q-20 45 -47 123h-213q-18 -58 -36 -123h-128q60 208 183 509h193q93 -317 178 -509h-130zM288 409h-21q-33 -82 -71 -195h153q-33 96 -61 195zM172 681q35 0 47.5 -10t12.5 -45q0 -38 -12.5 -50t-47.5 -12t-47 11.5t-12 50.5q0 35 12 45t47 10zM386 681
q35 0 47 -10t12 -45q0 -38 -12.5 -50t-46.5 -12q-36 0 -48 11.5t-12 50.5q0 35 12 45t48 10z" />
    <glyph glyph-name="Aringsmall" unicode="&#xf7e5;" horiz-adv-x="563" 
d="M427 0q-20 45 -47 123h-213q-18 -58 -36 -123h-128q60 208 183 509h193q93 -317 178 -509h-130zM288 409h-21q-33 -82 -71 -195h153q-33 96 -61 195zM277 741q61 0 90 -22.5t29 -75.5t-28.5 -75.5t-90.5 -22.5t-91 22.5t-29 75.5t28 75.5t92 22.5zM277 684
q-30 0 -40 -9.5t-10 -33.5q0 -23 10.5 -33t39.5 -10t39.5 10t10.5 33q0 24 -10 33.5t-40 9.5z" />
    <glyph glyph-name="AEsmall" unicode="&#xf7e6;" horiz-adv-x="808" 
d="M706 313v-95h-210v-117h274v-101h-398v125h-224q-34 -51 -80 -125h-135q142 225 357 509h480v-101h-274v-95h210zM349 417q-67 -91 -141 -200h164v200h-23z" />
    <glyph glyph-name="Ccedillasmall" unicode="&#xf7e7;" horiz-adv-x="470" 
d="M430 118l28 -106q-65 -26 -155 -26q-124 0 -188 61t-64 210q0 148 64 207.5t188 59.5q90 0 155 -24l-28 -106q-59 22 -118 22q-49 0 -75.5 -10.5t-42 -46t-15.5 -104.5q0 -96 30.5 -128.5t102.5 -32.5q59 0 118 24zM260 0h49v-42q60 0 85 -17t25 -61q0 -47 -30.5 -65
t-106.5 -18q-62 0 -98 16l22 54q24 -12 71 -12q23 0 32 5.5t9 20.5q0 19 -19.5 24t-74.5 2z" />
    <glyph glyph-name="Egravesmall" unicode="&#xf7e8;" horiz-adv-x="505" 
d="M467 509v-101h-274v-95h210v-95h-210v-117h274v-101h-398v509h398zM385 568h-110l-144 129h132z" />
    <glyph glyph-name="Eacutesmall" unicode="&#xf7e9;" horiz-adv-x="505" 
d="M467 509v-101h-274v-95h210v-95h-210v-117h274v-101h-398v509h398zM287 568h-109l121 129h133z" />
    <glyph glyph-name="Ecircumflexsmall" unicode="&#xf7ea;" horiz-adv-x="505" 
d="M467 509v-101h-274v-95h210v-95h-210v-117h274v-101h-398v509h398zM467 568h-117l-71 76l-69 -76h-113l122 129h122z" />
    <glyph glyph-name="Edieresissmall" unicode="&#xf7eb;" horiz-adv-x="505" 
d="M467 509v-101h-274v-95h210v-95h-210v-117h274v-101h-398v509h398zM174 681q35 0 47.5 -10t12.5 -45q0 -38 -12.5 -50t-47.5 -12t-47 11.5t-12 50.5q0 35 12 45t47 10zM388 681q35 0 47 -10t12 -45q0 -38 -12.5 -50t-46.5 -12q-36 0 -48 11.5t-12 50.5q0 35 12 45t48 10z
" />
    <glyph glyph-name="Igravesmall" unicode="&#xf7ec;" horiz-adv-x="262" 
d="M193 509v-509h-124v509h124zM214 568h-110l-144 129h132z" />
    <glyph glyph-name="Iacutesmall" unicode="&#xf7ed;" horiz-adv-x="262" 
d="M193 509v-509h-124v509h124zM153 568h-109l121 129h133z" />
    <glyph glyph-name="Icircumflexsmall" unicode="&#xf7ee;" horiz-adv-x="262" 
d="M193 509v-509h-124v509h124zM317 568h-117l-71 76l-69 -76h-113l122 129h122z" />
    <glyph glyph-name="Idieresissmall" unicode="&#xf7ef;" horiz-adv-x="262" 
d="M193 509v-509h-124v509h124zM25 681q35 0 47.5 -10t12.5 -45q0 -38 -12.5 -50t-47.5 -12t-47 11.5t-12 50.5q0 35 12 45t47 10zM239 681q35 0 47 -10t12 -45q0 -38 -12.5 -50t-46.5 -12q-36 0 -48 11.5t-12 50.5q0 35 12 45t48 10z" />
    <glyph glyph-name="Ethsmall" unicode="&#xf7f0;" horiz-adv-x="584" 
d="M22 220v90h47v199h216q129 0 188 -54.5t59 -197.5q0 -144 -59 -200.5t-188 -56.5h-216v220h-47zM276 413h-83v-103h89v-90h-89v-124h83q70 0 99 31.5t29 127.5q0 98 -28.5 128t-99.5 30z" />
    <glyph glyph-name="Ntildesmall" unicode="&#xf7f1;" horiz-adv-x="593" 
d="M400 198v311h124v-509h-124q-117 208 -207 321v-321h-124v509h122q130 -168 209 -311zM424 702l62 -50q-33 -93 -117 -93q-31 0 -74.5 26.5t-66.5 26.5q-31 0 -52 -51l-56 55q46 81 109 81q37 0 79 -26.5t63 -26.5q18 0 29.5 12.5t23.5 45.5z" />
    <glyph glyph-name="Ogravesmall" unicode="&#xf7f2;" 
d="M293 -14q-127 0 -184.5 59.5t-57.5 211.5q0 150 58 208.5t184 58.5q128 0 186 -58.5t58 -208.5q0 -152 -58 -211.5t-186 -59.5zM293 424q-68 0 -91 -31.5t-23 -137.5q0 -103 23.5 -136t90.5 -33q68 0 92 33t24 136q0 73 -11 109t-34.5 48t-70.5 12zM397 568h-110
l-144 129h132z" />
    <glyph glyph-name="Oacutesmall" unicode="&#xf7f3;" 
d="M293 -14q-127 0 -184.5 59.5t-57.5 211.5q0 150 58 208.5t184 58.5q128 0 186 -58.5t58 -208.5q0 -152 -58 -211.5t-186 -59.5zM293 424q-68 0 -91 -31.5t-23 -137.5q0 -103 23.5 -136t90.5 -33q68 0 92 33t24 136q0 73 -11 109t-34.5 48t-70.5 12zM307 568h-109l121 129
h133z" />
    <glyph glyph-name="Ocircumflexsmall" unicode="&#xf7f4;" 
d="M293 -14q-127 0 -184.5 59.5t-57.5 211.5q0 150 58 208.5t184 58.5q128 0 186 -58.5t58 -208.5q0 -152 -58 -211.5t-186 -59.5zM293 424q-68 0 -91 -31.5t-23 -137.5q0 -103 23.5 -136t90.5 -33q68 0 92 33t24 136q0 73 -11 109t-34.5 48t-70.5 12zM477 568h-117l-71 76
l-69 -76h-113l122 129h122z" />
    <glyph glyph-name="Otildesmall" unicode="&#xf7f5;" 
d="M293 -14q-127 0 -184.5 59.5t-57.5 211.5q0 150 58 208.5t184 58.5q128 0 186 -58.5t58 -208.5q0 -152 -58 -211.5t-186 -59.5zM293 424q-68 0 -91 -31.5t-23 -137.5q0 -103 23.5 -136t90.5 -33q68 0 92 33t24 136q0 73 -11 109t-34.5 48t-70.5 12zM413 702l62 -50
q-33 -93 -117 -93q-31 0 -74.5 26.5t-66.5 26.5q-31 0 -52 -51l-56 55q46 81 109 81q37 0 79 -26.5t63 -26.5q18 0 29.5 12.5t23.5 45.5z" />
    <glyph glyph-name="Odieresissmall" unicode="&#xf7f6;" 
d="M293 -14q-127 0 -184.5 59.5t-57.5 211.5q0 150 58 208.5t184 58.5q128 0 186 -58.5t58 -208.5q0 -152 -58 -211.5t-186 -59.5zM293 424q-68 0 -91 -31.5t-23 -137.5q0 -103 23.5 -136t90.5 -33q68 0 92 33t24 136q0 73 -11 109t-34.5 48t-70.5 12zM186 681
q35 0 47.5 -10t12.5 -45q0 -38 -12.5 -50t-47.5 -12t-47 11.5t-12 50.5q0 35 12 45t47 10zM400 681q35 0 47 -10t12 -45q0 -38 -12.5 -50t-46.5 -12q-36 0 -48 11.5t-12 50.5q0 35 12 45t48 10z" />
    <glyph glyph-name="Oslashsmall" unicode="&#xf7f8;" 
d="M462 509h107l-67 -76q35 -62 35 -176q0 -152 -58 -211.5t-186 -59.5q-96 0 -151 33l-17 -19h-105l66 76q-35 64 -35 181q0 150 58 208.5t184 58.5q101 0 153 -33zM293 423q-66 0 -91 -28.5t-25 -119.5q0 -51 7 -89l187 220q-24 17 -78 17zM293 87q69 0 92.5 35t23.5 131
q0 42 -6 68l-186 -217q22 -17 76 -17z" />
    <glyph glyph-name="Ugravesmall" unicode="&#xf7f9;" horiz-adv-x="578" 
d="M289 97q58 0 78.5 23t20.5 79v310h123v-303q0 -124 -49.5 -172t-172.5 -48t-173 48.5t-50 171.5v303h124v-310q0 -56 20.5 -79t78.5 -23zM390 568h-110l-144 129h132z" />
    <glyph glyph-name="Uacutesmall" unicode="&#xf7fa;" horiz-adv-x="578" 
d="M289 97q58 0 78.5 23t20.5 79v310h123v-303q0 -124 -49.5 -172t-172.5 -48t-173 48.5t-50 171.5v303h124v-310q0 -56 20.5 -79t78.5 -23zM294 568h-109l121 129h133z" />
    <glyph glyph-name="Ucircumflexsmall" unicode="&#xf7fb;" horiz-adv-x="578" 
d="M289 97q58 0 78.5 23t20.5 79v310h123v-303q0 -124 -49.5 -172t-172.5 -48t-173 48.5t-50 171.5v303h124v-310q0 -56 20.5 -79t78.5 -23zM473 568h-117l-71 76l-69 -76h-113l122 129h122z" />
    <glyph glyph-name="Udieresissmall" unicode="&#xf7fc;" horiz-adv-x="578" 
d="M289 97q58 0 78.5 23t20.5 79v310h123v-303q0 -124 -49.5 -172t-172.5 -48t-173 48.5t-50 171.5v303h124v-310q0 -56 20.5 -79t78.5 -23zM183 681q35 0 47.5 -10t12.5 -45q0 -38 -12.5 -50t-47.5 -12t-47 11.5t-12 50.5q0 35 12 45t47 10zM397 681q35 0 47 -10t12 -45
q0 -38 -12.5 -50t-46.5 -12q-36 0 -48 11.5t-12 50.5q0 35 12 45t48 10z" />
    <glyph glyph-name="Yacutesmall" unicode="&#xf7fd;" horiz-adv-x="487" 
d="M250 332q60 72 126 177h136q-100 -153 -202 -278v-231h-124v231q-129 181 -211 278h144q55 -66 131 -177zM265 568h-109l121 129h133z" />
    <glyph glyph-name="Thornsmall" unicode="&#xf7fe;" horiz-adv-x="563" 
d="M193 97v-97h-124v509h124v-88h172q84 0 122 -40.5t38 -123.5q0 -160 -150 -160h-182zM340 325h-147v-137h147q55 0 55 67q0 70 -55 70z" />
    <glyph glyph-name="Ydieresissmall" unicode="&#xf7ff;" horiz-adv-x="487" 
d="M250 332q60 72 126 177h136q-100 -153 -202 -278v-231h-124v231q-129 181 -211 278h144q55 -66 131 -177zM145 681q35 0 47.5 -10t12.5 -45q0 -38 -12.5 -50t-47.5 -12t-47 11.5t-12 50.5q0 35 12 45t47 10zM359 681q35 0 47 -10t12 -45q0 -38 -12.5 -50t-46.5 -12
q-36 0 -48 11.5t-12 50.5q0 35 12 45t48 10z" />
    <glyph glyph-name="CR" horiz-adv-x="266" 
 />
    <glyph glyph-name="Gcedilla" horiz-adv-x="700" 
d="M493 116v180h-152v111h287v-391q-95 -30 -248 -30q-115 0 -184 32.5t-106 114.5t-37 222q0 106 21.5 176.5t67 110.5t107 56t150.5 16q116 0 210 -26l-27 -115q-60 21 -173 21q-52 0 -83.5 -4.5t-59.5 -18t-42 -40.5t-22 -69.5t-8 -107.5q0 -80 10.5 -129t37.5 -75.5
t63.5 -35t97.5 -8.5q48 0 90 10zM358 0h49v-42q60 0 85 -17t25 -61q0 -47 -30.5 -65t-106.5 -18q-62 0 -98 16l22 54q24 -12 71 -12q23 0 32 5.5t9 20.5q0 19 -19.5 24t-74.5 2z" />
    <glyph glyph-name="Idot" horiz-adv-x="308" 
d="M88 697h132v-697h-132v697zM154 867q35 0 47.5 -10.5t12.5 -45.5q0 -38 -12.5 -49.5t-47.5 -11.5t-47 11.5t-12 49.5q0 35 12 45.5t47 10.5z" />
    <glyph glyph-name="Breve" horiz-adv-x="323" 
d="M117 871h85q0 -34 15.5 -46t50.5 -12t51 12.5t16 45.5h80q0 -137 -150 -137q-148 0 -148 137z" />
    <glyph glyph-name="Circumflex" horiz-adv-x="660" 
d="M419 747l-72 78l-70 -78h-112l122 129h122l126 -129h-116z" />
    <glyph glyph-name="Dotaccent" horiz-adv-x="302" 
d="M153 867q35 0 47.5 -10.5t12.5 -45.5q0 -38 -12.5 -49.5t-47.5 -11.5t-47 11.5t-12 49.5q0 35 12 45.5t47 10.5z" />
    <glyph glyph-name="gacute" 
d="M394 143v262q-45 17 -98 17q-69 0 -93 -31.5t-24 -136.5q0 -94 24 -126.5t90 -32.5q43 0 72 13t29 35zM394 21q-54 -33 -129 -33q-111 0 -162.5 58t-51.5 207q0 152 57.5 211.5t187.5 59.5q131 0 222 -38v-447q0 -73 -19 -122t-57 -74.5t-84.5 -36t-111.5 -10.5
q-101 0 -179 30l25 100q78 -25 153 -25t112 26.5t37 93.5zM309 568h-109l121 129h133z" />
    <glyph glyph-name="ldotaccent" horiz-adv-x="268" 
d="M193 722v-579q0 -68 39 -120l-109 -47q-54 62 -54 162v584h124zM289 450q35 0 47.5 -10t12.5 -45q0 -38 -12.5 -50t-47.5 -12t-47 11.5t-12 50.5q0 35 12 45t47 10z" />
    <glyph glyph-name="Ring" horiz-adv-x="714" 
d="M360 890q61 0 90 -22.5t29 -75.5t-29 -75.5t-90 -22.5q-62 0 -91 22.5t-29 75.5q0 54 28 76t92 22zM360 834q-29 0 -39.5 -10t-10.5 -33t10.5 -33t39.5 -10t39.5 10t10.5 33q0 24 -10 33.5t-40 9.5z" />
    <glyph glyph-name="Tilde" horiz-adv-x="708" 
d="M525 879l61 -50q-15 -41 -46.5 -67t-73.5 -26q-31 0 -76 27t-67 27q-31 0 -51 -50l-56 55q45 79 107 79q37 0 82.5 -26t65.5 -26q18 0 30 12.5t24 44.5z" />
    <glyph glyph-name="Dmacron" horiz-adv-x="736" 
d="M88 697h266q86 0 145 -16t101.5 -55t62.5 -106.5t20 -168.5q0 -196 -78.5 -273.5t-250.5 -77.5h-266v697zM542 350q0 78 -9 123t-34.5 70t-60.5 32.5t-97 7.5h-121v-469h121q81 0 122 18t60 68.5t19 149.5zM212 753v92h278v-92h-278z" />
    <glyph glyph-name="zerop" horiz-adv-x="632" 
d="M316 714q91 0 146 -29.5t85.5 -109t30.5 -217.5q0 -141 -30 -223.5t-85.5 -115.5t-146.5 -33q-136 0 -199 82.5t-63 289.5q0 138 30.5 217.5t85.5 109t146 29.5zM316 105q54 0 80.5 20t38.5 73t12 160q0 106 -12 156.5t-38 66.5t-81 16t-80.5 -16t-37.5 -66.5t-12 -156.5
q0 -107 12 -160t38.5 -73t79.5 -20z" />
    <glyph glyph-name="onep" horiz-adv-x="397" 
d="M309 0h-130v556l-156 -67l-36 108l322 129v-726z" />
    <glyph glyph-name="twop" horiz-adv-x="609" 
d="M97 568l-29 114q105 32 223 32q136 0 196.5 -44.5t60.5 -160.5q0 -75 -24 -125t-90 -109t-213 -161h327v-114h-506v106q95 72 148 113.5t100 82t66 61t33.5 46.5t17 43t2.5 46q0 56 -28.5 76.5t-101.5 20.5q-110 0 -182 -27z" />
    <glyph glyph-name="threep" horiz-adv-x="599" 
d="M182 310v112h96q65 0 91 19.5t26 69.5q0 49 -30 67t-120 18q-104 0 -175 -22l-26 114q120 26 226 26q147 0 205.5 -41t58.5 -137q0 -77 -31 -118t-118 -49q93 -4 128 -49.5t35 -131.5q0 -112 -64.5 -157t-215.5 -45q-116 0 -229 25l25 114q71 -20 178 -20
q98 0 130.5 21.5t32.5 79.5q0 59 -28 81.5t-96 22.5h-99z" />
    <glyph glyph-name="fourp" horiz-adv-x="606" 
d="M364 179h-348v41q164 294 298 477h176v-409h93v-109h-93v-179h-126v179zM364 288v295q-92 -121 -188 -295h188z" />
    <glyph glyph-name="fivep" horiz-adv-x="608" 
d="M92 697h432v-114h-308v-155q54 4 84 4q144 0 199.5 -49t55.5 -168q0 -131 -61 -180t-212 -49q-120 0 -222 25l26 114q66 -20 170 -20q95 0 125.5 20.5t30.5 82.5q0 67 -28 89.5t-121 22.5q-99 0 -171 -14v391z" />
    <glyph glyph-name="sixp" horiz-adv-x="629" 
d="M562 687l-29 -116q-61 23 -164 23q-88 0 -129.5 -35t-44.5 -138q63 11 132 11q145 0 201.5 -49t56.5 -168q0 -131 -58 -180t-204 -49q-151 0 -210 78.5t-59 289.5q0 107 17 176.5t56.5 110.5t96.5 57t145 16q102 0 193 -27zM323 105q74 0 99 22t25 81q0 62 -23.5 87
t-90.5 25q-75 0 -140 -10q2 -124 31 -164.5t99 -40.5z" />
    <glyph glyph-name="sevenp" horiz-adv-x="528" 
d="M547 697v-40q-69 -110 -161 -310.5t-141 -346.5h-149q59 161 137 328.5t139 254.5h-360v114h535z" />
    <glyph glyph-name="eightp" horiz-adv-x="631" 
d="M316 94q71 0 97.5 23t26.5 84t-28 87t-96 26q-69 0 -97 -26t-28 -87t26.5 -84t98.5 -23zM316 417q60 0 86.5 22.5t26.5 75.5q0 51 -25 70t-88 19q-64 0 -89 -19t-25 -70q0 -53 26.5 -75.5t87.5 -22.5zM316 -14h-1q-143 0 -202.5 45.5t-59.5 156.5q0 86 34.5 131.5
t128.5 49.5q-87 8 -117.5 49t-30.5 118q0 95 53 136.5t194 41.5t194.5 -41.5t53.5 -136.5q0 -77 -30.5 -118t-117.5 -49q93 -4 127.5 -49.5t34.5 -131.5q0 -111 -59 -156.5t-202 -45.5z" />
    <glyph glyph-name="ninep" horiz-adv-x="626" 
d="M168 0q169 160 225 273q-40 -5 -86 -5q-146 0 -202 46t-56 164q0 132 58.5 184t203.5 52q156 0 210.5 -50t54.5 -191q0 -137 -64.5 -250t-178.5 -223h-165zM321 380q60 0 108 7q8 31 8 72q0 87 -25.5 112t-100.5 25q-74 0 -99.5 -25t-25.5 -87q0 -65 25.5 -84.5
t109.5 -19.5z" />
    <glyph glyph-name="g.2" 
d="M526 492v-122q0 -96 -64 -146t-176 -50q-43 0 -80 10q-5 -13 -5 -29q0 -25 29.5 -35.5t110.5 -13.5q109 -3 157.5 -35.5t48.5 -101.5q0 -94 -69 -133.5t-204 -39.5q-124 0 -210 27l25 109q76 -29 181 -29q80 0 114 13t34 43q0 27 -23 35.5t-109 11.5q-120 4 -161.5 28.5
t-41.5 86.5q0 47 29 88q-58 39 -58 137q0 88 58 133t187 45q134 0 227 -32zM402 361v49q-44 12 -108 12q-63 0 -87.5 -15.5t-24.5 -59.5q0 -42 24 -57t84 -15q112 0 112 86z" />
    <glyph glyph-name="ct" horiz-adv-x="855" 
d="M534 171v230q-54 0 -135.5 8t-92.5 8q-72 0 -99.5 -31t-27.5 -131q0 -97 28.5 -129.5t98.5 -32.5q62 0 112 21l28 -102q-65 -26 -148 -26q-121 0 -184 61t-63 210q0 147 63.5 207t183.5 60q21 0 103.5 -7.5t132.5 -7.5v86l124 51v-137h169v-108h-169v-219
q0 -48 17.5 -68.5t61.5 -20.5q41 0 85 14l22 -98q-62 -23 -138 -23q-91 0 -131.5 38.5t-40.5 146.5z" />
    <glyph glyph-name="arrowupleft" horiz-adv-x="695" 
d="M109 119l-24 507l506 -24v-125l-291 16l341 -341l-83 -83l-341 341l17 -290z" />
    <glyph glyph-name="arrowupright" horiz-adv-x="695" 
d="M115 601l505 25l-23 -507l-125 1l16 290l-340 -341l-83 83l341 341l-291 -17v125z" />
    <glyph glyph-name="arrowdownleft" horiz-adv-x="695" 
d="M85 69l24 506l125 -1l-17 -290l341 341l83 -83l-341 -340l291 16v-125z" />
    <glyph glyph-name="arrowdownright" horiz-adv-x="695" 
d="M620 68l-505 24v125l291 -16l-341 340l83 84l340 -341l-16 290l125 1z" />
    <glyph glyph-name="dmacron" 
d="M305 577v89h89v56h124v-56h49v-89h-49v-554q-92 -37 -222 -37q-131 0 -188 58.5t-57 210.5q0 147 56 208t165 61q70 0 122 -29v82h-89zM394 107v263q0 22 -28.5 35.5t-71.5 13.5q-66 0 -90.5 -34t-24.5 -128q0 -101 24.5 -133t92.5 -32q55 0 98 15z" />
    <glyph glyph-name="Ldotaccent" horiz-adv-x="551" 
d="M88 697h132v-582h329v-115h-461v697zM354 463q35 0 47.5 -10.5t12.5 -45.5q0 -38 -12.5 -49.5t-47.5 -11.5t-47 11.5t-12 49.5q0 35 12 45.5t47 10.5z" />
    <glyph glyph-name="st" horiz-adv-x="894" 
d="M573 171v230q-76 1 -186.5 11.5t-127.5 10.5q-51 0 -71.5 -11t-20.5 -48q0 -26 21.5 -37.5t83.5 -17.5q95 -10 136 -44t41 -109q0 -94 -56 -132t-162 -38t-182 27l26 98q68 -24 151 -24q55 0 77.5 12t22.5 50q0 28 -22.5 41.5t-86.5 19.5q-89 7 -130.5 38.5t-41.5 106.5
q0 93 56.5 131t161.5 38q19 0 133 -7.5t177 -7.5v86l124 51v-137h169v-108h-169v-219q0 -48 17.5 -68.5t61.5 -20.5q41 0 85 14l22 -98q-62 -23 -138 -23q-91 0 -131.5 38.5t-40.5 146.5z" />
    <glyph glyph-name="orn1" horiz-adv-x="603" 
d="M303 -97q-12 26 -38 43t-53.5 25t-57.5 24t-53.5 37t-39 67t-15.5 112q0 106 36.5 160t104.5 54q50 0 116 -30q66 29 117 29q141 0 141 -211q0 -66 -16 -112t-40.5 -67.5t-55.5 -37.5t-58.5 -24t-52.5 -25.5t-35 -43.5zM303 294q-47 29 -74 29q-56 0 -56 -112
q0 -46 9.5 -73.5t25.5 -39t32.5 -18t34.5 -17.5t28 -29q9 18 26.5 29t34.5 17t33 17.5t26 40t10 74.5q0 110 -50 110q-26 0 -80 -28zM303 408q8 24 8 53q0 46 -26.5 74t-73.5 28h-211v101h603v-101h-245q15 -18 15 -46q0 -31 -18 -61.5t-52 -47.5z" />
    <glyph glyph-name="orn2" horiz-adv-x="603" 
d="M300 -97q-11 26 -35.5 43.5t-52.5 25.5t-59 24t-55.5 37.5t-40.5 67.5t-16 112q0 211 142 211q50 0 117 -29q64 30 115 30q68 0 105 -54t37 -160q0 -66 -15.5 -112t-39 -67t-54 -37t-58 -24t-53 -25t-37.5 -43zM300 408q-35 17 -53 47.5t-18 61.5q0 27 16 46h-245v101
h603v-101h-211q-47 0 -74 -28t-27 -74q0 -26 9 -53z" />
    <glyph glyph-name="orn3" horiz-adv-x="603" 
d="M303 664q10 -26 35 -43.5t52.5 -25.5t58.5 -24t55.5 -37t40.5 -67t16 -112q0 -212 -141 -212q-51 0 -117 29q-67 -29 -116 -29q-141 0 -141 214q0 66 15.5 112t39 67t53.5 37t57.5 23.5t53.5 24.5t38 43zM303 273q52 -27 80 -27q26 0 38 25.5t12 84.5q0 46 -10 74
t-26 39.5t-33 18t-34.5 17.5t-26.5 29q-10 -18 -28 -29t-34.5 -17.5t-32.5 -18t-25.5 -39t-9.5 -73.5q0 -112 56 -112q26 0 74 28zM303 160q34 -18 52 -48t18 -61q0 -30 -15 -46h245v-101h-603v101h211q47 0 73.5 28t26.5 74q0 28 -8 53z" />
    <glyph glyph-name="orn4" horiz-adv-x="603" 
d="M300 664q12 -26 37.5 -43t53 -24.5t58 -23.5t54 -37t39 -67t15.5 -112q0 -106 -36.5 -160t-105.5 -54q-49 0 -115 29q-67 -29 -117 -29q-142 0 -142 212q0 66 16 112t40.5 67t55.5 37t59 24t52.5 25.5t35.5 43.5zM300 160q-9 -29 -9 -53q0 -46 27 -74t74 -28h211v-101
h-603v101h245q-16 18 -16 46q0 31 18 61t53 48z" />
    <glyph glyph-name="orn5" horiz-adv-x="843" 
d="M15 282q26 12 43 38t24.5 53.5t23.5 57.5t37 53.5t67 39t112 15.5q214 0 214 -141q0 -49 -29 -116q29 -66 29 -117q0 -141 -212 -141q-66 0 -112 16t-67 40.5t-37 55.5t-24 58.5t-25.5 52.5t-43.5 35zM406 282q28 48 28 74q0 56 -112 56q-46 0 -73.5 -9.5t-39 -25.5
t-18 -32.5t-17.5 -34.5t-29 -28q18 -9 29 -26.5t17.5 -34.5t18 -33t39.5 -26t74 -10q59 0 84.5 12t25.5 38q0 28 -27 80zM519 282q25 -8 53 -8q46 0 74 26.5t28 73.5v211h101v-603h-101v245q-16 -15 -46 -15q-31 0 -61 18t-48 52z" />
    <glyph glyph-name="orn6" horiz-adv-x="843" 
d="M15 285q26 11 43.5 35.5t25.5 52.5t24 59t37 55.5t67 40.5t112 16q212 0 212 -142q0 -50 -29 -117q29 -66 29 -115q0 -69 -54 -105.5t-160 -36.5q-66 0 -112 15.5t-67 39t-37 54t-23.5 58t-24.5 53t-43 37.5zM519 285q18 35 48 53t61 18q28 0 46 -16v245h101v-603h-101
v211q0 47 -28 74t-74 27q-24 0 -53 -9z" />
    <glyph glyph-name="orn7" horiz-adv-x="843" 
d="M828 283q-26 -11 -43.5 -35.5t-25.5 -52.5t-24 -59t-37.5 -55.5t-67.5 -40.5t-112 -16q-211 0 -211 142q0 50 29 117q-30 65 -30 115q0 68 54 105t160 37q66 0 112 -15.5t67 -39t37 -54t24 -58t25 -53t43 -37.5zM437 283q-28 -54 -28 -80q0 -27 25.5 -39t84.5 -12
q46 0 74.5 10t40 26t17.5 33t17 35t29 27q-18 10 -29 28t-17.5 34.5t-18 32t-39 25t-73.5 9.5q-112 0 -112 -55q0 -27 29 -74zM323 283q-17 -35 -47.5 -53t-61.5 -18q-27 0 -46 16v-245h-101v603h101v-211q0 -47 28 -74t74 -27q26 0 53 9z" />
    <glyph glyph-name="orn8" horiz-adv-x="843" 
d="M828 286q-26 -12 -43 -38t-25 -53.5t-24 -57.5t-37 -53.5t-67 -39t-112 -15.5q-106 0 -160 36.5t-54 104.5q0 50 30 116q-29 66 -29 117q0 141 211 141q66 0 112 -16t67.5 -40.5t37.5 -55.5t24 -58.5t25.5 -52.5t43.5 -35zM323 286q-24 8 -53 8q-46 0 -74 -26.5
t-28 -73.5v-211h-101v603h101v-245q18 15 46 15q31 0 61.5 -18t47.5 -52z" />
    <glyph glyph-name="publish" horiz-adv-x="837" 
d="M777 355q0 -208 -86 -288.5t-273 -80.5q-93 0 -157 17.5t-110.5 59t-68.5 113.5t-22 179q0 105 22 175.5t69 110.5t110.5 56.5t156.5 16.5t157 -16.5t111 -56.5t69 -110.5t22 -175.5zM505 411q0 60 -44 60h-95v-117h93q25 0 35.5 14t10.5 43zM611 410q0 -69 -29.5 -107.5
t-88.5 -38.5h-127v-122h-105v417h231q119 0 119 -149zM418 622q-74 0 -117 -9t-75 -38t-44 -81t-12 -140t12 -141.5t43.5 -84t75.5 -40.5t117 -10q74 0 118 10t75.5 40.5t43.5 84t12 141.5t-12 140t-44 81t-75 38t-118 9z" />
    <glyph glyph-name="zerob" horiz-adv-x="770" 
d="M384 614q-99 0 -144 -55.5t-45 -202.5q0 -151 45.5 -210.5t143.5 -59.5q99 0 144.5 59.5t45.5 210.5q0 147 -45 202.5t-145 55.5zM384 171q-56 0 -75.5 36t-19.5 149q0 112 18.5 143.5t76.5 31.5q41 0 60 -12t28 -48.5t9 -114.5q0 -113 -19.5 -149t-77.5 -36zM385 714
q87 0 146 -16.5t102 -56.5t63 -110.5t20 -175.5q0 -107 -20 -179t-63 -113.5t-102.5 -59t-145.5 -17.5q-87 0 -146.5 17.5t-102.5 59t-63 113.5t-20 179q0 105 20 175.5t63.5 110.5t102.5 56.5t146 16.5z" />
    <glyph glyph-name="oneb" horiz-adv-x="770" 
d="M354 100h92v526l-232 -93l26 -77l114 49v-405zM385 714q87 0 146 -16.5t102 -56.5t63 -110.5t20 -175.5q0 -107 -20 -179t-63 -113.5t-102.5 -59t-145.5 -17.5q-87 0 -146.5 17.5t-102.5 59t-63 113.5t-20 179q0 105 20 175.5t63.5 110.5t102.5 56.5t146 16.5z" />
    <glyph glyph-name="twob" horiz-adv-x="770" 
d="M385 714q87 0 146 -16.5t102 -56.5t63 -110.5t20 -175.5q0 -107 -20 -179t-63 -113.5t-102.5 -59t-145.5 -17.5q-87 0 -146.5 17.5t-102.5 59t-63 113.5t-20 179q0 105 20 175.5t63.5 110.5t102.5 56.5t146 16.5zM211 592l20 -80q57 19 133 19q53 0 74 -15.5t21 -56.5
q0 -40 -16.5 -67.5t-67 -71.5t-183.5 -147v-75h366v81h-239q154 107 196.5 159t42.5 129q0 84 -44 116.5t-143 32.5q-88 0 -160 -24z" />
    <glyph glyph-name="threeb" horiz-adv-x="770" 
d="M305 402v-81h71q52 0 72.5 -16.5t20.5 -59.5q0 -42 -24 -58t-96 -16q-79 0 -129 15l-18 -81q78 -19 165 -19q110 0 156.5 33t46.5 114q0 62 -25.5 95t-92.5 36q63 6 84.5 35.5t21.5 85.5q0 70 -42 99.5t-149 29.5q-78 0 -162 -19l18 -81q52 15 126 15q66 0 88 -13t22 -48
q0 -37 -18.5 -51.5t-65.5 -14.5h-70zM385 714q87 0 146 -16.5t102 -56.5t63 -110.5t20 -175.5q0 -107 -20 -179t-63 -113.5t-102.5 -59t-145.5 -17.5q-87 0 -146.5 17.5t-102.5 59t-63 113.5t-20 179q0 105 20 175.5t63.5 110.5t102.5 56.5t146 16.5z" />
    <glyph glyph-name="fourb" horiz-adv-x="770" 
d="M162 226h252v-130h91v130h67v78h-67v297h-127q-103 -140 -216 -346v-29zM414 520v-216h-138q69 126 138 216zM385 714q87 0 146 -16.5t102 -56.5t63 -110.5t20 -175.5q0 -107 -20 -179t-63 -113.5t-102.5 -59t-145.5 -17.5q-87 0 -146.5 17.5t-102.5 59t-63 113.5
t-20 179q0 105 20 175.5t63.5 110.5t102.5 56.5t146 16.5z" />
    <glyph glyph-name="fiveb" horiz-adv-x="770" 
d="M539 599h-312v-282q57 10 124 10q68 0 89 -16.5t21 -65.5q0 -46 -22.5 -61t-92.5 -15q-76 0 -124 15l-18 -82q74 -18 160 -18q110 0 154 35.5t44 129.5q0 86 -40 122t-145 36q-33 0 -61 -3v112h223v83zM385 714q87 0 146 -16.5t102 -56.5t63 -110.5t20 -175.5
q0 -107 -20 -179t-63 -113.5t-102.5 -59t-145.5 -17.5q-87 0 -146.5 17.5t-102.5 59t-63 113.5t-20 179q0 105 20 175.5t63.5 110.5t102.5 56.5t146 16.5z" />
    <glyph glyph-name="sixb" horiz-adv-x="770" 
d="M538 511l21 83q-65 20 -140 20q-126 0 -177 -55t-51 -206q0 -153 43 -210t152 -57q105 0 147 35.5t42 130.5q0 86 -41 121.5t-146 35.5q-57 0 -97 -8q4 79 32 103t96 24q73 0 119 -17zM477 247q0 -43 -18.5 -59.5t-72.5 -16.5q-52 0 -73.5 29.5t-22.5 121.5q44 7 88 7
q60 0 79.5 -17t19.5 -65zM385 714q87 0 146 -16.5t102 -56.5t63 -110.5t20 -175.5q0 -107 -20 -179t-63 -113.5t-102.5 -59t-145.5 -17.5q-87 0 -146.5 17.5t-102.5 59t-63 113.5t-20 179q0 105 20 175.5t63.5 110.5t102.5 56.5t146 16.5z" />
    <glyph glyph-name="sevenb" horiz-adv-x="770" 
d="M274 96h101q96 266 221 505h-392v-83h254q-110 -212 -184 -422zM385 714q87 0 146 -16.5t102 -56.5t63 -110.5t20 -175.5q0 -107 -20 -179t-63 -113.5t-102.5 -59t-145.5 -17.5q-87 0 -146.5 17.5t-102.5 59t-63 113.5t-20 179q0 105 20 175.5t63.5 110.5t102.5 56.5
t146 16.5z" />
    <glyph glyph-name="eightb" horiz-adv-x="770" 
d="M385 163q-53 0 -72.5 17t-19.5 62t20.5 63.5t71.5 18.5t71 -18.5t20 -63.5t-19.5 -62t-71.5 -17zM385 398q-45 0 -64.5 16.5t-19.5 55.5q0 37 18.5 51t65.5 14q46 0 64 -14t18 -51q0 -39 -19 -55.5t-63 -16.5zM384 86h1q103 0 146 33t43 114q0 62 -25.5 95t-92.5 36
q63 6 85.5 35.5t22.5 85.5q0 69 -39 99t-141 30t-140.5 -30t-38.5 -99q0 -56 22.5 -85.5t85.5 -35.5q-68 -3 -93 -36t-25 -95q0 -81 43 -114t146 -33zM385 714q87 0 146 -16.5t102 -56.5t63 -110.5t20 -175.5q0 -107 -20 -179t-63 -113.5t-102.5 -59t-145.5 -17.5
q-87 0 -146.5 17.5t-102.5 59t-63 113.5t-20 179q0 105 20 175.5t63.5 110.5t102.5 56.5t146 16.5z" />
    <glyph glyph-name="nineb" horiz-adv-x="770" 
d="M382 293q19 0 65 4q-42 -84 -165 -199h118q83 80 130.5 161.5t47.5 181.5q0 103 -39.5 139t-153.5 36q-104 0 -146.5 -38t-42.5 -133q0 -85 40 -118.5t146 -33.5zM479 431q0 -29 -7 -53q-38 -6 -80 -6q-61 0 -79.5 15t-18.5 63q0 45 18 63.5t73 18.5t74.5 -18.5
t19.5 -82.5zM385 -14q-87 0 -146.5 17.5t-102.5 59t-63 113.5t-20 179q0 105 20 175.5t63.5 110.5t102.5 56.5t146 16.5t146 -16.5t102 -56.5t63 -110.5t20 -175.5q0 -107 -20 -179t-63 -113.5t-102.5 -59t-145.5 -17.5z" />
    <glyph glyph-name="apple" horiz-adv-x="912" 
d="M273 -14q-109 0 -165 60.5t-56 208.5q0 68 17 116.5t45.5 76t64 45.5t75.5 31.5t76.5 28.5t70.5 42t55 66q21 -39 55 -66t70.5 -42t76.5 -28.5t75.5 -31.5t64 -45.5t45.5 -76t17 -116.5q0 -148 -56 -208.5t-165 -60.5q-64 0 -122 29v-207h-123v207q-56 -29 -121 -29z
M517 474v-334q0 -22 29 -35.5t71 -13.5q66 0 91 34t25 127q0 53 -13 86.5t-36.5 50t-49 26t-59.5 24.5t-58 35zM394 140v334q-24 -20 -57.5 -35t-59 -24.5t-49 -26t-36.5 -50t-13 -86.5q0 -94 24.5 -127.5t91.5 -33.5q42 0 70.5 13.5t28.5 35.5z" />
    <glyph glyph-name="sp" horiz-adv-x="1076" 
d="M557 -192v570q-172 45 -298 45q-51 0 -71.5 -11t-20.5 -48q0 -26 21.5 -37.5t83.5 -17.5q95 -10 136 -44t41 -109q0 -94 -56 -132t-162 -38t-182 27l26 98q68 -24 151 -24q55 0 77.5 12t22.5 50q0 28 -22.5 41.5t-86.5 19.5q-89 7 -130.5 38.5t-41.5 106.5q0 93 56.5 131
t161.5 38q149 0 294 -38q91 38 223 38q130 0 187 -58.5t57 -210.5q0 -148 -56 -208.5t-165 -60.5q-64 0 -122 29v-207h-124zM681 402v-262q0 -22 29 -35.5t71 -13.5q66 0 91 34t25 127q0 102 -24.5 133.5t-92.5 31.5q-60 0 -99 -15z" />
    <glyph glyph-name="at.2" horiz-adv-x="943" 
d="M682 438v-303q-99 -40 -225 -40q-117 0 -161.5 35t-44.5 134q0 100 46.5 133t141.5 33q61 0 125 -14q0 69 -23.5 90.5t-104.5 21.5q-66 0 -107 -6t-73.5 -21t-48.5 -45.5t-24 -74.5t-8 -113q0 -86 12.5 -137t48 -82t90 -41.5t147.5 -10.5q124 0 188 24.5t89.5 81
t25.5 165.5q0 110 -20 167h109q20 -69 20 -169q0 -112 -22 -184t-73.5 -114t-125.5 -58.5t-190 -16.5q-114 0 -189 17t-128 59.5t-76 114.5t-23 182q0 108 24 180t75 112.5t119.5 56.5t169.5 16q129 0 182.5 -41.5t53.5 -151.5zM564 207v126q-43 9 -94 9q-52 0 -74 -14
t-22 -59t19 -62t73 -17q50 0 98 17z" />
    <glyph glyph-name="ampersand.2" horiz-adv-x="757" 
d="M622 311v-277q-54 -22 -134 -35t-152 -13q-134 0 -204 46.5t-70 155.5q0 86 35.5 131.5t128.5 49.5q-84 8 -113.5 48.5t-29.5 117.5q0 93 60 136t182 43q77 0 164 -24l-36 -114q-54 20 -110 20q-68 0 -94 -18.5t-26 -66.5q0 -49 24.5 -69.5t83.5 -20.5h165v85l126 50
v-135h134v-110h-134zM496 121v190h-173q-64 0 -91 -23.5t-27 -81.5q0 -57 31.5 -79t115.5 -22q85 0 144 16z" />
    <glyph glyph-name="Abrevesmall" horiz-adv-x="563" 
d="M427 0q-20 45 -47 123h-213q-18 -58 -36 -123h-128q60 208 183 509h193q93 -317 178 -509h-130zM288 409h-21q-33 -82 -71 -195h153q-33 96 -61 195zM130 697h85q0 -34 15.5 -46t50.5 -12t51 12.5t16 45.5h80q0 -137 -150 -137q-148 0 -148 137z" />
    <glyph glyph-name="Amacronsmall" horiz-adv-x="563" 
d="M427 0q-20 45 -47 123h-213q-18 -58 -36 -123h-128q60 208 183 509h193q93 -317 178 -509h-130zM288 409h-21q-33 -82 -71 -195h153q-33 96 -61 195zM138 576v90h278v-90h-278z" />
    <glyph glyph-name="Aogoneksmall" horiz-adv-x="563" 
d="M427 0q-20 45 -47 123h-213q-18 -58 -36 -123h-128q60 208 183 509h193q93 -317 178 -509h-130zM288 409h-21q-33 -82 -71 -195h153q-33 96 -61 195zM482 12h39q-50 -30 -67 -52t-17 -52q0 -22 12.5 -31t47.5 -9q51 0 83 27l35 -63q-47 -35 -131 -35q-74 0 -103 21.5
t-29 67.5q0 42 33 75.5t97 50.5z" />
    <glyph glyph-name="bracketleftsmall" horiz-adv-x="378" 
d="M90 657h270v-108h-141v-593h141v-107h-270v808z" />
    <glyph glyph-name="braceleftsmall" horiz-adv-x="356" 
d="M37 201v-1v99q48 0 75 32t27 120q0 175 154 213l51 -90q-50 -15 -71.5 -48t-21.5 -117q0 -141 -93 -159q93 -18 93 -161q0 -83 21 -115.5t72 -48.5q-8 -15 -25 -44.5t-26 -44.5q-154 38 -154 213q0 88 -27 120t-75 32z" />
    <glyph glyph-name="Dcaronsmall" horiz-adv-x="584" 
d="M69 509h216q129 0 188 -54.5t59 -197.5q0 -144 -59 -200.5t-188 -56.5h-216v509zM276 413h-83v-317h83q70 0 99 31.5t29 127.5q0 98 -28.5 128t-99.5 30zM94 697h117l71 -76l69 76h113l-122 -129h-122z" />
    <glyph glyph-name="Dcroatsmall" horiz-adv-x="584" 
d="M22 220v90h47v199h216q129 0 188 -54.5t59 -197.5q0 -144 -59 -200.5t-188 -56.5h-216v220h-47zM276 413h-83v-103h89v-90h-89v-124h83q70 0 99 31.5t29 127.5q0 98 -28.5 128t-99.5 30z" />
    <glyph glyph-name="Dmacronsmall" horiz-adv-x="584" 
d="M69 509h216q129 0 188 -54.5t59 -197.5q0 -144 -59 -200.5t-188 -56.5h-216v509zM276 413h-83v-317h83q70 0 99 31.5t29 127.5q0 98 -28.5 128t-99.5 30zM137 576v90h278v-90h-278z" />
    <glyph glyph-name="Emacronsmall" horiz-adv-x="505" 
d="M467 509v-101h-274v-95h210v-95h-210v-117h274v-101h-398v509h398zM134 576v90h278v-90h-278z" />
    <glyph glyph-name="Eurosmall" horiz-adv-x="469" 
d="M421 104l27 -92q-65 -26 -150 -26q-121 0 -184 61t-63 210q0 148 63 207.5t184 59.5q85 0 150 -24l-27 -92q-51 19 -114 19q-47 0 -74 -14.5t-40 -52.5h187v-69h-200q-1 -10 -1 -36q0 -22 1 -32h200v-68h-188q22 -72 115 -72q62 0 114 21z" />
    <glyph glyph-name="Eogoneksmall" horiz-adv-x="505" 
d="M467 509v-101h-274v-95h210v-95h-210v-117h274v-101h-398v509h398zM387 12h39q-50 -30 -67 -52t-17 -52q0 -22 12.5 -31t47.5 -9q51 0 83 27l35 -63q-47 -35 -131 -35q-74 0 -103 21.5t-29 67.5q0 42 33 75.5t97 50.5z" />
    <glyph glyph-name="Ecaronsmall" horiz-adv-x="505" 
d="M467 509v-101h-274v-95h210v-95h-210v-117h274v-101h-398v509h398zM103 697h117l71 -76l69 76h113l-122 -129h-122z" />
    <glyph glyph-name="Edotaccentsmall" horiz-adv-x="505" 
d="M467 509v-101h-274v-95h210v-95h-210v-117h274v-101h-398v509h398zM281 681q35 0 47.5 -10t12.5 -45q0 -38 -12.5 -50t-47.5 -12t-47 11.5t-12 50.5q0 35 12 45t47 10z" />
    <glyph glyph-name="Ebrevesmall" horiz-adv-x="505" 
d="M467 509v-101h-274v-95h210v-95h-210v-117h274v-101h-398v509h398zM131 697h85q0 -34 15.5 -46t50.5 -12t51 12.5t16 45.5h80q0 -137 -150 -137q-148 0 -148 137z" />
    <glyph glyph-name="Gacutesmall" horiz-adv-x="569" 
d="M505 297v-276q-98 -35 -202 -35q-123 0 -187.5 61t-64.5 210q0 147 68 207t194 60q100 0 170 -24l-32 -102q-62 22 -134 22q-74 0 -106 -32.5t-32 -132.5q0 -96 32 -130.5t101 -34.5q49 0 82 14v96h-108v97h219zM308 568h-109l121 129h133z" />
    <glyph glyph-name="Gbrevesmall" horiz-adv-x="569" 
d="M505 297v-276q-98 -35 -202 -35q-123 0 -187.5 61t-64.5 210q0 147 68 207t194 60q100 0 170 -24l-32 -102q-62 22 -134 22q-74 0 -106 -32.5t-32 -132.5q0 -96 32 -130.5t101 -34.5q49 0 82 14v96h-108v97h219zM161 697h85q0 -34 15.5 -46t50.5 -12t51 12.5t16 45.5h80
q0 -137 -150 -137q-148 0 -148 137z" />
    <glyph glyph-name="Gcircumflexsmall" horiz-adv-x="569" 
d="M505 297v-276q-98 -35 -202 -35q-123 0 -187.5 61t-64.5 210q0 147 68 207t194 60q100 0 170 -24l-32 -102q-62 22 -134 22q-74 0 -106 -32.5t-32 -132.5q0 -96 32 -130.5t101 -34.5q49 0 82 14v96h-108v97h219zM494 568h-117l-71 76l-69 -76h-113l122 129h122z" />
    <glyph glyph-name="Gcommaaccentsmall" horiz-adv-x="569" 
d="M505 297v-276q-98 -35 -202 -35q-123 0 -187.5 61t-64.5 210q0 147 68 207t194 60q100 0 170 -24l-32 -102q-62 22 -134 22q-74 0 -106 -32.5t-32 -132.5q0 -96 32 -130.5t101 -34.5q49 0 82 14v96h-108v97h219zM381 -51l-108 -167h-97l71 167h134z" />
    <glyph glyph-name="Gdotaccentsmall" horiz-adv-x="569" 
d="M505 297v-276q-98 -35 -202 -35q-123 0 -187.5 61t-64.5 210q0 147 68 207t194 60q100 0 170 -24l-32 -102q-62 22 -134 22q-74 0 -106 -32.5t-32 -132.5q0 -96 32 -130.5t101 -34.5q49 0 82 14v96h-108v97h219zM306 681q35 0 47.5 -10t12.5 -45q0 -38 -12.5 -50
t-47.5 -12t-47 11.5t-12 50.5q0 35 12 45t47 10z" />
    <glyph glyph-name="Germandblssmall" horiz-adv-x="981" 
d="M924 496l-27 -97q-74 24 -148 24q-51 0 -71.5 -11t-20.5 -48q0 -26 21.5 -37.5t83.5 -17.5q95 -10 136 -44t41 -109q0 -94 -56 -132t-162 -38t-182 27l26 98q68 -24 151 -24q55 0 77.5 12t22.5 50q0 28 -22.5 41.5t-86.5 19.5q-89 7 -130.5 38.5t-41.5 106.5
q0 93 56.5 131t161.5 38q87 0 171 -28zM434 496l-27 -97q-74 24 -148 24q-51 0 -71.5 -11t-20.5 -48q0 -26 21.5 -37.5t83.5 -17.5q95 -10 136 -44t41 -109q0 -94 -56 -132t-162 -38t-182 27l26 98q68 -24 151 -24q55 0 77.5 12t22.5 50q0 28 -22.5 41.5t-86.5 19.5
q-89 7 -130.5 38.5t-41.5 106.5q0 93 56.5 131t161.5 38q87 0 171 -28z" />
    <glyph glyph-name="Hbarsmall" horiz-adv-x="587" 
d="M13 381v79h56v49h124v-49h200v49h124v-49h57v-79h-57v-381h-124v216h-200v-216h-124v381h-56zM193 322h200v59h-200v-59z" />
    <glyph glyph-name="Hcircumflexsmall" horiz-adv-x="587" 
d="M393 216h-200v-216h-124v509h124v-187h200v187h124v-509h-124v216zM480 568h-117l-71 76l-69 -76h-113l122 129h122z" />
    <glyph glyph-name="IJsmall" horiz-adv-x="675" 
d="M193 509v-509h-124v509h124zM607 509v-333q0 -190 -198 -190q-84 0 -148 23l24 106q52 -20 112 -20q86 0 86 90v324h124z" />
    <glyph glyph-name="Imacronsmall" horiz-adv-x="262" 
d="M193 509v-509h-124v509h124zM-7 576v90h278v-90h-278z" />
    <glyph glyph-name="Iogoneksmall" horiz-adv-x="262" 
d="M193 509v-509h-124v509h124zM132 12h39q-50 -30 -67 -52t-17 -52q0 -22 12.5 -31t47.5 -9q51 0 83 27l35 -63q-47 -35 -131 -35q-74 0 -103 21.5t-29 67.5q0 42 33 75.5t97 50.5z" />
    <glyph glyph-name="Itildesmall" horiz-adv-x="262" 
d="M193 509v-509h-124v509h124zM255 702l62 -50q-33 -93 -117 -93q-31 0 -74.5 26.5t-66.5 26.5q-31 0 -52 -51l-56 55q46 81 109 81q37 0 79 -26.5t63 -26.5q18 0 29.5 12.5t23.5 45.5z" />
    <glyph glyph-name="Jcircumflexsmall" horiz-adv-x="414" 
d="M346 509v-333q0 -190 -198 -190q-84 0 -148 23l24 106q52 -20 112 -20q86 0 86 90v324h124zM466 568h-117l-71 76l-69 -76h-113l122 129h122z" />
    <glyph glyph-name="Kcommaaccentsmall" horiz-adv-x="551" 
d="M193 509v-509h-124v509h124zM552 0h-146q-174 252 -213 269q49 40 197 240h147q-139 -188 -195 -231q22 -13 78 -86t132 -192zM377 -51l-108 -167h-97l71 167h134z" />
    <glyph glyph-name="Lacutesmall" horiz-adv-x="432" 
d="M193 509v-398h240v-111h-364v509h124zM200 568h-109l121 129h133z" />
    <glyph glyph-name="Lcaronsmall" horiz-adv-x="432" 
d="M193 509v-398h240v-111h-364v509h124zM271 540h110l-57 -192h-73z" />
    <glyph glyph-name="Lcommaaccentsmall" horiz-adv-x="432" 
d="M193 509v-398h240v-111h-364v509h124zM319 -51l-108 -167h-97l71 167h134z" />
    <glyph glyph-name="Ldotsmall" horiz-adv-x="432" 
d="M193 509v-398h240v-111h-364v509h124zM309 382q35 0 47.5 -10t12.5 -45q0 -38 -12.5 -50t-47.5 -12t-47 11.5t-12 50.5q0 35 12 45t47 10z" />
    <glyph glyph-name="Nacutesmall" horiz-adv-x="593" 
d="M400 198v311h124v-509h-124q-117 208 -207 321v-321h-124v509h122q130 -168 209 -311zM320 568h-109l121 129h133z" />
    <glyph glyph-name="Ncaronsmall" horiz-adv-x="593" 
d="M400 198v311h124v-509h-124q-117 208 -207 321v-321h-124v509h122q130 -168 209 -311zM114 697h117l71 -76l69 76h113l-122 -129h-122z" />
    <glyph glyph-name="Ncommaaccentsmall" horiz-adv-x="593" 
d="M400 198v311h124v-509h-124q-117 208 -207 321v-321h-124v509h122q130 -168 209 -311zM373 -51l-108 -167h-97l71 167h134z" />
    <glyph glyph-name="Obrevesmall" 
d="M293 -14q-127 0 -184.5 59.5t-57.5 211.5q0 150 58 208.5t184 58.5q128 0 186 -58.5t58 -208.5q0 -152 -58 -211.5t-186 -59.5zM293 423q-68 0 -91 -31t-23 -137q0 -103 23.5 -135.5t90.5 -32.5q69 0 92.5 32.5t23.5 135.5q0 73 -11 109t-34 47.5t-71 11.5zM144 697h85
q0 -34 15.5 -46t51.5 -12q34 0 50 12t16 46h80q0 -137 -149 -137t-149 137z" />
    <glyph glyph-name="Ohungarumlautsmall" 
d="M293 -14q-127 0 -184.5 59.5t-57.5 211.5q0 150 58 208.5t184 58.5q128 0 186 -58.5t58 -208.5q0 -152 -58 -211.5t-186 -59.5zM293 423q-68 0 -91 -31t-23 -137q0 -103 23.5 -135.5t90.5 -32.5q69 0 92.5 32.5t23.5 135.5q0 73 -11 109t-34 47.5t-71 11.5zM226 568h-85
l91 129h109zM391 568h-86l91 129h109z" />
    <glyph glyph-name="Omacronsmall" 
d="M293 -14q-127 0 -184.5 59.5t-57.5 211.5q0 150 58 208.5t184 58.5q128 0 186 -58.5t58 -208.5q0 -152 -58 -211.5t-186 -59.5zM293 423q-68 0 -91 -31t-23 -137q0 -103 23.5 -135.5t90.5 -32.5q69 0 92.5 32.5t23.5 135.5q0 73 -11 109t-34 47.5t-71 11.5zM156 576v90
h278v-90h-278z" />
    <glyph glyph-name="parenleftsmall" horiz-adv-x="345" 
d="M68 250q0 175 58.5 274.5t156.5 134.5l57 -92q-32 -12 -56 -31.5t-44.5 -54.5t-31 -93t-10.5 -138q0 -105 20 -173t49 -97.5t73 -46.5l-57 -92q-98 35 -156.5 134.5t-58.5 274.5z" />
    <glyph glyph-name="Racutesmall" horiz-adv-x="574" 
d="M369 509q157 0 157 -149q0 -135 -140 -140q41 -10 75.5 -50.5t107.5 -169.5h-144q-58 109 -92 145t-69 36h-71v-181h-124v509h300zM193 279h141q63 0 63 66q0 64 -61 64h-143v-130zM282 568h-109l121 129h133z" />
    <glyph glyph-name="Rcaronsmall" horiz-adv-x="574" 
d="M369 509q157 0 157 -149q0 -135 -140 -140q41 -10 75.5 -50.5t107.5 -169.5h-144q-58 109 -92 145t-69 36h-71v-181h-124v509h300zM193 279h141q63 0 63 66q0 64 -61 64h-143v-130zM106 697h117l71 -76l69 76h113l-122 -129h-122z" />
    <glyph glyph-name="Rcommaaccentsmall" horiz-adv-x="574" 
d="M369 509q157 0 157 -149q0 -135 -140 -140q41 -10 75.5 -50.5t107.5 -169.5h-144q-58 109 -92 145t-69 36h-71v-181h-124v509h300zM193 279h141q63 0 63 66q0 64 -61 64h-143v-130zM371 -51l-108 -167h-97l71 167h134z" />
    <glyph glyph-name="sterlingsmall" horiz-adv-x="513" 
d="M32 203v90h50v50q0 181 234 181q89 0 170 -24l-26 -101q-59 19 -144 19q-64 0 -89 -20t-25 -62v-43h154v-90h-154v-99h266v-104h-386v203h-50z" />
    <glyph glyph-name="summationsmall" horiz-adv-x="497" 
d="M473 401h-248q33 -54 96 -143q-78 -112 -109 -150h255v-108h-449v25q55 71 166 232q-88 128 -150 227v25h439v-108z" />
    <glyph glyph-name="Tbarsmall" horiz-adv-x="485" 
d="M104 178v90h76v133h-175v108h475v-108h-176v-133h78v-90h-78v-178h-124v178h-76z" />
    <glyph glyph-name="Tcommaaccentsmall" horiz-adv-x="485" 
d="M304 401v-401h-124v401h-175v108h475v-108h-176zM323 -51l-108 -167h-97l71 167h134z" />
    <glyph glyph-name="Tcaronsmall" horiz-adv-x="485" 
d="M304 401v-401h-124v401h-175v108h475v-108h-176zM59 697h117l71 -76l69 76h113l-122 -129h-122z" />
    <glyph glyph-name="Utildesmall" horiz-adv-x="578" 
d="M289 97q58 0 78.5 23t20.5 79v310h123v-303q0 -124 -49.5 -172t-172.5 -48t-173 48.5t-50 171.5v303h124v-310q0 -56 20.5 -79t78.5 -23zM410 702l62 -50q-33 -93 -117 -93q-31 0 -74.5 26.5t-66.5 26.5q-31 0 -52 -51l-56 55q46 81 109 81q37 0 79 -26.5t63 -26.5
q18 0 29.5 12.5t23.5 45.5z" />
    <glyph glyph-name="Uringsmall" horiz-adv-x="578" 
d="M289 97q58 0 78.5 23t20.5 79v310h123v-303q0 -124 -49.5 -172t-172.5 -48t-173 48.5t-50 171.5v303h124v-310q0 -56 20.5 -79t78.5 -23zM290 741q61 0 90 -22.5t29 -75.5t-28.5 -75.5t-90.5 -22.5t-91 22.5t-29 75.5t28 75.5t92 22.5zM290 684q-30 0 -40 -9.5t-10 -33.5
q0 -23 10.5 -33t39.5 -10t39.5 10t10.5 33q0 24 -10 33.5t-40 9.5z" />
    <glyph glyph-name="Uogoneksmall" horiz-adv-x="578" 
d="M289 97q58 0 78.5 23t20.5 79v310h123v-303q0 -124 -49.5 -172t-172.5 -48t-173 48.5t-50 171.5v303h124v-310q0 -56 20.5 -79t78.5 -23zM348 12h39q-50 -30 -67 -52t-17 -52q0 -22 12.5 -31t47.5 -9q51 0 83 27l35 -63q-47 -35 -131 -35q-74 0 -103 21.5t-29 67.5
q0 42 33 75.5t97 50.5z" />
    <glyph glyph-name="Umacronsmall" horiz-adv-x="578" 
d="M289 97q58 0 78.5 23t20.5 79v310h123v-303q0 -124 -49.5 -172t-172.5 -48t-173 48.5t-50 171.5v303h124v-310q0 -56 20.5 -79t78.5 -23zM153 576v90h278v-90h-278z" />
    <glyph glyph-name="Ubrevesmall" horiz-adv-x="578" 
d="M289 97q58 0 78.5 23t20.5 79v310h123v-303q0 -124 -49.5 -172t-172.5 -48t-173 48.5t-50 171.5v303h124v-310q0 -56 20.5 -79t78.5 -23zM143 697h85q0 -34 15.5 -46t50.5 -12t51 12.5t16 45.5h80q0 -137 -150 -137q-148 0 -148 137z" />
    <glyph glyph-name="Uhungarumlautsmall" horiz-adv-x="578" 
d="M289 97q58 0 78.5 23t20.5 79v310h123v-303q0 -124 -49.5 -172t-172.5 -48t-173 48.5t-50 171.5v303h124v-310q0 -56 20.5 -79t78.5 -23zM222 568h-85l91 129h109zM387 568h-86l91 129h109z" />
    <glyph glyph-name="yensmall" horiz-adv-x="487" 
d="M50 220v61h101q-104 144 -175 228h142q54 -64 132 -177q60 72 126 177h135q-77 -116 -164 -228h90v-61h-127v-62h127v-62h-127v-96h-124v96h-136v62h136v62h-136z" />
    <glyph glyph-name="Ycircumflexsmall" horiz-adv-x="487" 
d="M250 332q60 72 126 177h136q-100 -153 -202 -278v-231h-124v231q-129 181 -211 278h144q55 -66 131 -177zM436 568h-117l-71 76l-69 -76h-113l122 129h122z" />
    <glyph glyph-name="zerosmall" horiz-adv-x="561" 
d="M280 -14q-113 0 -167.5 60.5t-54.5 210.5q0 149 55 208t167 59q114 0 168.5 -59t54.5 -208q0 -150 -54.5 -210.5t-168.5 -60.5zM280 424q-54 0 -74.5 -32t-20.5 -137q0 -102 21 -135.5t74 -33.5q54 0 74.5 33.5t20.5 135.5q0 105 -20.5 137t-74.5 32z" />
    <glyph glyph-name="onesmall" horiz-adv-x="561" 
d="M394 0h-124v362l-156 -71l-37 104l317 129v-524z" />
    <glyph glyph-name="twosmall" horiz-adv-x="561" 
d="M92 386l-30 115q98 23 202 23q123 0 173 -37t50 -123q0 -74 -50.5 -131t-196.5 -132h256v-101h-438v91q138 84 198 127t77.5 67t17.5 56q0 39 -23.5 54.5t-84.5 15.5q-34 0 -81 -7.5t-70 -17.5z" />
    <glyph glyph-name="foursmall" horiz-adv-x="561" 
d="M323 121h-295v47q104 163 250 341h164v-290h90v-98h-90v-121h-119v121zM323 219v196q-91 -115 -145 -196h145z" />
    <glyph glyph-name="fivesmall" horiz-adv-x="561" 
d="M92 509h387v-103h-263v-92q60 3 73 3q115 0 161.5 -36t46.5 -124q0 -96 -58.5 -133.5t-189.5 -37.5q-119 0 -188 19l24 102q57 -18 155 -18q73 0 102.5 14t29.5 51q0 41 -27 56.5t-97 15.5q-78 0 -156 -10v293z" />
    <glyph glyph-name="sixsmall" horiz-adv-x="561" 
d="M522 151q0 -93 -54 -129t-174 -36q-61 0 -101 10.5t-72 39t-46.5 82.5t-14.5 137q0 148 67 208.5t202 60.5q90 0 179 -25l-28 -102q-79 23 -148 23q-83 0 -116 -24.5t-35 -92.5q70 12 132 12q112 0 160.5 -35.5t48.5 -128.5zM395 153q0 45 -21.5 60t-82.5 15
q-56 0 -110 -9q1 -83 27.5 -110.5t81.5 -27.5q61 0 83 15.5t22 56.5z" />
    <glyph glyph-name="sevensmall" horiz-adv-x="561" 
d="M50 509h484v-24q-142 -209 -255 -485h-144q102 225 222 401h-307v108z" />
    <glyph glyph-name="eightsmall" horiz-adv-x="561" 
d="M280 83q65 0 87.5 15t22.5 54t-25 54t-85 15q-59 0 -84 -15t-25 -54t22.5 -54t86.5 -15zM280 -14q-134 0 -185 31.5t-51 117.5q0 62 31 96t104 38q-69 6 -95.5 36.5t-26.5 87.5q0 74 46 102.5t177 28.5t177 -28.5t46 -102.5q0 -57 -26 -87.5t-95 -36.5q73 -4 103.5 -38
t30.5 -96q0 -86 -51 -117.5t-185 -31.5zM280 317q56 0 78.5 12.5t22.5 44.5t-21 44t-80 12q-58 0 -79 -12t-21 -44t22.5 -44.5t77.5 -12.5z" />
    <glyph glyph-name="ninesmall" horiz-adv-x="561" 
d="M243 183q-106 0 -152.5 37t-46.5 130q0 94 55.5 134t175.5 40q133 0 187.5 -44.5t54.5 -162.5q0 -48 -15.5 -91t-47.5 -83t-64 -71t-82 -72h-165q81 62 139.5 115.5t70.5 77.5q-78 -10 -110 -10zM387 324q0 61 -23.5 83t-83.5 22q-63 0 -85 -18t-22 -61q0 -44 19.5 -57
t82.5 -13q51 0 100 7q12 21 12 37z" />
    <glyph glyph-name="threesmall" horiz-adv-x="561" 
d="M177 222v93h78q55 0 77.5 11t22.5 40t-22 40.5t-85 11.5q-90 0 -159 -22l-25 108q85 20 186 20q132 0 183.5 -29t51.5 -102q0 -57 -27 -87.5t-96 -36.5q73 -4 103.5 -38t30.5 -96q0 -85 -56.5 -117t-191.5 -32q-104 0 -188 19l26 111q67 -24 159 -24q71 0 95 14.5
t24 52.5q0 35 -25 49t-84 14h-78z" />
    <glyph glyph-name="atsmall" horiz-adv-x="728" 
d="M333 444q-109 0 -146.5 -34.5t-37.5 -149.5q0 -117 43.5 -154.5t170.5 -37.5q126 0 171 44t45 172q0 90 -18 142h98q18 -56 18 -145q0 -168 -73.5 -233t-240.5 -65q-169 0 -240.5 58.5t-71.5 217.5q0 80 18.5 133.5t56.5 83t86.5 41.5t118.5 12q56 0 89 -7.5t57.5 -29.5
t34.5 -62.5t10 -107.5q0 -83 -16 -124t-49.5 -54.5t-101.5 -13.5q-90 0 -122.5 25.5t-32.5 100.5t31.5 100.5t110.5 25.5q47 0 84 -5q-2 38 -22 52.5t-71 14.5zM364 309q-38 0 -50.5 -9t-12.5 -40t12.5 -41t50.5 -10q35 0 48.5 13.5t13.5 52.5v30q-36 4 -62 4z" />
    <glyph glyph-name="backslashsmall" horiz-adv-x="427" 
d="M-8 509h136l308 -509h-135z" />
    <glyph glyph-name="slashsmall" horiz-adv-x="427" 
d="M300 509h136l-309 -509h-135z" />
    <glyph glyph-name="barsmall" horiz-adv-x="371" 
d="M120 659h131v-813h-131v813z" />
    <glyph glyph-name="bracketrightsmall" horiz-adv-x="378" 
d="M18 657h270v-808h-270v107h141v593h-141v108z" />
    <glyph glyph-name="bracerightsmall" horiz-adv-x="356" 
d="M319 299v1v-100q-49 0 -76 -32t-27 -120q0 -174 -154 -213l-51 90q34 10 52.5 24.5t30 49t11.5 92.5q0 141 92 159q-92 15 -92 160q0 58 -11 91.5t-29.5 48.5t-53.5 25l51 89q154 -38 154 -213q0 -88 27 -120t76 -32z" />
    <glyph glyph-name="Cdotaccentsmall" horiz-adv-x="470" 
d="M430 118l28 -106q-65 -26 -155 -26q-124 0 -188 61t-64 210q0 148 64 207.5t188 59.5q90 0 155 -24l-28 -106q-59 22 -118 22q-49 0 -75.5 -10.5t-42 -46t-15.5 -104.5q0 -96 30.5 -128.5t102.5 -32.5q59 0 118 24zM294 681q35 0 47.5 -10t12.5 -45q0 -38 -12.5 -50
t-47.5 -12t-47 11.5t-12 50.5q0 35 12 45t47 10z" />
    <glyph glyph-name="Cacutesmall" horiz-adv-x="470" 
d="M430 118l28 -106q-65 -26 -155 -26q-124 0 -188 61t-64 210q0 148 64 207.5t188 59.5q90 0 155 -24l-28 -106q-59 22 -118 22q-49 0 -75.5 -10.5t-42 -46t-15.5 -104.5q0 -96 30.5 -128.5t102.5 -32.5q59 0 118 24zM305 568h-109l121 129h133z" />
    <glyph glyph-name="Ccaronsmall" horiz-adv-x="470" 
d="M430 118l28 -106q-65 -26 -155 -26q-124 0 -188 61t-64 210q0 148 64 207.5t188 59.5q90 0 155 -24l-28 -106q-59 22 -118 22q-49 0 -75.5 -10.5t-42 -46t-15.5 -104.5q0 -96 30.5 -128.5t102.5 -32.5q59 0 118 24zM106 697h117l71 -76l69 76h113l-122 -129h-122z" />
    <glyph glyph-name="centsmall" horiz-adv-x="423" 
d="M204 524h67v-76q52 -4 87 -15l-23 -74q-24 10 -64 12v-224q38 4 64 14l23 -73q-29 -13 -87 -19v-83h-67v85q-74 9 -113.5 53.5t-39.5 136.5q0 170 153 186v77zM149 259q0 -95 55 -103v207q-55 -8 -55 -104z" />
    <glyph glyph-name="daggersmall" horiz-adv-x="446" 
d="M30 409v100h141v143h103v-143h142v-100h-142v-228h-103v228h-141z" />
    <glyph glyph-name="degreesmall" horiz-adv-x="345" 
d="M172 524q79 0 112.5 -33.5t33.5 -124.5q0 -93 -33.5 -128.5t-112.5 -35.5q-78 0 -112 35.5t-34 128.5q0 91 33.5 124.5t112.5 33.5zM172 270q33 0 43.5 19t10.5 76t-10 74.5t-44 17.5q-33 0 -44 -18t-11 -74t11.5 -75.5t43.5 -19.5z" />
    <glyph glyph-name="dollarsmall" horiz-adv-x="520" 
d="M225 620h69v-102q86 -2 153 -24l-26 -94q-42 14 -127 18v-114q85 -12 126 -47t41 -104q0 -141 -167 -161v-110h-69v108q-96 2 -162 23l27 97q53 -16 135 -20v122q-85 9 -126 41t-41 103q0 141 167 160v104zM169 362q0 -21 12 -32t44 -16v104q-56 -8 -56 -56zM351 149
q0 22 -12.5 34.5t-44.5 18.5v-110q57 8 57 57z" />
    <glyph glyph-name="numbersignsmall" horiz-adv-x="597" 
d="M41 314l6 85h102l7 110h105l-7 -110h99l7 110h105l-7 -110h109l-6 -85h-109l-7 -108h111l-6 -85h-110l-9 -121h-105l9 121h-100l-8 -121h-105l8 121h-100l6 85h100l7 108h-102zM248 314l-7 -108h99l7 108h-99z" />
    <glyph glyph-name="parenrightsmall" horiz-adv-x="345" 
d="M277 250q0 -175 -58.5 -275t-156.5 -135l-57 93q32 12 56 31.5t44.5 54.5t31 93t10.5 138q0 104 -20 172t-49 97.5t-73 46.5l57 93q98 -35 156.5 -134.5t58.5 -274.5z" />
    <glyph glyph-name="percentsmall" horiz-adv-x="763" 
d="M514 509h106l-375 -509h-104zM172 524q79 0 112.5 -33.5t33.5 -124.5q0 -93 -33.5 -128.5t-112.5 -35.5q-78 0 -112 35.5t-34 128.5q0 91 33.5 124.5t112.5 33.5zM172 270q33 0 43.5 19t10.5 76t-10 74.5t-44 17.5q-33 0 -44 -18t-11 -74t11.5 -75.5t43.5 -19.5zM590 307
q79 0 112.5 -33t33.5 -124q0 -93 -33.5 -128.5t-112.5 -35.5q-78 0 -112 35.5t-34 128.5q0 91 33.5 124t112.5 33zM590 54q33 0 43.5 18.5t10.5 76.5q0 57 -10 74t-44 17q-33 0 -44 -17.5t-11 -73.5q0 -57 11.5 -76t43.5 -19z" />
    <glyph glyph-name="sectionsmall" horiz-adv-x="474" 
d="M413 504l-24 -78q-58 18 -128 18q-99 0 -99 -41q0 -20 19 -28t78 -12q87 -7 130 -33t43 -81q0 -39 -31 -73q23 -23 23 -63q0 -67 -53.5 -97t-158.5 -30q-84 0 -151 19l24 79q50 -19 128 -19q37 0 68 10t31 32q0 19 -19 27.5t-78 12.5q-87 7 -130 33t-43 81q0 42 29 74
q-21 24 -21 62q0 67 53.5 97t158.5 30q83 0 151 -20zM158 298q-10 -13 -10 -28q0 -19 22 -28.5t69 -14.5q40 -4 79 -14q9 13 9 29q0 18 -21.5 27t-73.5 15q-45 5 -74 14z" />
    <glyph glyph-name="Sacutesmall" horiz-adv-x="491" 
d="M434 496l-27 -97q-74 24 -148 24q-51 0 -71.5 -11t-20.5 -48q0 -26 21.5 -37.5t83.5 -17.5q95 -10 136 -44t41 -109q0 -94 -56 -132t-162 -38t-182 27l26 98q68 -24 151 -24q55 0 77.5 12t22.5 50q0 28 -22.5 41.5t-86.5 19.5q-89 7 -130.5 38.5t-41.5 106.5
q0 93 56.5 131t161.5 38q87 0 171 -28zM257 568h-109l121 129h133z" />
    <glyph glyph-name="Scedillasmall" horiz-adv-x="491" 
d="M434 496l-27 -97q-74 24 -148 24q-51 0 -71.5 -11t-20.5 -48q0 -26 21.5 -37.5t83.5 -17.5q95 -10 136 -44t41 -109q0 -94 -56 -132t-162 -38t-182 27l26 98q68 -24 151 -24q55 0 77.5 12t22.5 50q0 28 -22.5 41.5t-86.5 19.5q-89 7 -130.5 38.5t-41.5 106.5
q0 93 56.5 131t161.5 38q87 0 171 -28zM212 0h49v-42q60 0 85 -17t25 -61q0 -47 -30.5 -65t-106.5 -18q-62 0 -98 16l22 54q24 -12 71 -12q23 0 32 5.5t9 20.5q0 19 -19.5 24t-74.5 2z" />
    <glyph glyph-name="Scircumflexsmall" horiz-adv-x="491" 
d="M434 496l-27 -97q-74 24 -148 24q-51 0 -71.5 -11t-20.5 -48q0 -26 21.5 -37.5t83.5 -17.5q95 -10 136 -44t41 -109q0 -94 -56 -132t-162 -38t-182 27l26 98q68 -24 151 -24q55 0 77.5 12t22.5 50q0 28 -22.5 41.5t-86.5 19.5q-89 7 -130.5 38.5t-41.5 106.5
q0 93 56.5 131t161.5 38q87 0 171 -28zM443 568h-117l-71 76l-69 -76h-113l122 129h122z" />
    <glyph glyph-name="Scommaaccentsmall" horiz-adv-x="491" 
d="M434 496l-27 -97q-74 24 -148 24q-51 0 -71.5 -11t-20.5 -48q0 -26 21.5 -37.5t83.5 -17.5q95 -10 136 -44t41 -109q0 -94 -56 -132t-162 -38t-182 27l26 98q68 -24 151 -24q55 0 77.5 12t22.5 50q0 28 -22.5 41.5t-86.5 19.5q-89 7 -130.5 38.5t-41.5 106.5
q0 93 56.5 131t161.5 38q87 0 171 -28zM330 -51l-108 -167h-97l71 167h134z" />
    <glyph glyph-name="Wcircumflexsmall" horiz-adv-x="830" 
d="M415 341q-38 -170 -98 -341h-153q-78 281 -164 509h131q65 -174 116 -382q26 75 60 193.5t50 188.5h121q56 -167 103 -382q80 220 118 382h126q-74 -264 -174 -509h-154q-37 192 -82 341zM602 568h-117l-71 76l-69 -76h-113l122 129h122z" />
    <glyph glyph-name="Zacutesmall" horiz-adv-x="497" 
d="M35 509h439v-25q-53 -85 -131.5 -197.5t-130.5 -178.5h255v-108h-449v25q70 88 148 199.5t118 176.5h-249v108zM285 568h-109l121 129h133z" />
    <glyph glyph-name="Zdotaccentsmall" horiz-adv-x="497" 
d="M35 509h439v-25q-53 -85 -131.5 -197.5t-130.5 -178.5h255v-108h-449v25q70 88 148 199.5t118 176.5h-249v108zM253 681q35 0 47.5 -10t12.5 -45q0 -38 -12.5 -50t-47.5 -12t-47 11.5t-12 50.5q0 35 12 45t47 10z" />
    <glyph glyph-name="zeroop" horiz-adv-x="563" 
d="M283 -14q-117 0 -174.5 60.5t-57.5 210.5q0 149 57.5 208t174.5 59t173 -59t56 -208q0 -151 -56 -211t-173 -60zM283 424q-61 0 -82.5 -32t-21.5 -137q0 -103 22 -136t82 -33q61 0 81 32.5t20 136.5q0 107 -20 138t-81 31z" />
    <glyph glyph-name="oneop" horiz-adv-x="380" 
d="M311 0h-125v362l-156 -71l-36 104l317 129v-524z" />
    <glyph glyph-name="twoop" horiz-adv-x="565" 
d="M91 386l-29 115q98 23 209 23q130 0 180 -36.5t50 -123.5q0 -75 -58.5 -137t-203.5 -126h273v-101h-455v91q135 75 201 119t87 71t21 59q0 39 -24 55t-92 16q-35 0 -85.5 -7.5t-73.5 -17.5z" />
    <glyph glyph-name="threeop" horiz-adv-x="582" 
d="M164 121v112h96q65 0 91 19t26 69q0 49 -30 67t-120 18q-104 0 -175 -22l-26 114q120 26 226 26q147 0 205.5 -41t58.5 -137q0 -77 -31 -117.5t-118 -47.5q93 -4 128 -49t35 -131q0 -112 -64.5 -157t-215.5 -45q-116 0 -229 25l25 114q71 -20 178 -20q98 0 130.5 21.5
t32.5 79.5t-27.5 80t-96.5 22h-99z" />
    <glyph glyph-name="fourop" horiz-adv-x="590" 
d="M358 0h-346v40q174 305 297 469h175v-406h93v-103h-93v-192h-126v192zM358 103v296q-73 -93 -186 -296h186z" />
    <glyph glyph-name="fiveop" horiz-adv-x="598" 
d="M83 509h432v-114h-307v-153q52 4 83 4q144 0 200 -49t56 -168q0 -131 -61.5 -181.5t-212.5 -50.5q-118 0 -222 25l26 114q66 -20 171 -20q95 0 125.5 22t30.5 84q0 67 -28.5 89.5t-121.5 22.5q-98 0 -171 -14v389z" />
    <glyph glyph-name="sixop" horiz-adv-x="634" 
d="M560 687l-29 -116q-61 23 -164 23q-88 0 -129.5 -35t-44.5 -138q63 11 132 11q145 0 201.5 -49t56.5 -168q0 -131 -58 -180t-204 -49q-151 0 -210 78.5t-59 289.5q0 107 17 176.5t56.5 110.5t96.5 57t145 16q102 0 193 -27zM321 105q74 0 99 22t25 81q0 62 -25 87
t-100 25q-63 0 -129 -10q2 -124 31 -164.5t99 -40.5z" />
    <glyph glyph-name="sevenop" horiz-adv-x="524" 
d="M530 509v-39q-70 -113 -165 -315.5t-143 -346.5h-149q57 158 138.5 329t143.5 258h-360v114h535z" />
    <glyph glyph-name="eightop" horiz-adv-x="627" 
d="M314 94q71 0 97.5 23t26.5 84t-28 87t-96 26q-69 0 -97 -26t-28 -87t26.5 -84t98.5 -23zM314 417q60 0 86.5 22.5t26.5 75.5q0 51 -25 70t-88 19q-64 0 -89 -19t-25 -70q0 -53 26.5 -75.5t87.5 -22.5zM314 -14h-1q-143 0 -202.5 45.5t-59.5 156.5q0 86 34.5 131.5
t128.5 49.5q-87 8 -117.5 49t-30.5 118q0 95 53 136.5t194 41.5t194.5 -41.5t53.5 -136.5q0 -77 -30.5 -118t-117.5 -49q93 -4 127.5 -49.5t34.5 -131.5q0 -111 -59 -156.5t-202 -45.5z" />
    <glyph glyph-name="nineop" horiz-adv-x="630" 
d="M169 -192q169 160 227 275q-40 -5 -87 -5q-146 0 -202 46t-56 164q0 132 58.5 184t203.5 52q157 0 211.5 -50t54.5 -191q0 -137 -65.5 -250.5t-180.5 -224.5h-164zM323 190q62 0 108 7q9 35 9 72q0 87 -25.5 112t-101.5 25q-74 0 -99 -25t-25 -87q0 -65 25 -84.5
t109 -19.5z" />
    <glyph glyph-name="two.alt" horiz-adv-x="609" 
d="M93 568l-29 114q105 32 226 32q136 0 197 -43.5t61 -159.5q0 -76 -36.5 -128t-124.5 -93q-86 -40 -125 -76.5t-49 -99.5h332v-114h-503q5 64 20.5 115.5t35.5 86t53 65.5t61 49.5t73 43.5q65 35 94 63t29 76q0 57 -28 76.5t-101 19.5q-114 0 -186 -27z" />
    <glyph glyph-name="Ccircumflexsmall" horiz-adv-x="470" 
d="M430 118l28 -106q-65 -26 -155 -26q-124 0 -188 61t-64 210q0 148 64 207.5t188 59.5q90 0 155 -24l-28 -106q-59 22 -118 22q-49 0 -75.5 -10.5t-42 -46t-15.5 -104.5q0 -96 30.5 -128.5t102.5 -32.5q59 0 118 24zM477 568h-117l-71 76l-69 -76h-113l122 129h122z" />
    <glyph glyph-name="ccaront" horiz-adv-x="855" 
d="M534 171v230q-54 0 -135.5 8t-92.5 8q-72 0 -99.5 -31t-27.5 -131q0 -97 28.5 -129.5t98.5 -32.5q62 0 112 21l28 -102q-65 -26 -148 -26q-121 0 -184 61t-63 210q0 147 63.5 207t183.5 60q21 0 103.5 -7.5t132.5 -7.5v86l124 51v-137h169v-108h-169v-219
q0 -48 17.5 -68.5t61.5 -20.5q41 0 85 14l22 -98q-62 -23 -138 -23q-91 0 -131.5 38.5t-40.5 146.5zM111 697h117l71 -76l69 76h113l-122 -129h-122z" />
    <glyph glyph-name="scaront" horiz-adv-x="894" 
d="M573 171v230q-76 1 -186.5 11.5t-127.5 10.5q-51 0 -71.5 -11t-20.5 -48q0 -26 21.5 -37.5t83.5 -17.5q95 -10 136 -44t41 -109q0 -94 -56 -132t-162 -38t-182 27l26 98q68 -24 151 -24q55 0 77.5 12t22.5 50q0 28 -22.5 41.5t-86.5 19.5q-89 7 -130.5 38.5t-41.5 106.5
q0 93 56.5 131t161.5 38q19 0 133 -7.5t177 -7.5v86l124 51v-137h169v-108h-169v-219q0 -48 17.5 -68.5t61.5 -20.5q41 0 85 14l22 -98q-62 -23 -138 -23q-91 0 -131.5 38.5t-40.5 146.5zM74 697h117l71 -76l69 76h113l-122 -129h-122z" />
    <glyph glyph-name="ampersandsmall.2" horiz-adv-x="671" 
d="M659 223h-123v-206q-134 -31 -239 -31q-135 0 -191.5 32t-56.5 117q0 62 30.5 96.5t103.5 38.5q-70 6 -97 34t-27 84q0 74 52 105t184 31q101 0 186 -20l-25 -108q-69 22 -159 22q-63 0 -85 -11t-22 -40t22.5 -40t77.5 -11h369v-93zM181 160q0 -39 24.5 -53.5t94.5 -14.5
q69 0 122 13v118h-135q-57 0 -81.5 -14.5t-24.5 -48.5z" />
    <glyph glyph-name="man" horiz-adv-x="524" 
d="M345 419v-611h-76v372h-13v-372h-76v611q-22 -1 -29 -10.5t-7 -37.5v-191h-94v194q0 83 41 109t171 26q129 0 170.5 -26t41.5 -109v-194h-94v191q0 28 -6.5 37.5t-28.5 10.5zM262 721q61 0 82 -16.5t21 -72.5q0 -63 -21 -82t-82 -19q-63 0 -84.5 19t-21.5 82
q0 56 21.5 72.5t84.5 16.5z" />
    <glyph glyph-name="woman" horiz-adv-x="524" 
d="M324 419v-239q104 -241 180 -372h-484q130 284 180 372v239q-36 -1 -46 -10t-10 -38v-191h-74v194q0 83 38 109t154 26q115 0 153.5 -26.5t38.5 -108.5v-194h-74v191q0 29 -10 38t-46 10zM262 721q61 0 82 -16.5t21 -72.5q0 -63 -21 -82t-82 -19q-63 0 -84.5 19t-21.5 82
q0 56 21.5 72.5t84.5 16.5z" />
    <glyph glyph-name="escaperight" horiz-adv-x="1267" 
d="M446 509q13 -60 73 -118t137 -58l-14 -80q-73 0 -133.5 36.5t-88.5 99.5l-49 -229q107 -2 154.5 -72t11.5 -220h-84q32 120 0 170.5t-152 50.5q-37 -128 -102 -182.5t-177 -54.5l18 77q68 0 111.5 41t66.5 149l65 308q-39 0 -74.5 -41.5t-52.5 -132.5h-82
q31 127 80.5 191.5t144.5 64.5h147zM1245 293l-273 -256l-54 57l163 159h-388l13 80h375l-163 159l54 57zM530 531h-74q-63 0 -84.5 19t-21.5 82q0 56 21.5 72.5t84.5 16.5t85 -18t11 -71z" />
    <glyph glyph-name="noentry" horiz-adv-x="853" 
d="M838 0h-124l-215 215v-407h-66v372h-13v-372h-66v407l-215 -215h-124l199 202v172q0 71 28 99l-223 224h133l187 -191q37 3 87 3q54 0 86 -4l189 192h133l-224 -225q28 -27 28 -98v-171zM426 721q61 0 82 -16.5t21 -72.5q0 -63 -21 -82t-82 -19q-63 0 -84.5 19t-21.5 82
q0 56 21.5 72.5t84.5 16.5zM308 371v-73l46 47v16l-42 41q-4 -7 -4 -31zM544 371q0 22 -4 31l-41 -41v-16l45 -46v72z" />
    <glyph glyph-name="escapeleft" horiz-adv-x="1267" 
d="M821 509h147q95 0 144.5 -64.5t80.5 -191.5h-82q-17 91 -52.5 132.5t-74.5 41.5l65 -308q23 -108 66.5 -149t111.5 -41l18 -77q-112 0 -177 54.5t-102 182.5q-120 0 -152 -50.5t0 -170.5h-84q-36 150 11.5 220t154.5 72l-49 229q-28 -63 -88.5 -99.5t-133.5 -36.5l-14 80
q77 0 137 58t73 118zM295 37l-273 256l273 256l54 -57l-163 -159h375l13 -80h-388l163 -159zM811 531h-74l-22 101q-11 53 11 71t85 18t84.5 -16.5t21.5 -72.5q0 -63 -21.5 -82t-84.5 -19z" />
    <glyph glyph-name="manneg" horiz-adv-x="684" 
d="M426 -192v611q22 -1 28.5 -10.5t6.5 -37.5v-191h94v194q0 83 -41.5 109t-170.5 26q-130 0 -171 -26t-41 -109v-194h94v191q0 28 7 37.5t29 10.5v-611h76v372h13v-372h76zM343 721q-63 0 -84.5 -16.5t-21.5 -72.5q0 -63 21.5 -82t84.5 -19q61 0 82 19t21 82q0 56 -21 72.5
t-82 16.5zM551 -232h-418q-61 0 -82 19t-21 82v803q0 56 21 72.5t82 16.5h418q61 0 82 -16.5t21 -72.5v-803q0 -63 -21 -82t-82 -19z" />
    <glyph glyph-name="womanneg" horiz-adv-x="684" 
d="M405 180v239q36 -1 46 -10t10 -38v-191h74v194q0 82 -38.5 108.5t-153.5 26.5q-116 0 -154 -26t-38 -109v-194h74v191q0 29 10 38t46 10v-239q-50 -88 -180 -372h484q-76 131 -180 372zM343 721q-63 0 -84.5 -16.5t-21.5 -72.5q0 -63 21.5 -82t84.5 -19q61 0 82 19t21 82
q0 56 -21 72.5t-82 16.5zM551 -232h-418q-61 0 -82 19t-21 82v803q0 56 21 72.5t82 16.5h418q61 0 82 -16.5t21 -72.5v-803q0 -63 -21 -82t-82 -19z" />
    <glyph glyph-name="escaperightneg" horiz-adv-x="1373" 
d="M1240 -232h-1107q-61 0 -82 19t-21 82v803q0 56 21 72.5t82 16.5h1107q61 0 82 -16.5t21 -72.5v-803q0 -63 -21 -82t-82 -19zM505 509h-147q-95 0 -144.5 -64.5t-80.5 -191.5h82q17 91 52.5 132.5t74.5 41.5l-65 -308q-23 -108 -66.5 -149t-111.5 -41l-18 -77
q112 0 177 54.5t102 182.5q120 0 152 -50.5t0 -170.5h84q36 150 -11.5 220t-154.5 72l49 229q28 -63 88.5 -99.5t133.5 -36.5l14 80q-77 0 -137 58t-73 118zM1031 37l273 256l-273 256l-54 -57l163 -159h-375l-13 -80h388l-163 -159zM515 531h74l22 101q11 53 -11 71t-85 18
t-84.5 -16.5t-21.5 -72.5q0 -63 21.5 -82t84.5 -19z" />
    <glyph glyph-name="escapeleftneg" horiz-adv-x="1373" 
d="M1240 -232h-1107q-61 0 -82 19t-21 82v803q0 56 21 72.5t82 16.5h1107q61 0 82 -16.5t21 -72.5v-803q0 -63 -21 -82t-82 -19zM868 509q-13 -60 -73 -118t-137 -58l14 -80q73 0 133.5 36.5t88.5 99.5l49 -229q-107 -2 -154.5 -72t-11.5 -220h84q-32 120 0 170.5t152 50.5
q37 -128 102 -182.5t177 -54.5l-18 77q-68 0 -111.5 41t-66.5 149l-65 308q39 0 74.5 -41.5t52.5 -132.5h82q-31 127 -80.5 191.5t-144.5 64.5h-147zM69 293l273 -256l54 57l-163 159h388l-13 80h-375l163 159l-54 57zM784 531h74q63 0 84.5 19t21.5 82q0 56 -21.5 72.5
t-84.5 16.5t-85 -18t-11 -71z" />
    <glyph glyph-name="noentryneg" horiz-adv-x="960" 
d="M827 -232h-694q-61 0 -82 19t-21 82v803q0 56 21 72.5t82 16.5h694q61 0 82 -16.5t21 -72.5v-803q0 -63 -21 -82t-82 -19zM767 0h124l-200 203v171q0 71 -28 98l224 225h-133l-189 -192q-32 4 -86 4q-49 0 -87 -3l-187 191h-133l223 -224q-28 -28 -28 -99v-172l-199 -202
h124l215 215v-407h66v372h13v-372h66v407zM479 721q-63 0 -84.5 -16.5t-21.5 -72.5q0 -63 21.5 -82t84.5 -19q61 0 82 19t21 82q0 56 -21 72.5t-82 16.5zM361 298v73q0 24 4 31l42 -41v-16zM597 371v-72l-45 46v16l41 41q4 -9 4 -31z" />
    <glyph glyph-name="trash" horiz-adv-x="1068" 
d="M171 334h46l20 -127h294l21 127h46l-85 -526h-257zM803 509l76 -329v-372h-66v372h-13l-60 -372h-66l60 372l-58 249h-363l-14 80h504zM684 531h-74l-22 101q-11 53 11 71t85 18t84.5 -16.5t21.5 -72.5q0 -63 -21.5 -82t-84.5 -19zM343 412q42 -46 160 -46l-83 -122
q-44 3 -83.5 40t-39.5 62q0 9 7 21t15.5 21t16.5 16zM245 162l19 -122h98v122h-117zM407 162v-122h97l20 122h-117zM272 -5l23 -142h67v142h-90zM407 -5v-142h67l23 142h-90z" />
    </font>
</defs>
</svg>
